{
DisplayStrings = (
"\U00AE"
);
copyright = "Copyright (c) SIL International, 2003-2008.";
customParameters = (
{
name = glyphOrder;
value = (
    A,
    Aacute,
    Abreve,
    Abreveacute,
    Abrevedotbelow,
    Abrevegrave,
    Abrevehookabove,
    Abrevetilde,
    Acaron,
    Acircumflex,
    Acircumflexacute,
    Acircumflexdotbelow,
    Acircumflexgrave,
    Acircumflexhookabove,
    Acircumflextilde,
    Adieresis,
    Adieresismacron,
    Adotaccent,
    Adotbelow,
    Adotmacron,
    Agrave,
    Ahookabove,
    Amacron,
    Aring,
    Aringacute,
    Atilde,
    AE,
    AEacute,
    AEmacron,
    B,
    Bdotaccent,
    Bdotbelow,
    Bhook,
    Blinebelow,
    C,
    Cacute,
    Ccaron,
    Ccedilla,
    Ccedillaacute,
    Ccircumflex,
    Cdotaccent,
    D,
    Dafrican,
    Eth,
    Dcaron,
    Dcroat,
    Ddotaccent,
    Ddotbelow,
    Dhook,
    Dlinebelow,
    E,
    Eacute,
    Ebreve,
    Ecaron,
    Ecedilla,
    Ecedillabreve,
    Ecircumflex,
    Ecircumflexacute,
    Ecircumflexdotbelow,
    Ecircumflexgrave,
    Ecircumflexhookabove,
    Ecircumflextilde,
    Edieresis,
    Edotaccent,
    Edotbelow,
    Egrave,
    Ehookabove,
    Emacron,
    Emacronacute,
    Emacrongrave,
    Eopen,
    Ereversed,
    Esh,
    Etilde,
    Ezh,
    Ezhcaron,
    F,
    Fdotaccent,
    G,
    Gacute,
    Gbreve,
    Gcaron,
    Gcircumflex,
    Gdotaccent,
    Glottalstop,
    Gmacron,
    H,
    Hcaron,
    Hcircumflex,
    Hdieresis,
    Hdotaccent,
    Hdotbelow,
    I,
    IJ,
    Iacute,
    Ibreve,
    Icaron,
    Icircumflex,
    Idieresis,
    Idieresisacute,
    Idotaccent,
    Idotbelow,
    Igrave,
    Ihookabove,
    Imacron,
    Istroke,
    Itilde,
    J,
    K,
    Kacute,
    Kcaron,
    Kdotbelow,
    Khook,
    Klinebelow,
    L,
    Lacute,
    Lbar,
    Ldotbelow,
    Ldotbelowmacron,
    Ldoublebar,
    Llinebelow,
    Lmiddletilde,
    Lslash,
    M,
    Macute,
    Mdotaccent,
    Mdotbelow,
    N,
    Nacute,
    Ncaron,

glyphs = (
{
glyphname = A;
layers = (
{
anchors = (
{
name = H;
position = "{1000, 0}";
},
{
name = L;
position = "{599, -100}";
},
{
name = O;
position = "{960, 0}";
},
{
name = U;
position = "{599, 1370}";
}
);
hints = (
{
horizontal = 1;
origin = "{0, 0}";
type = Tag;
name = hr00;
}
);
layerId = "5E936A5D-BBF2-432C-9FBC-FBC71ABAF060";
name = Regular;
paths = (
{
closed = 1;
nodes = (
"789 445 LINE",
"903 111 LINE SMOOTH",
"918 67 OFFCURVE",
"879 49 OFFCURVE",
"776 43 CURVE",
"776 0 LINE",
"1198 0 LINE",
"1198 43 LINE",
"1112 53 OFFCURVE",
"1080 74 OFFCURVE",
"1067 111 CURVE SMOOTH",
"647 1317 LINE",
"612 1298 OFFCURVE",
"561 1270 OFFCURVE",
"530 1237 CURVE",
"158 111 LINE SMOOTH",
"145 71 OFFCURVE",
"90 59 OFFCURVE",
"0 43 CURVE",
"0 0 LINE",
"416 0 LINE",
"416 43 LINE",
"307 55 OFFCURVE",
"257 70 OFFCURVE",
"270 111 CURVE SMOOTH",
"381 445 LINE"
);
},
{
closed = 1;
nodes = (
"411 535 LINE",
"582 1049 LINE",
"758 535 LINE"
);
}
);
width = 1219;
}
);
unicode = 0041;
},
{
glyphname = AE;
layers = (
{
anchors = (
{
name = L;
position = "{854, -100}";
},
{
name = U;
position = "{924, 1370}";
}
);
hints = (
{
horizontal = 1;
origin = "{0, 0}";
type = Tag;
name = hr00;
}
);
layerId = "5E936A5D-BBF2-432C-9FBC-FBC71ABAF060";
name = Regular;
paths = (
{
closed = 1;
nodes = (
"1536 244 CURVE",
"1491 262 LINE",
"1434 106 OFFCURVE",
"1393 90 OFFCURVE",
"1270 90 CURVE SMOOTH",
"1141 90 LINE SMOOTH",
"965 90 OFFCURVE",
"934 115 OFFCURVE",
"934 154 CURVE SMOOTH",
"934 651 LINE",
"1075 651 LINE SMOOTH",
"1188 651 OFFCURVE",
"1235 635 OFFCURVE",
"1274 596 CURVE",
"1303 617 OFFCURVE",
"1343 670 OFFCURVE",
"1366 707 CURVE",
"1339 735 LINE",
"934 735 LINE",
"934 1170 LINE",
"1300 1170 LINE SMOOTH",
"1352 1170 OFFCURVE",
"1376 1133 OFFCURVE",
"1382 1010 CURVE",
"1427 1010 LINE",
"1446 1061 OFFCURVE",
"1464 1167 OFFCURVE",
"1468 1235 CURVE",
"1438 1260 LINE",
"381 1260 LINE",
"381 1217 LINE",
"512 1192 OFFCURVE",
"590 1178 OFFCURVE",
"571 1133 CURVE",
"158 111 LINE",
"141 72 OFFCURVE",
"90 59 OFFCURVE",
"0 43 CURVE",
"0 0 LINE",
"416 0 LINE",
"416 43 LINE",
"307 55 OFFCURVE",
"268 72 OFFCURVE",
"285 111 CURVE",
"505 651 LINE",
"774 651 LINE",
"774 104 LINE SMOOTH",
"774 86 OFFCURVE",
"721 61 OFFCURVE",
"631 43 CURVE",
"631 0 LINE",
"1493 0 LINE",
"1503 39 OFFCURVE",
"1524 129 OFFCURVE"
);
},
{
closed = 1;
nodes = (
"774 735 LINE",
"539 735 LINE",
"696 1131 LINE SMOOTH",
"715 1177 OFFCURVE",
"774 1177 OFFCURVE",
"774 1148 CURVE SMOOTH"
);
}
);
width = 1595;
}
);
unicode = 00C6;
},
{
glyphname = B;
layers = (
{
anchors = (
{
name = L;
position = "{528, -100}";
},
{
name = U;
position = "{528, 1370}";
}
);
hints = (
{
horizontal = 1;
origin = "{0, 0}";
type = Tag;
name = hr00;
}
);
layerId = "5E936A5D-BBF2-432C-9FBC-FBC71ABAF060";
name = Regular;
paths = (
{
closed = 1;
nodes = (
"1016 356 CURVE SMOOTH",
"1016 541 OFFCURVE",
"885 690 OFFCURVE",
"715 723 CURVE",
"831 768 OFFCURVE",
"905 877 OFFCURVE",
"905 1020 CURVE SMOOTH",
"905 1188 OFFCURVE",
"737 1290 OFFCURVE",
"469 1290 CURVE SMOOTH",
"324 1290 OFFCURVE",
"145 1259 OFFCURVE",
"41 1230 CURVE",
"50 1168 LINE",
"95 1176 OFFCURVE",
"144 1184 OFFCURVE",
"195 1190 CURVE",
"195 104 LINE SMOOTH",
"195 86 OFFCURVE",
"140 61 OFFCURVE",
"50 43 CURVE",
"50 0 LINE",
"123 0 LINE",
"123 0 OFFCURVE",
"442 -14 OFFCURVE",
"559 -14 CURVE SMOOTH",
"829 -14 OFFCURVE",
"1016 129 OFFCURVE"
);
},
{
closed = 1;
nodes = (
"520 650 CURVE SMOOTH",
"752 650 OFFCURVE",
"852 469 OFFCURVE",
"852 322 CURVE SMOOTH",
"852 172 OFFCURVE",
"729 70 OFFCURVE",
"537 70 CURVE SMOOTH",
"485 70 OFFCURVE",
"410 74 OFFCURVE",
"364 89 CURVE",
"358 94 OFFCURVE",
"355 100 OFFCURVE",
"355 104 CURVE SMOOTH",
"355 635 LINE",
"403 643 OFFCURVE",
"456 650 OFFCURVE"
);
},
{
closed = 1;
nodes = (
"413 1206 CURVE SMOOTH",
"671 1206 OFFCURVE",
"750 1104 OFFCURVE",
"750 971 CURVE SMOOTH",
"750 856 OFFCURVE",
"692 725 OFFCURVE",
"389 725 CURVE SMOOTH",
"355 725 LINE",
"355 1204 LINE",
"375 1205 OFFCURVE",
"395 1206 OFFCURVE"
);
}
);
width = 1126;
}
);
unicode = 0042;
},
{
glyphname = Bhook;
layers = (
{
anchors = (
{
name = L;
position = "{638, -100}";
},
{
name = U;
position = "{638, 1370}";
}
);
hints = (
{
horizontal = 1;
origin = "{0, 0}";
type = Tag;
name = hr00;
}
);
layerId = "5E936A5D-BBF2-432C-9FBC-FBC71ABAF060";
name = Regular;
paths = (
{
closed = 1;
nodes = (
"30 1003 CURVE SMOOTH",
"30 930 OFFCURVE",
"66 877 OFFCURVE",
"115 856 CURVE",
"170 867 OFFCURVE",
"256 914 OFFCURVE",
"263 930 CURVE",
"222 949 OFFCURVE",
"194 988 OFFCURVE",
"194 1036 CURVE SMOOTH",
"194 1130 OFFCURVE",
"286 1181 OFFCURVE",
"425 1199 CURVE",
"425 104 LINE SMOOTH",
"425 86 OFFCURVE",
"370 61 OFFCURVE",
"280 43 CURVE",
"280 0 LINE",
"353 0 LINE",
"353 0 OFFCURVE",
"672 -14 OFFCURVE",
"789 -14 CURVE SMOOTH",
"1059 -14 OFFCURVE",
"1246 129 OFFCURVE",
"1246 356 CURVE SMOOTH",
"1246 541 OFFCURVE",
"1115 690 OFFCURVE",
"945 723 CURVE",
"1061 768 OFFCURVE",
"1135 877 OFFCURVE",
"1135 1020 CURVE SMOOTH",
"1135 1096 OFFCURVE",
"1097 1163 OFFCURVE",
"1037 1203 CURVE SMOOTH",
"942 1266 OFFCURVE",
"817 1290 OFFCURVE",
"589 1290 CURVE SMOOTH",
"243 1290 OFFCURVE",
"30 1177 OFFCURVE"
);
},
{
closed = 1;
nodes = (
"750 649 CURVE SMOOTH",
"982 649 OFFCURVE",
"1082 469 OFFCURVE",
"1082 322 CURVE SMOOTH",
"1082 172 OFFCURVE",
"959 70 OFFCURVE",
"767 70 CURVE SMOOTH",
"715 70 OFFCURVE",
"640 74 OFFCURVE",
"594 89 CURVE",
"588 94 OFFCURVE",
"585 100 OFFCURVE",
"585 104 CURVE SMOOTH",
"585 635 LINE",
"633 643 OFFCURVE",
"686 649 OFFCURVE"
);
},
{
closed = 1;
nodes = (
"904 1136 CURVE SMOOTH",
"952 1098 OFFCURVE",
"979 1036 OFFCURVE",
"979 971 CURVE SMOOTH",
"979 856 OFFCURVE",
"922 725 OFFCURVE",
"619 725 CURVE SMOOTH",
"585 725 LINE",
"585 1206 LINE",
"763 1204 OFFCURVE",
"839 1187 OFFCURVE"
);
}
);
width = 1356;
}
);
unicode = 0181;
},
{
glyphname = C;
layers = (
{
anchors = (
{
name = H;
position = "{584, 0}";
},
{
name = L;
position = "{614, -100}";
},
{
name = U;
position = "{614, 1370}";
}
);
hints = (
{
horizontal = 1;
origin = "{0, 0}";
type = Tag;
name = hr00;
}
);
layerId = "5E936A5D-BBF2-432C-9FBC-FBC71ABAF060";
name = Regular;
paths = (
{
closed = 1;
nodes = (
"1018 211 CURVE",
"1010 219 OFFCURVE",
"995 250 OFFCURVE",
"981 256 CURVE",
"834 133 OFFCURVE",
"715 90 OFFCURVE",
"643 90 CURVE SMOOTH",
"453 90 OFFCURVE",
"225 268 OFFCURVE",
"225 623 CURVE SMOOTH",
"225 1038 OFFCURVE",
"455 1180 OFFCURVE",
"592 1180 CURVE SMOOTH",
"713 1180 OFFCURVE",
"807 1135 OFFCURVE",
"874 1073 CURVE",
"909 1067 LINE",
"940 1098 OFFCURVE",
"1014 1178 OFFCURVE",
"999 1190 CURVE SMOOTH",
"930 1245 OFFCURVE",
"819 1290 OFFCURVE",
"676 1290 CURVE SMOOTH",
"348 1290 OFFCURVE",
"70 1012 OFFCURVE",
"70 586 CURVE SMOOTH",
"70 199 OFFCURVE",
"324 -30 OFFCURVE",
"571 -30 CURVE SMOOTH",
"709 -30 OFFCURVE",
"848 29 OFFCURVE"
);
}
);
width = 1098;
}
);
unicode = 0043;
},
{
glyphname = D;
layers = (
{
anchors = (
{
name = L;
position = "{550, -100}";
},
{
name = U;
position = "{550, 1370}";
}
);
hints = (
{
horizontal = 1;
origin = "{0, 0}";
type = Tag;
name = hr00;
}
);
layerId = "5E936A5D-BBF2-432C-9FBC-FBC71ABAF060";
name = Regular;
paths = (
{
closed = 1;
nodes = (
"1123 676 CURVE SMOOTH",
"1123 1063 OFFCURVE",
"889 1290 OFFCURVE",
"518 1290 CURVE SMOOTH",
"360 1290 OFFCURVE",
"158 1263 OFFCURVE",
"41 1230 CURVE",
"50 1168 LINE",
"94 1174 OFFCURVE",
"142 1182 OFFCURVE",
"195 1188 CURVE",
"195 104 LINE SMOOTH",
"195 86 OFFCURVE",
"140 61 OFFCURVE",
"50 43 CURVE",
"50 0 LINE",
"559 0 LINE SMOOTH",
"795 0 OFFCURVE",
"1123 176 OFFCURVE"
);
},
{
closed = 1;
nodes = (
"453 1206 CURVE SMOOTH",
"774 1206 OFFCURVE",
"953 991 OFFCURVE",
"953 637 CURVE SMOOTH",
"953 262 OFFCURVE",
"721 84 OFFCURVE",
"537 84 CURVE SMOOTH",
"433 84 OFFCURVE",
"384 95 OFFCURVE",
"365 118 CURVE SMOOTH",
"358 128 OFFCURVE",
"355 140 OFFCURVE",
"355 154 CURVE SMOOTH",
"355 1203 LINE",
"387 1205 OFFCURVE",
"420 1206 OFFCURVE"
);
}
);
width = 1214;
}
);
unicode = 0044;
},
{
glyphname = Dafrican;
layers = (
{
anchors = (
{
name = L;
position = "{575, -100}";
},
{
name = U;
position = "{575, 1370}";
}
);
components = (
{
name = D;
}
);
hints = (
{
horizontal = 1;
origin = "{0, 0}";
type = Tag;
name = hr00;
}
);
layerId = "5E936A5D-BBF2-432C-9FBC-FBC71ABAF060";
name = Regular;
paths = (
{
closed = 1;
nodes = (
"639 682 LINE",
"614 705 LINE",
"49 705 LINE",
"41 684 OFFCURVE",
"33 660 OFFCURVE",
"27 640 CURVE",
"49 615 LINE",
"614 615 LINE"
);
}
);
width = 1214;
}
);
unicode = 0189;
},
{
glyphname = Eth;
layers = (
{
anchors = (
{
name = L;
position = "{575, -100}";
},
{
name = U;
position = "{575, 1370}";
}
);
components = (
{
name = D;
}
);
hints = (
{
horizontal = 1;
origin = "{0, 0}";
type = Tag;
name = hr00;
}
);
layerId = "5E936A5D-BBF2-432C-9FBC-FBC71ABAF060";
name = Regular;
paths = (
{
closed = 1;
nodes = (
"639 682 LINE",
"614 705 LINE",
"49 705 LINE",
"41 684 OFFCURVE",
"33 660 OFFCURVE",
"27 640 CURVE",
"49 615 LINE",
"614 615 LINE"
);
}
);
width = 1214;
}
);
unicode = 00D0;
},
{
glyphname = Dcroat;
layers = (
{
anchors = (
{
name = L;
position = "{575, -100}";
},
{
name = U;
position = "{575, 1370}";
}
);
components = (
{
name = D;
}
);
hints = (
{
horizontal = 1;
origin = "{0, 0}";
type = Tag;
name = hr00;
}
);
layerId = "5E936A5D-BBF2-432C-9FBC-FBC71ABAF060";
name = Regular;
paths = (
{
closed = 1;
nodes = (
"639 682 LINE",
"614 705 LINE",
"49 705 LINE",
"41 684 OFFCURVE",
"33 660 OFFCURVE",
"27 640 CURVE",
"49 615 LINE",
"614 615 LINE"
);
}
);
width = 1214;
}
);
unicode = 0110;
},
{
glyphname = Dhook;
layers = (
{
anchors = (
{
name = L;
position = "{692, -100}";
},
{
name = U;
position = "{692, 1370}";
}
);
hints = (
{
horizontal = 1;
origin = "{0, 0}";
type = Tag;
name = hr00;
}
);
layerId = "5E936A5D-BBF2-432C-9FBC-FBC71ABAF060";
name = Regular;
paths = (
{
closed = 1;
nodes = (
"30 1003 CURVE SMOOTH",
"30 930 OFFCURVE",
"66 877 OFFCURVE",
"115 856 CURVE",
"170 867 OFFCURVE",
"256 914 OFFCURVE",
"263 930 CURVE",
"222 949 OFFCURVE",
"194 988 OFFCURVE",
"194 1036 CURVE SMOOTH",
"194 1121 OFFCURVE",
"267 1178 OFFCURVE",
"425 1198 CURVE",
"425 104 LINE SMOOTH",
"425 86 OFFCURVE",
"370 61 OFFCURVE",
"280 43 CURVE",
"280 0 LINE",
"789 0 LINE SMOOTH",
"1025 0 OFFCURVE",
"1353 176 OFFCURVE",
"1353 676 CURVE SMOOTH",
"1353 890 OFFCURVE",
"1285 1081 OFFCURVE",
"1096 1202 CURVE SMOOTH",
"996 1266 OFFCURVE",
"875 1290 OFFCURVE",
"658 1290 CURVE SMOOTH",
"288 1290 OFFCURVE",
"30 1206 OFFCURVE"
);
},
{
closed = 1;
nodes = (
"1003 1103 CURVE SMOOTH",
"1131 998 OFFCURVE",
"1183 818 OFFCURVE",
"1183 637 CURVE SMOOTH",
"1183 262 OFFCURVE",
"951 84 OFFCURVE",
"767 84 CURVE SMOOTH",
"663 84 OFFCURVE",
"614 95 OFFCURVE",
"595 118 CURVE SMOOTH",
"588 128 OFFCURVE",
"585 140 OFFCURVE",
"585 154 CURVE SMOOTH",
"585 1206 LINE",
"807 1205 OFFCURVE",
"907 1181 OFFCURVE"
);
}
);
width = 1444;
}
);
unicode = 018A;
},
{
glyphname = E;
layers = (
{
anchors = (
{
name = H;
position = "{502, 0}";
},
{
name = L;
position = "{502, -100}";
},
{
name = O;
position = "{750, 0}";
},
{
name = U;
position = "{502, 1370}";
}
);
hints = (
{
horizontal = 1;
origin = "{0, 0}";
type = Tag;
name = hr00;
}
);
layerId = "5E936A5D-BBF2-432C-9FBC-FBC71ABAF060";
name = Regular;
paths = (
{
closed = 1;
nodes = (
"954 244 CURVE",
"911 262 LINE",
"854 106 OFFCURVE",
"811 90 OFFCURVE",
"688 90 CURVE SMOOTH",
"559 90 LINE SMOOTH",
"383 90 OFFCURVE",
"355 115 OFFCURVE",
"355 154 CURVE SMOOTH",
"355 651 LINE",
"496 651 LINE SMOOTH",
"608 651 OFFCURVE",
"653 635 OFFCURVE",
"694 596 CURVE",
"723 617 OFFCURVE",
"764 670 OFFCURVE",
"786 707 CURVE",
"760 735 LINE",
"355 735 LINE",
"355 1170 LINE",
"721 1170 LINE SMOOTH",
"770 1170 OFFCURVE",
"797 1133 OFFCURVE",
"803 1010 CURVE",
"848 1010 LINE",
"864 1061 OFFCURVE",
"885 1167 OFFCURVE",
"889 1235 CURVE",
"856 1260 LINE",
"50 1260 LINE",
"50 1217 LINE",
"146 1198 OFFCURVE",
"195 1171 OFFCURVE",
"195 1155 CURVE SMOOTH",
"195 104 LINE SMOOTH",
"195 86 OFFCURVE",
"140 61 OFFCURVE",
"50 43 CURVE",
"50 0 LINE",
"913 0 LINE",
"924 39 OFFCURVE",
"944 129 OFFCURVE"
);
}
);
width = 1016;
}
);
unicode = 0045;
},
{
glyphname = Eopen;
layers = (
{
anchors = (
{
name = L;
position = "{521, -100}";
},
{
name = U;
position = "{521, 1370}";
}
);
hints = (
{
horizontal = 1;
origin = "{0, 0}";
type = Tag;
name = hr00;
}
);
layerId = "5E936A5D-BBF2-432C-9FBC-FBC71ABAF060";
name = Regular;
paths = (
{
closed = 1;
nodes = (
"963 213 CURVE",
"920 258 LINE",
"748 117 OFFCURVE",
"674 95 OFFCURVE",
"543 95 CURVE SMOOTH",
"373 95 OFFCURVE",
"240 201 OFFCURVE",
"240 344 CURVE SMOOTH",
"240 465 OFFCURVE",
"356 611 OFFCURVE",
"631 630 CURVE",
"631 705 LINE",
"326 718 OFFCURVE",
"253 829 OFFCURVE",
"253 938 CURVE SMOOTH",
"253 1077 OFFCURVE",
"389 1180 OFFCURVE",
"535 1180 CURVE SMOOTH",
"653 1180 OFFCURVE",
"727 1145 OFFCURVE",
"811 1073 CURVE",
"854 1065 LINE",
"889 1104 OFFCURVE",
"922 1141 OFFCURVE",
"944 1186 CURVE",
"858 1257 OFFCURVE",
"731 1290 OFFCURVE",
"588 1290 CURVE SMOOTH",
"481 1290 OFFCURVE",
"385 1255 OFFCURVE",
"299 1202 CURVE SMOOTH",
"180 1130 OFFCURVE",
"113 1020 OFFCURVE",
"113 905 CURVE SMOOTH",
"113 774 OFFCURVE",
"190 680 OFFCURVE",
"317 635 CURVE",
"193 580 OFFCURVE",
"80 438 OFFCURVE",
"80 283 CURVE SMOOTH",
"80 150 OFFCURVE",
"211 -30 OFFCURVE",
"457 -30 CURVE SMOOTH",
"659 -30 OFFCURVE",
"801 31 OFFCURVE"
);
}
);
width = 1042;
}
);
unicode = 0190;
},
{
glyphname = Ereversed;
layers = (
{
anchors = (
{
name = L;
position = "{509, -100}";
},
{
name = U;
position = "{509, 1370}";
}
);
hints = (
{
horizontal = 1;
origin = "{0, 0}";
type = Tag;
name = hr00;
}
);
layerId = "5E936A5D-BBF2-432C-9FBC-FBC71ABAF060";
name = Regular;
paths = (
{
closed = 1;
nodes = (
"954 0 LINE",
"954 43 LINE",
"858 62 OFFCURVE",
"809 89 OFFCURVE",
"809 105 CURVE SMOOTH",
"809 1156 LINE SMOOTH",
"809 1174 OFFCURVE",
"864 1199 OFFCURVE",
"954 1217 CURVE",
"954 1260 LINE",
"181 1260 LINE",
"170 1221 OFFCURVE",
"150 1131 OFFCURVE",
"140 1016 CURVE",
"183 998 LINE",
"240 1154 OFFCURVE",
"283 1170 OFFCURVE",
"406 1170 CURVE SMOOTH",
"649 1170 LINE",
"649 739 LINE",
"508 739 LINE SMOOTH",
"396 739 OFFCURVE",
"351 735 OFFCURVE",
"310 774 CURVE",
"281 753 OFFCURVE",
"240 700 OFFCURVE",
"218 663 CURVE",
"244 635 LINE",
"287 646 OFFCURVE",
"377 655 OFFCURVE",
"439 655 CURVE SMOOTH",
"649 655 LINE",
"649 163 LINE SMOOTH",
"649 110 OFFCURVE",
"620 90 OFFCURVE",
"448 90 CURVE SMOOTH",
"233 90 LINE SMOOTH",
"184 90 OFFCURVE",
"167 194 OFFCURVE",
"161 317 CURVE",
"116 317 LINE",
"100 266 OFFCURVE",
"69 93 OFFCURVE",
"65 25 CURVE",
"98 0 LINE"
);
}
);
width = 1016;
}
);
unicode = 018E;
},
{
glyphname = Esh;
layers = (
{
anchors = (
{
name = L;
position = "{534, -100}";
},
{
name = U;
position = "{534, 1370}";
}
);
hints = (
{
horizontal = 1;
origin = "{0, 13}";
type = Tag;
name = hr01;
},
{
horizontal = 1;
origin = "{0, 16}";
type = Tag;
name = hr02;
}
);
layerId = "5E936A5D-BBF2-432C-9FBC-FBC71ABAF060";
name = Regular;
paths = (
{
closed = 1;
nodes = (
"1009 345 CURVE",
"956 357 LINE",
"907 182 OFFCURVE",
"892 140 OFFCURVE",
"808 140 CURVE SMOOTH",
"256 140 LINE",
"653 674 LINE",
"311 1160 LINE",
"780 1160 LINE SMOOTH",
"819 1160 OFFCURVE",
"866 1161 OFFCURVE",
"915 963 CURVE",
"971 975 LINE",
"967 1276 LINE",
"887 1260 OFFCURVE",
"829 1260 OFFCURVE",
"754 1260 CURVE SMOOTH",
"80 1260 LINE",
"80 1217 LINE",
"496 635 LINE",
"59 43 LINE",
"90 0 LINE",
"983 0 LINE",
"989 72 OFFCURVE",
"1003 238 OFFCURVE"
);
}
);
width = 1064;
}
);
unicode = 01A9;
},
{
glyphname = Ezh;
layers = (
{
anchors = (
{
name = L;
position = "{535, -100}";
},
{
name = U;
position = "{535, 1370}";
}
);
hints = (
{
horizontal = 1;
origin = "{0, 0}";
type = Tag;
name = hr00;
}
);
layerId = "5E936A5D-BBF2-432C-9FBC-FBC71ABAF060";
name = Regular;
paths = (
{
closed = 1;
nodes = (
"976 434 CURVE SMOOTH",
"976 668 OFFCURVE",
"811 793 OFFCURVE",
"638 793 CURVE SMOOTH",
"617 793 OFFCURVE",
"595 790 OFFCURVE",
"573 786 CURVE",
"921 1217 LINE",
"896 1260 LINE",
"327 1260 LINE SMOOTH",
"241 1260 OFFCURVE",
"208 1260 OFFCURVE",
"151 1276 CURVE",
"121 975 LINE",
"178 963 LINE",
"205 1086 OFFCURVE",
"265 1160 OFFCURVE",
"308 1160 CURVE SMOOTH",
"690 1160 LINE",
"278 663 LINE",
"278 662 OFFCURVE",
"277 662 OFFCURVE",
"277 662 CURVE",
"277 661 LINE",
"278 659 LINE SMOOTH",
"285 648 OFFCURVE",
"301 627 OFFCURVE",
"310 619 CURVE SMOOTH",
"312 617 LINE",
"361 642 LINE",
"424 672 OFFCURVE",
"474 692 OFFCURVE",
"534 692 CURVE SMOOTH",
"715 692 OFFCURVE",
"826 543 OFFCURVE",
"826 383 CURVE SMOOTH",
"826 180 OFFCURVE",
"696 90 OFFCURVE",
"527 90 CURVE SMOOTH",
"416 90 OFFCURVE",
"290 166 OFFCURVE",
"233 265 CURVE",
"178 257 OFFCURVE",
"94 168 OFFCURVE",
"94 153 CURVE SMOOTH",
"94 108 OFFCURVE",
"258 -30 OFFCURVE",
"488 -30 CURVE SMOOTH",
"742 -30 OFFCURVE",
"976 152 OFFCURVE"
);
}
);
width = 1066;
}
);
unicode = 01B7;
},
{
glyphname = F;
layers = (
{
anchors = (
{
name = L;
position = "{473, -100}";
},
{
name = U;
position = "{473, 1370}";
}
);
hints = (
{
horizontal = 1;
origin = "{0, 0}";
type = Tag;
name = hr00;
}
);
layerId = "5E936A5D-BBF2-432C-9FBC-FBC71ABAF060";
name = Regular;
paths = (
{
closed = 1;
nodes = (
"530 0 LINE",
"530 43 LINE",
"399 68 OFFCURVE",
"355 88 OFFCURVE",
"355 104 CURVE SMOOTH",
"355 651 LINE",
"467 651 LINE SMOOTH",
"578 651 OFFCURVE",
"625 635 OFFCURVE",
"664 596 CURVE",
"692 617 OFFCURVE",
"733 670 OFFCURVE",
"758 707 CURVE",
"729 735 LINE",
"355 735 LINE",
"355 1170 LINE",
"729 1170 LINE SMOOTH",
"780 1170 OFFCURVE",
"807 1133 OFFCURVE",
"811 1010 CURVE",
"858 1010 LINE",
"874 1061 OFFCURVE",
"895 1167 OFFCURVE",
"897 1235 CURVE",
"866 1260 LINE",
"50 1260 LINE",
"50 1217 LINE",
"146 1198 OFFCURVE",
"195 1171 OFFCURVE",
"195 1155 CURVE SMOOTH",
"195 104 LINE SMOOTH",
"195 86 OFFCURVE",
"140 61 OFFCURVE",
"50 43 CURVE",
"50 0 LINE"
);
}
);
width = 979;
}
);
unicode = 0046;
},
{
glyphname = G;
layers = (
{
anchors = (
{
name = H;
position = "{620, 0}";
},
{
name = L;
position = "{640, -100}";
},
{
name = U;
position = "{640, 1370}";
}
);
hints = (
{
horizontal = 1;
origin = "{0, 0}";
type = Tag;
name = hr00;
}
);
layerId = "5E936A5D-BBF2-432C-9FBC-FBC71ABAF060";
name = Regular;
paths = (
{
closed = 1;
nodes = (
"1042 1188 CURVE SMOOTH",
"956 1253 OFFCURVE",
"825 1290 OFFCURVE",
"737 1290 CURVE SMOOTH",
"371 1290 OFFCURVE",
"70 1026 OFFCURVE",
"70 582 CURVE SMOOTH",
"70 170 OFFCURVE",
"350 -30 OFFCURVE",
"618 -30 CURVE SMOOTH",
"739 -30 OFFCURVE",
"842 -8 OFFCURVE",
"1040 154 CURVE",
"1040 485 LINE SMOOTH",
"1040 516 OFFCURVE",
"1069 549 OFFCURVE",
"1145 567 CURVE",
"1145 610 LINE",
"684 610 LINE",
"684 567 LINE",
"846 541 OFFCURVE",
"890 514 OFFCURVE",
"890 485 CURVE SMOOTH",
"890 146 LINE",
"825 110 OFFCURVE",
"742 90 OFFCURVE",
"645 90 CURVE SMOOTH",
"442 90 OFFCURVE",
"225 266 OFFCURVE",
"225 637 CURVE SMOOTH",
"225 1053 OFFCURVE",
"498 1180 OFFCURVE",
"598 1180 CURVE SMOOTH",
"729 1180 OFFCURVE",
"825 1161 OFFCURVE",
"913 1077 CURVE",
"946 1071 LINE",
"981 1102 OFFCURVE",
"1061 1174 OFFCURVE"
);
}
);
width = 1194;
}
);
unicode = 0047;
},
{
glyphname = Glottalstop;
layers = (
{
anchors = (
{
name = L;
position = "{475, -100}";
},
{
name = U;
position = "{475, 1370}";
}
);
layerId = "5E936A5D-BBF2-432C-9FBC-FBC71ABAF060";
name = Regular;
paths = (
{
closed = 1;
nodes = (
"720 0 LINE",
"720 43 LINE",
"611 61 OFFCURVE",
"555 84 OFFCURVE",
"555 104 CURVE SMOOTH",
"555 455 LINE SMOOTH",
"555 690 OFFCURVE",
"890 688 OFFCURVE",
"890 985 CURVE SMOOTH",
"890 1172 OFFCURVE",
"758 1290 OFFCURVE",
"522 1290 CURVE SMOOTH",
"259 1290 OFFCURVE",
"40 1131 OFFCURVE",
"40 943 CURVE SMOOTH",
"40 923 OFFCURVE",
"45 900 OFFCURVE",
"47 890 CURVE",
"74 860 LINE",
"133 866 OFFCURVE",
"188 876 OFFCURVE",
"231 898 CURVE",
"218 922 OFFCURVE",
"214 946 OFFCURVE",
"214 976 CURVE SMOOTH",
"214 1080 OFFCURVE",
"308 1190 OFFCURVE",
"444 1190 CURVE SMOOTH",
"623 1190 OFFCURVE",
"730 1104 OFFCURVE",
"730 940 CURVE SMOOTH",
"730 740 OFFCURVE",
"395 685 OFFCURVE",
"395 396 CURVE SMOOTH",
"395 104 LINE SMOOTH",
"395 82 OFFCURVE",
"345 63 OFFCURVE",
"230 43 CURVE",
"230 0 LINE"
);
}
);
width = 950;
}
);
unicode = 0241;
},
{
glyphname = H;
layers = (
{
anchors = (
{
name = H;
position = "{270, 0}";
},
{
name = L;
position = "{660, -100}";
},
{
name = U;
position = "{660, 1370}";
}
);
hints = (
{
horizontal = 1;
origin = "{0, 0}";
type = Tag;
name = hr00;
}
);
layerId = "5E936A5D-BBF2-432C-9FBC-FBC71ABAF060";
name = Regular;
paths = (
{
closed = 1;
nodes = (
"500 0 LINE",
"500 43 LINE",
"403 61 OFFCURVE",
"355 88 OFFCURVE",
"355 104 CURVE SMOOTH",
"355 615 LINE",
"965 615 LINE",
"965 104 LINE SMOOTH",
"965 86 OFFCURVE",
"910 61 OFFCURVE",
"820 43 CURVE",
"820 0 LINE",
"1270 0 LINE",
"1270 43 LINE",
"1174 61 OFFCURVE",
"1125 88 OFFCURVE",
"1125 104 CURVE SMOOTH",
"1125 1155 LINE SMOOTH",
"1125 1174 OFFCURVE",
"1180 1198 OFFCURVE",
"1270 1217 CURVE",
"1270 1260 LINE",
"820 1260 LINE",
"820 1217 LINE",
"916 1198 OFFCURVE",
"965 1171 OFFCURVE",
"965 1155 CURVE SMOOTH",
"965 705 LINE",
"355 705 LINE",
"355 1155 LINE SMOOTH",
"355 1174 OFFCURVE",
"410 1198 OFFCURVE",
"500 1217 CURVE",
"500 1260 LINE",
"50 1260 LINE",
"50 1217 LINE",
"146 1198 OFFCURVE",
"195 1171 OFFCURVE",
"195 1155 CURVE SMOOTH",
"195 104 LINE SMOOTH",
"195 86 OFFCURVE",
"140 61 OFFCURVE",
"50 43 CURVE",
"50 0 LINE"
);
}
);
width = 1339;
}
);
unicode = 0048;
},
{
glyphname = I;
layers = (
{
anchors = (
{
name = H;
position = "{295, 0}";
},
{
name = L;
position = "{295, -100}";
},
{
name = O;
position = "{345, 0}";
},
{
name = U;
position = "{295, 1370}";
}
);
hints = (
{
horizontal = 1;
origin = "{0, 0}";
type = Tag;
name = hr00;
}
);
layerId = "5E936A5D-BBF2-432C-9FBC-FBC71ABAF060";
name = Regular;
paths = (
{
closed = 1;
nodes = (
"520 0 LINE",
"520 43 LINE",
"424 61 OFFCURVE",
"375 88 OFFCURVE",
"375 104 CURVE SMOOTH",
"375 1155 LINE SMOOTH",
"375 1174 OFFCURVE",
"430 1198 OFFCURVE",
"520 1217 CURVE",
"520 1260 LINE",
"70 1260 LINE",
"70 1217 LINE",
"166 1198 OFFCURVE",
"215 1171 OFFCURVE",
"215 1155 CURVE SMOOTH",
"215 104 LINE SMOOTH",
"215 86 OFFCURVE",
"160 61 OFFCURVE",
"70 43 CURVE",
"70 0 LINE"
);
}
);
width = 610;
}
);
unicode = 0049;
},
{
glyphname = Istroke;
layers = (
{
anchors = (
{
name = L;
position = "{296, -100}";
},
{
name = U;
position = "{296, 1370}";
}
);
hints = (
{
horizontal = 1;
origin = "{0, 0}";
type = Tag;
name = hr00;
}
);
layerId = "5E936A5D-BBF2-432C-9FBC-FBC71ABAF060";
name = Regular;
paths = (
{
closed = 1;
nodes = (
"545 682 LINE",
"520 705 LINE",
"375 705 LINE",
"375 1155 LINE SMOOTH",
"375 1174 OFFCURVE",
"430 1198 OFFCURVE",
"520 1217 CURVE",
"520 1260 LINE",
"70 1260 LINE",
"70 1217 LINE",
"166 1198 OFFCURVE",
"215 1171 OFFCURVE",
"215 1155 CURVE SMOOTH",
"215 705 LINE",
"70 705 LINE",
"62 684 OFFCURVE",
"54 659 OFFCURVE",
"48 639 CURVE",
"70 615 LINE",
"215 615 LINE",
"215 104 LINE SMOOTH",
"215 86 OFFCURVE",
"160 61 OFFCURVE",
"70 43 CURVE",
"70 0 LINE",
"520 0 LINE",
"520 43 LINE",
"424 61 OFFCURVE",
"375 88 OFFCURVE",
"375 104 CURVE SMOOTH",
"375 615 LINE",
"520 615 LINE"
);
}
);
width = 610;
}
);
unicode = 0197;
},
{
glyphname = J;
layers = (
{
anchors = (
{
name = L;
position = "{330, -600}";
},
{
name = U;
position = "{330, 1370}";
}
);
hints = (
{
horizontal = 1;
origin = "{0, 0}";
type = Tag;
name = hr00;
}
);
layerId = "5E936A5D-BBF2-432C-9FBC-FBC71ABAF060";
name = Regular;
paths = (
{
closed = 1;
nodes = (
"555 1217 CURVE",
"555 1260 LINE",
"55 1260 LINE",
"55 1217 LINE",
"215 1194 OFFCURVE",
"250 1171 OFFCURVE",
"250 1155 CURVE SMOOTH",
"250 133 LINE SMOOTH",
"250 -180 OFFCURVE",
"154 -257 OFFCURVE",
"84 -257 CURVE SMOOTH",
"33 -257 OFFCURVE",
"0 -249 OFFCURVE",
"-74 -200 CURVE",
"-111 -214 OFFCURVE",
"-190 -278 OFFCURVE",
"-190 -300 CURVE SMOOTH",
"-190 -323 OFFCURVE",
"-106 -380 OFFCURVE",
"-25 -380 CURVE SMOOTH",
"27 -380 OFFCURVE",
"140 -346 OFFCURVE",
"211 -288 CURVE",
"316 -203 OFFCURVE",
"410 -111 OFFCURVE",
"410 205 CURVE SMOOTH",
"410 1155 LINE SMOOTH",
"410 1174 OFFCURVE",
"465 1198 OFFCURVE"
);
}
);
width = 625;
}
);
unicode = 004A;
},
{
glyphname = K;
layers = (
{
anchors = (
{
name = H;
position = "{275, 0}";
},
{
name = L;
position = "{612, -100}";
},
{
name = U;
position = "{590, 1370}";
}
);
hints = (
{
horizontal = 1;
origin = "{0, 0}";
type = Tag;
name = hr00;
}
);
layerId = "5E936A5D-BBF2-432C-9FBC-FBC71ABAF060";
name = Regular;
paths = (
{
closed = 1;
nodes = (
"500 0 LINE",
"500 43 LINE",
"403 61 OFFCURVE",
"355 88 OFFCURVE",
"355 104 CURVE SMOOTH",
"355 639 LINE",
"854 29 LINE SMOOTH",
"881 -4 OFFCURVE",
"909 -14 OFFCURVE",
"948 -14 CURVE SMOOTH",
"1012 -14 OFFCURVE",
"1096 12 OFFCURVE",
"1174 37 CURVE",
"1167 80 LINE",
"1098 72 OFFCURVE",
"1032 74 OFFCURVE",
"985 127 CURVE SMOOTH",
"502 671 LINE",
"940 1155 LINE SMOOTH",
"981 1200 OFFCURVE",
"1024 1206 OFFCURVE",
"1110 1217 CURVE",
"1110 1260 LINE",
"690 1260 LINE",
"690 1217 LINE",
"795 1208 OFFCURVE",
"825 1200 OFFCURVE",
"764 1128 CURVE SMOOTH",
"355 646 LINE",
"355 1155 LINE SMOOTH",
"355 1174 OFFCURVE",
"410 1198 OFFCURVE",
"500 1217 CURVE",
"500 1260 LINE",
"50 1260 LINE",
"50 1217 LINE",
"146 1198 OFFCURVE",
"195 1171 OFFCURVE",
"195 1155 CURVE SMOOTH",
"195 104 LINE SMOOTH",
"195 86 OFFCURVE",
"140 61 OFFCURVE",
"50 43 CURVE",
"50 0 LINE"
);
}
);
width = 1184;
}
);
unicode = 004B;
},
{
glyphname = Khook;
layers = (
{
anchors = (
{
name = L;
position = "{641, -100}";
},
{
name = U;
position = "{641, 1370}";
}
);
hints = (
{
horizontal = 1;
origin = "{0, 0}";
type = Tag;
name = hr00;
}
);
layerId = "5E936A5D-BBF2-432C-9FBC-FBC71ABAF060";
name = Regular;
paths = (
{
closed = 1;
nodes = (
"500 0 LINE",
"500 43 LINE",
"403 61 OFFCURVE",
"355 88 OFFCURVE",
"355 104 CURVE SMOOTH",
"355 639 LINE",
"854 29 LINE SMOOTH",
"881 -4 OFFCURVE",
"909 -14 OFFCURVE",
"948 -14 CURVE SMOOTH",
"1012 -14 OFFCURVE",
"1096 12 OFFCURVE",
"1174 37 CURVE",
"1167 80 LINE",
"1098 72 OFFCURVE",
"1032 74 OFFCURVE",
"985 127 CURVE SMOOTH",
"500 673 LINE",
"804 1042 LINE SMOOTH",
"849 1096 OFFCURVE",
"904 1151 OFFCURVE",
"959 1151 CURVE SMOOTH",
"1015 1151 OFFCURVE",
"1056 1108 OFFCURVE",
"1058 1027 CURVE SMOOTH",
"1059 989 OFFCURVE",
"1049 942 OFFCURVE",
"1024 885 CURVE",
"1042 856 LINE",
"1105 873 OFFCURVE",
"1214 921 OFFCURVE",
"1221 943 CURVE",
"1229 981 OFFCURVE",
"1233 1015 OFFCURVE",
"1233 1046 CURVE SMOOTH",
"1232 1205 OFFCURVE",
"1125 1270 OFFCURVE",
"1000 1270 CURVE SMOOTH",
"896 1270 OFFCURVE",
"804 1213 OFFCURVE",
"717 1103 CURVE SMOOTH",
"355 647 LINE",
"355 1155 LINE SMOOTH",
"355 1174 OFFCURVE",
"410 1198 OFFCURVE",
"500 1217 CURVE",
"500 1260 LINE",
"50 1260 LINE",
"50 1217 LINE",
"146 1198 OFFCURVE",
"195 1171 OFFCURVE",
"195 1155 CURVE SMOOTH",
"195 104 LINE SMOOTH",
"195 86 OFFCURVE",
"140 61 OFFCURVE",
"50 43 CURVE",
"50 0 LINE"
);
}
);
width = 1263;
}
);
unicode = 0198;
},
{
glyphname = L;
layers = (
{
anchors = (
{
name = H;
position = "{497, 0}";
},
{
name = L;
position = "{497, -100}";
},
{
name = R;
position = "{750, 900}";
},
{
name = U;
position = "{467, 1370}";
}
);
hints = (
{
horizontal = 1;
origin = "{0, 0}";
type = Tag;
name = hr00;
}
);
layerId = "5E936A5D-BBF2-432C-9FBC-FBC71ABAF060";
name = Regular;
paths = (
{
closed = 1;
nodes = (
"944 244 CURVE",
"901 262 LINE",
"844 106 OFFCURVE",
"807 90 OFFCURVE",
"684 90 CURVE SMOOTH",
"541 90 LINE SMOOTH",
"395 90 OFFCURVE",
"355 117 OFFCURVE",
"355 164 CURVE SMOOTH",
"355 1155 LINE SMOOTH",
"355 1174 OFFCURVE",
"410 1198 OFFCURVE",
"500 1217 CURVE",
"500 1260 LINE",
"50 1260 LINE",
"50 1217 LINE",
"146 1198 OFFCURVE",
"195 1171 OFFCURVE",
"195 1155 CURVE SMOOTH",
"195 104 LINE SMOOTH",
"195 86 OFFCURVE",
"140 61 OFFCURVE",
"50 43 CURVE",
"50 0 LINE",
"903 0 LINE",
"913 39 OFFCURVE",
"934 129 OFFCURVE"
);
}
);
width = 975;
}
);
unicode = 004C;
},
{
glyphname = Lbar;
layers = (
{
anchors = (
{
name = L;
position = "{497, -100}";
},
{
name = U;
position = "{467, 1370}";
}
);
components = (
{
name = L;
}
);
layerId = "5E936A5D-BBF2-432C-9FBC-FBC71ABAF060";
name = Regular;
paths = (
{
closed = 1;
nodes = (
"620 604 LINE",
"595 627 LINE",
"66 627 LINE",
"58 606 OFFCURVE",
"50 582 OFFCURVE",
"44 562 CURVE",
"66 537 LINE",
"595 537 LINE"
);
}
);
width = 975;
}
);
unicode = 023D;
},
{
glyphname = Ldoublebar;
layers = (
{
anchors = (
{
name = L;
position = "{497, -100}";
},
{
name = U;
position = "{467, 1370}";
}
);
hints = (
{
horizontal = 1;
origin = "{0, 0}";
type = Tag;
name = hr00;
}
);
layerId = "5E936A5D-BBF2-432C-9FBC-FBC71ABAF060";
name = Regular;
paths = (
{
closed = 1;
nodes = (
"944 244 CURVE",
"901 262 LINE",
"844 106 OFFCURVE",
"807 90 OFFCURVE",
"684 90 CURVE SMOOTH",
"541 90 LINE SMOOTH",
"395 90 OFFCURVE",
"355 117 OFFCURVE",
"355 164 CURVE SMOOTH",
"355 437 LINE",
"595 437 LINE",
"620 504 LINE",
"595 527 LINE",
"355 527 LINE",
"355 637 LINE",
"595 637 LINE",
"620 704 LINE",
"595 727 LINE",
"355 727 LINE",
"355 1155 LINE SMOOTH",
"355 1174 OFFCURVE",
"410 1198 OFFCURVE",
"500 1217 CURVE",
"500 1260 LINE",
"50 1260 LINE",
"50 1217 LINE",
"146 1198 OFFCURVE",
"195 1171 OFFCURVE",
"195 1155 CURVE SMOOTH",
"195 727 LINE",
"66 727 LINE",
"58 706 OFFCURVE",
"50 682 OFFCURVE",
"44 662 CURVE",
"66 637 LINE",
"195 637 LINE",
"195 527 LINE",
"66 527 LINE",
"58 506 OFFCURVE",
"50 482 OFFCURVE",
"44 462 CURVE",
"66 437 LINE",
"195 437 LINE",
"195 104 LINE SMOOTH",
"195 86 OFFCURVE",
"140 61 OFFCURVE",
"50 43 CURVE",
"50 0 LINE",
"903 0 LINE",
"913 39 OFFCURVE",
"934 129 OFFCURVE"
);
}
);
width = 975;
}
);
unicode = 2C60;
},
{
glyphname = Lmiddletilde;
layers = (
{
anchors = (
{
name = L;
position = "{497, -100}";
},
{
name = U;
position = "{467, 1370}";
}
);
hints = (
{
horizontal = 1;
origin = "{0, 0}";
type = Tag;
name = hr00;
}
);
layerId = "5E936A5D-BBF2-432C-9FBC-FBC71ABAF060";
name = Regular;
paths = (
{
closed = 1;
nodes = (
"944 244 CURVE",
"901 262 LINE",
"844 106 OFFCURVE",
"807 90 OFFCURVE",
"684 90 CURVE SMOOTH",
"541 90 LINE SMOOTH",
"395 90 OFFCURVE",
"355 117 OFFCURVE",
"355 164 CURVE SMOOTH",
"355 499 LINE",
"364 497 OFFCURVE",
"373 496 OFFCURVE",
"382 496 CURVE SMOOTH",
"486 496 OFFCURVE",
"575 613 OFFCURVE",
"622 721 CURVE",
"568 744 LINE",
"523 666 OFFCURVE",
"474 621 OFFCURVE",
"423 621 CURVE SMOOTH",
"402 621 OFFCURVE",
"379 633 OFFCURVE",
"355 649 CURVE",
"355 1155 LINE SMOOTH",
"355 1174 OFFCURVE",
"410 1198 OFFCURVE",
"500 1217 CURVE",
"500 1260 LINE",
"50 1260 LINE",
"50 1217 LINE",
"146 1198 OFFCURVE",
"195 1171 OFFCURVE",
"195 1155 CURVE SMOOTH",
"195 733 LINE",
"189 733 OFFCURVE",
"184 734 OFFCURVE",
"179 734 CURVE SMOOTH",
"75 734 OFFCURVE",
"-13 617 OFFCURVE",
"-60 508 CURVE",
"-7 488 LINE",
"42 562 OFFCURVE",
"83 609 OFFCURVE",
"136 609 CURVE SMOOTH",
"155 609 OFFCURVE",
"175 602 OFFCURVE",
"195 591 CURVE",
"195 104 LINE SMOOTH",
"195 86 OFFCURVE",
"140 61 OFFCURVE",
"50 43 CURVE",
"50 0 LINE",
"903 0 LINE",
"913 39 OFFCURVE",
"934 129 OFFCURVE"
);
}
);
width = 975;
}
);
unicode = 2C62;
},
{
glyphname = Lslash;
layers = (
{
anchors = (
{
name = L;
position = "{492, -100}";
},
{
name = U;
position = "{492, 1370}";
}
);
hints = (
{
horizontal = 1;
origin = "{0, 0}";
type = Tag;
name = hr00;
}
);
layerId = "5E936A5D-BBF2-432C-9FBC-FBC71ABAF060";
name = Regular;
paths = (
{
closed = 1;
nodes = (
"944 244 CURVE",
"901 262 LINE",
"844 106 OFFCURVE",
"807 90 OFFCURVE",
"684 90 CURVE SMOOTH",
"541 90 LINE SMOOTH",
"395 90 OFFCURVE",
"355 117 OFFCURVE",
"355 164 CURVE SMOOTH",
"355 614 LINE",
"606 741 LINE",
"625 764 OFFCURVE",
"648 804 OFFCURVE",
"659 828 CURVE",
"633 853 LINE",
"355 712 LINE",
"355 1155 LINE SMOOTH",
"355 1174 OFFCURVE",
"410 1198 OFFCURVE",
"500 1217 CURVE",
"500 1260 LINE",
"50 1260 LINE",
"50 1217 LINE",
"146 1198 OFFCURVE",
"195 1171 OFFCURVE",
"195 1155 CURVE SMOOTH",
"195 632 LINE",
"92 580 LINE",
"75 564 OFFCURVE",
"50 516 OFFCURVE",
"41 491 CURVE",
"68 469 LINE",
"195 533 LINE",
"195 104 LINE SMOOTH",
"195 86 OFFCURVE",
"140 61 OFFCURVE",
"50 43 CURVE",
"50 0 LINE",
"903 0 LINE",
"913 39 OFFCURVE",
"934 129 OFFCURVE"
);
}
);
width = 975;
}
);
unicode = 0141;
},
{
glyphname = M;
layers = (
{
anchors = (
{
name = L;
position = "{815, -100}";
},
{
name = U;
position = "{815, 1370}";
}
);
hints = (
{
horizontal = 1;
origin = "{0, 0}";
type = Tag;
name = hr00;
}
);
layerId = "5E936A5D-BBF2-432C-9FBC-FBC71ABAF060";
name = Regular;
paths = (
{
closed = 1;
nodes = (
"1550 1217 CURVE",
"1550 1260 LINE",
"1264 1260 LINE SMOOTH",
"1239 1260 OFFCURVE",
"1234 1256 OFFCURVE",
"1200 1176 CURVE SMOOTH",
"818 274 LINE",
"420 1176 LINE SMOOTH",
"388 1248 OFFCURVE",
"383 1260 OFFCURVE",
"356 1260 CURVE SMOOTH",
"70 1260 LINE",
"70 1217 LINE",
"110 1217 OFFCURVE",
"165 1206 OFFCURVE",
"215 1177 CURVE",
"205 104 LINE SMOOTH",
"205 86 OFFCURVE",
"151 61 OFFCURVE",
"60 43 CURVE",
"60 0 LINE",
"465 0 LINE",
"465 43 LINE",
"369 61 OFFCURVE",
"320 88 OFFCURVE",
"320 104 CURVE SMOOTH",
"329 1033 LINE",
"774 0 LINE",
"823 0 LINE",
"1261 1040 LINE",
"1270 104 LINE SMOOTH",
"1270 86 OFFCURVE",
"1205 61 OFFCURVE",
"1115 43 CURVE",
"1115 0 LINE",
"1570 0 LINE",
"1570 43 LINE",
"1474 61 OFFCURVE",
"1425 88 OFFCURVE",
"1425 104 CURVE SMOOTH",
"1415 1181 LINE",
"1462 1203 OFFCURVE",
"1512 1217 OFFCURVE"
);
}
);
width = 1651;
}
);
unicode = 004D;
},
{
glyphname = N;
layers = (
{
anchors = (
{
name = H;
position = "{1075, 0}";
},
{
name = L;
position = "{665, -100}";
},
{
name = U;
position = "{665, 1370}";
}
);
hints = (
{
horizontal = 1;
origin = "{0, 0}";
type = Tag;
name = hr00;
}
);
layerId = "5E936A5D-BBF2-432C-9FBC-FBC71ABAF060";
name = Regular;
paths = (
{
closed = 1;
nodes = (
"460 0 LINE",
"460 43 LINE",
"357 57 OFFCURVE",
"315 88 OFFCURVE",
"315 104 CURVE SMOOTH",
"315 993 LINE",
"1016 21 LINE SMOOTH",
"1032 -1 OFFCURVE",
"1069 -22 OFFCURVE",
"1135 -30 CURVE",
"1135 1155 LINE SMOOTH",
"1135 1174 OFFCURVE",
"1184 1204 OFFCURVE",
"1280 1217 CURVE",
"1280 1260 LINE",
"870 1260 LINE",
"870 1217 LINE",
"977 1202 OFFCURVE",
"1015 1171 OFFCURVE",
"1015 1155 CURVE SMOOTH",
"1015 276 LINE",
"358 1182 LINE SMOOTH",
"308 1251 OFFCURVE",
"301 1260 OFFCURVE",
"262 1260 CURVE SMOOTH",
"50 1260 LINE",
"50 1217 LINE",
"102 1209 OFFCURVE",
"151 1190 OFFCURVE",
"195 1149 CURVE",
"195 104 LINE SMOOTH",
"195 86 OFFCURVE",
"148 55 OFFCURVE",
"50 43 CURVE",
"50 0 LINE"
);
}
);
width = 1329;
}
);
unicode = 004E;
},
{
glyphname = Eng;
layers = (
{
anchors = (
{
name = L;
position = "{664, -600}";
},
{
name = U;
position = "{660, 1370}";
}
);
guideLines = (
{
angle = 90;
position = "{663, 0}";
}
);
hints = (
{
horizontal = 1;
origin = "{0, 37}";
type = Tag;
name = hr01;
}
);
layerId = "5E936A5D-BBF2-432C-9FBC-FBC71ABAF060";
name = Regular;
paths = (
{
closed = 1;
nodes = (
"1125 277 CURVE",
"1125 981 LINE SMOOTH",
"1125 1231 OFFCURVE",
"979 1290 OFFCURVE",
"864 1290 CURVE SMOOTH",
"721 1290 OFFCURVE",
"560 1210 OFFCURVE",
"355 928 CURVE",
"355 1255 LINE",
"320 1290 LINE",
"249 1253 OFFCURVE",
"145 1227 OFFCURVE",
"55 1210 CURVE",
"55 1167 LINE",
"190 1153 OFFCURVE",
"195 1135 OFFCURVE",
"195 1030 CURVE SMOOTH",
"195 104 LINE SMOOTH",
"195 86 OFFCURVE",
"139 61 OFFCURVE",
"49 43 CURVE",
"49 0 LINE",
"500 0 LINE",
"500 43 LINE",
"403 61 OFFCURVE",
"355 88 OFFCURVE",
"355 104 CURVE SMOOTH",
"355 748 LINE",
"560 1073 OFFCURVE",
"690 1150 OFFCURVE",
"797 1150 CURVE SMOOTH",
"897 1150 OFFCURVE",
"965 1090 OFFCURVE",
"965 872 CURVE SMOOTH",
"965 224 LINE SMOOTH",
"965 -106 OFFCURVE",
"830 -264 OFFCURVE",
"704 -264 CURVE SMOOTH",
"636 -264 OFFCURVE",
"539 -233 OFFCURVE",
"467 -161 CURVE",
"428 -177 OFFCURVE",
"330 -249 OFFCURVE",
"330 -272 CURVE SMOOTH",
"330 -314 OFFCURVE",
"462 -380 OFFCURVE",
"578 -380 CURVE SMOOTH",
"674 -380 OFFCURVE",
"793 -344 OFFCURVE",
"866 -288 CURVE SMOOTH",
"1001 -184 OFFCURVE",
"1125 1 OFFCURVE"
);
}
);
width = 1235;
}
);
unicode = 014A;
userData = {
com.typemytype.robofont.guides = (
{
angle = 90;
isGlobal = 0;
x = 663;
y = 0;
}
);
};
},
{
glyphname = Nhookleft;
layers = (
{
anchors = (
{
name = L;
position = "{665, -600}";
},
{
name = U;
position = "{665, 1370}";
}
);
hints = (
{
horizontal = 1;
origin = "{0, 0}";
type = Tag;
name = hr00;
}
);
layerId = "5E936A5D-BBF2-432C-9FBC-FBC71ABAF060";
name = Regular;
paths = (
{
closed = 1;
nodes = (
"1135 -30 CURVE",
"1135 1155 LINE SMOOTH",
"1135 1174 OFFCURVE",
"1184 1204 OFFCURVE",
"1280 1217 CURVE",
"1280 1260 LINE",
"870 1260 LINE",
"870 1217 LINE",
"977 1202 OFFCURVE",
"1015 1171 OFFCURVE",
"1015 1155 CURVE SMOOTH",
"1015 276 LINE",
"358 1182 LINE",
"307 1251 OFFCURVE",
"301 1260 OFFCURVE",
"262 1260 CURVE SMOOTH",
"50 1260 LINE",
"50 1217 LINE",
"102 1208 OFFCURVE",
"150 1190 OFFCURVE",
"195 1149 CURVE",
"195 133 LINE SMOOTH",
"195 -180 OFFCURVE",
"99 -257 OFFCURVE",
"29 -257 CURVE SMOOTH",
"-22 -257 OFFCURVE",
"-55 -249 OFFCURVE",
"-129 -200 CURVE",
"-166 -214 OFFCURVE",
"-245 -278 OFFCURVE",
"-245 -300 CURVE SMOOTH",
"-245 -323 OFFCURVE",
"-161 -380 OFFCURVE",
"-80 -380 CURVE SMOOTH",
"-28 -380 OFFCURVE",
"84 -345 OFFCURVE",
"156 -288 CURVE",
"260 -202 OFFCURVE",
"315 -111 OFFCURVE",
"315 205 CURVE SMOOTH",
"315 993 LINE",
"1016 21 LINE SMOOTH",
"1032 -1 OFFCURVE",
"1069 -22 OFFCURVE"
);
}
);
width = 1329;
}
);
unicode = 019D;
},
{
glyphname = O;
layers = (
{
anchors = (
{
name = H;
position = "{585, 0}";
},
{
name = L;
position = "{615, -100}";
},
{
name = O;
position = "{676, 0}";
},
{
name = R;
position = "{1150, 900}";
},
{
name = U;
position = "{615, 1370}";
}
);
hints = (
{
horizontal = 1;
origin = "{0, 0}";
type = Tag;
name = hr00;
}
);
layerId = "5E936A5D-BBF2-432C-9FBC-FBC71ABAF060";
name = Regular;
paths = (
{
closed = 1;
nodes = (
"1138 647 CURVE",
"1138 973 OFFCURVE",
"963 1290 OFFCURVE",
"633 1290 CURVE SMOOTH",
"319 1290 OFFCURVE",
"70 975 OFFCURVE",
"70 612 CURVE SMOOTH",
"70 276 OFFCURVE",
"254 -30 OFFCURVE",
"575 -30 CURVE SMOOTH",
"879 -30 OFFCURVE",
"1138 285 OFFCURVE"
);
},
{
closed = 1;
nodes = (
"983 629 CURVE",
"983 276 OFFCURVE",
"825 90 OFFCURVE",
"604 90 CURVE SMOOTH",
"399 90 OFFCURVE",
"225 342 OFFCURVE",
"225 641 CURVE SMOOTH",
"225 967 OFFCURVE",
"367 1175 OFFCURVE",
"604 1175 CURVE SMOOTH",
"831 1175 OFFCURVE",
"983 905 OFFCURVE"
);
}
);
width = 1229;
}
);
unicode = 004F;
},
{
glyphname = Ocenteredtilde;
layers = (
{
anchors = (
{
name = L;
position = "{604, -100}";
},
{
name = U;
position = "{604, 1370}";
}
);
hints = (
{
horizontal = 1;
origin = "{0, 0}";
type = Tag;
name = hr00;
}
);
layerId = "5E936A5D-BBF2-432C-9FBC-FBC71ABAF060";
name = Regular;
paths = (
{
closed = 1;
nodes = (
"1138 647 CURVE SMOOTH",
"1138 973 OFFCURVE",
"963 1290 OFFCURVE",
"633 1290 CURVE SMOOTH",
"319 1290 OFFCURVE",
"70 975 OFFCURVE",
"70 612 CURVE SMOOTH",
"70 276 OFFCURVE",
"254 -30 OFFCURVE",
"575 -30 CURVE SMOOTH",
"879 -30 OFFCURVE",
"1138 285 OFFCURVE"
);
},
{
closed = 1;
nodes = (
"982 615 LINE",
"978 271 OFFCURVE",
"822 90 OFFCURVE",
"604 90 CURVE SMOOTH",
"405 90 OFFCURVE",
"235 327 OFFCURVE",
"225 615 CURVE"
);
},
{
closed = 1;
nodes = (
"979 705 CURVE",
"227 705 LINE",
"244 994 OFFCURVE",
"383 1175 OFFCURVE",
"604 1175 CURVE SMOOTH",
"810 1175 OFFCURVE",
"954 952 OFFCURVE"
);
}
);
width = 1229;
}
);
unicode = 019F;
},
{
glyphname = Ohorn;
layers = (
{
anchors = (
{
name = L;
position = "{615, -100}";
},
{
name = U;
position = "{615, 1370}";
}
);
hints = (
{
horizontal = 1;
origin = "{0, 0}";
type = Tag;
name = hr00;
}
);
layerId = "5E936A5D-BBF2-432C-9FBC-FBC71ABAF060";
name = Regular;
paths = (
{
closed = 1;
nodes = (
"1220 1392 CURVE SMOOTH",
"1220 1431 OFFCURVE",
"1199 1466 OFFCURVE",
"1168 1495 CURVE",
"990 1415 LINE",
"1027 1384 OFFCURVE",
"1048 1349 OFFCURVE",
"1048 1311 CURVE SMOOTH",
"1048 1276 OFFCURVE",
"1014 1223 OFFCURVE",
"935 1174 CURVE",
"856 1246 OFFCURVE",
"755 1290 OFFCURVE",
"633 1290 CURVE SMOOTH",
"319 1290 OFFCURVE",
"70 975 OFFCURVE",
"70 612 CURVE SMOOTH",
"70 276 OFFCURVE",
"254 -30 OFFCURVE",
"575 -30 CURVE SMOOTH",
"879 -30 OFFCURVE",
"1138 285 OFFCURVE",
"1138 647 CURVE SMOOTH",
"1138 825 OFFCURVE",
"1085 1000 OFFCURVE",
"984 1123 CURVE",
"1167 1221 OFFCURVE",
"1220 1329 OFFCURVE"
);
},
{
closed = 1;
nodes = (
"983 629 CURVE SMOOTH",
"983 276 OFFCURVE",
"825 90 OFFCURVE",
"604 90 CURVE SMOOTH",
"399 90 OFFCURVE",
"225 342 OFFCURVE",
"225 641 CURVE SMOOTH",
"225 967 OFFCURVE",
"367 1175 OFFCURVE",
"604 1175 CURVE SMOOTH",
"831 1175 OFFCURVE",
"983 905 OFFCURVE"
);
}
);
width = 1229;
}
);
unicode = 01A0;
},
{
glyphname = Oopen;
layers = (
{
anchors = (
{
name = L;
position = "{539, -100}";
},
{
name = U;
position = "{539, 1370}";
}
);
hints = (
{
horizontal = 1;
origin = "{0, 0}";
type = Tag;
name = hr00;
}
);
layerId = "5E936A5D-BBF2-432C-9FBC-FBC71ABAF060";
name = Regular;
paths = (
{
closed = 1;
nodes = (
"1018 678 CURVE",
"1018 1065 OFFCURVE",
"764 1290 OFFCURVE",
"514 1290 CURVE SMOOTH",
"379 1290 OFFCURVE",
"250 1260 OFFCURVE",
"70 1081 CURVE",
"76 1073 OFFCURVE",
"92 1042 OFFCURVE",
"106 1036 CURVE",
"266 1149 OFFCURVE",
"373 1175 OFFCURVE",
"444 1175 CURVE SMOOTH",
"635 1175 OFFCURVE",
"863 995 OFFCURVE",
"863 641 CURVE SMOOTH",
"863 225 OFFCURVE",
"684 85 OFFCURVE",
"496 85 CURVE SMOOTH",
"338 85 OFFCURVE",
"235 203 OFFCURVE",
"235 299 CURVE SMOOTH",
"235 373 OFFCURVE",
"250 412 OFFCURVE",
"326 457 CURVE",
"303 506 LINE",
"256 489 OFFCURVE",
"180 463 OFFCURVE",
"121 432 CURVE",
"76 381 OFFCURVE",
"61 330 OFFCURVE",
"61 274 CURVE SMOOTH",
"61 137 OFFCURVE",
"190 -30 OFFCURVE",
"451 -30 CURVE SMOOTH",
"778 -30 OFFCURVE",
"1018 258 OFFCURVE"
);
}
);
width = 1098;
}
);
unicode = 0186;
},
{
glyphname = Oslash;
layers = (
{
anchors = (
{
name = L;
position = "{604, -100}";
},
{
name = U;
position = "{604, 1370}";
}
);
hints = (
{
horizontal = 1;
origin = "{0, 0}";
type = Tag;
name = hr00;
}
);
layerId = "5E936A5D-BBF2-432C-9FBC-FBC71ABAF060";
name = Regular;
paths = (
{
closed = 1;
nodes = (
"1130 1280 LINE",
"1102 1313 LINE",
"1061 1303 OFFCURVE",
"1012 1286 OFFCURVE",
"975 1264 CURVE",
"921 1187 LINE",
"844 1251 OFFCURVE",
"748 1290 OFFCURVE",
"633 1290 CURVE SMOOTH",
"319 1290 OFFCURVE",
"70 975 OFFCURVE",
"70 612 CURVE SMOOTH",
"70 443 OFFCURVE",
"116 281 OFFCURVE",
"204 162 CURVE",
"76 -20 LINE",
"104 -53 LINE",
"137 -43 OFFCURVE",
"209 -23 OFFCURVE",
"233 -2 CURVE",
"286 74 LINE",
"364 9 OFFCURVE",
"460 -30 OFFCURVE",
"575 -30 CURVE SMOOTH",
"879 -30 OFFCURVE",
"1138 285 OFFCURVE",
"1138 647 CURVE SMOOTH",
"1138 813 OFFCURVE",
"1092 978 OFFCURVE",
"1003 1099 CURVE"
);
},
{
closed = 1;
nodes = (
"225 641 CURVE SMOOTH",
"225 967 OFFCURVE",
"367 1175 OFFCURVE",
"604 1175 CURVE SMOOTH",
"694 1175 OFFCURVE",
"773 1132 OFFCURVE",
"834 1063 CURVE",
"305 307 LINE",
"255 400 OFFCURVE",
"225 516 OFFCURVE"
);
},
{
closed = 1;
nodes = (
"983 629 CURVE SMOOTH",
"983 276 OFFCURVE",
"825 90 OFFCURVE",
"604 90 CURVE SMOOTH",
"520 90 OFFCURVE",
"441 132 OFFCURVE",
"377 203 CURVE",
"905 959 LINE",
"955 864 OFFCURVE",
"983 747 OFFCURVE"
);
}
);
width = 1229;
}
);
unicode = 00D8;
},
{
glyphname = OE;
layers = (
{
anchors = (
{
name = L;
position = "{822, -100}";
},
{
name = U;
position = "{822, 1370}";
}
);
hints = (
{
horizontal = 1;
origin = "{0, 0}";
type = Tag;
name = hr00;
}
);
layerId = "5E936A5D-BBF2-432C-9FBC-FBC71ABAF060";
name = Regular;
paths = (
{
closed = 1;
nodes = (
"1575 244 CURVE",
"1532 262 LINE",
"1473 106 OFFCURVE",
"1432 90 OFFCURVE",
"1309 90 CURVE SMOOTH",
"1180 90 LINE SMOOTH",
"1004 90 OFFCURVE",
"1016 115 OFFCURVE",
"1016 154 CURVE SMOOTH",
"1016 655 LINE",
"1116 655 LINE SMOOTH",
"1229 655 OFFCURVE",
"1274 639 OFFCURVE",
"1315 600 CURVE",
"1341 621 OFFCURVE",
"1382 670 OFFCURVE",
"1407 707 CURVE",
"1378 735 LINE",
"1016 735 LINE",
"1016 1169 LINE",
"1339 1169 LINE SMOOTH",
"1391 1169 OFFCURVE",
"1415 1133 OFFCURVE",
"1421 1010 CURVE",
"1468 1010 LINE",
"1485 1061 OFFCURVE",
"1503 1167 OFFCURVE",
"1507 1235 CURVE",
"1477 1260 LINE",
"885 1260 LINE",
"779 1262 OFFCURVE",
"739 1290 OFFCURVE",
"633 1290 CURVE SMOOTH",
"319 1290 OFFCURVE",
"70 975 OFFCURVE",
"70 612 CURVE SMOOTH",
"70 276 OFFCURVE",
"254 -30 OFFCURVE",
"575 -30 CURVE SMOOTH",
"692 -30 OFFCURVE",
"738 -2 OFFCURVE",
"880 0 CURVE",
"1534 0 LINE",
"1544 39 OFFCURVE",
"1565 129 OFFCURVE"
);
},
{
closed = 1;
nodes = (
"604 90 CURVE SMOOTH",
"399 90 OFFCURVE",
"225 342 OFFCURVE",
"225 641 CURVE SMOOTH",
"225 967 OFFCURVE",
"367 1176 OFFCURVE",
"604 1176 CURVE SMOOTH",
"698 1176 OFFCURVE",
"784 1153 OFFCURVE",
"854 1099 CURVE",
"854 139 LINE",
"788 95 OFFCURVE",
"711 90 OFFCURVE"
);
}
);
width = 1634;
}
);
unicode = 0152;
},
{
glyphname = P;
layers = (
{
anchors = (
{
name = L;
position = "{511, -100}";
},
{
name = U;
position = "{511, 1370}";
}
);
hints = (
{
horizontal = 1;
origin = "{0, 0}";
type = Tag;
name = hr00;
}
);
layerId = "5E936A5D-BBF2-432C-9FBC-FBC71ABAF060";
name = Regular;
paths = (
{
closed = 1;
nodes = (
"530 0 LINE",
"530 43 LINE",
"391 66 OFFCURVE",
"355 88 OFFCURVE",
"355 104 CURVE SMOOTH",
"355 1204 LINE",
"387 1205 OFFCURVE",
"420 1206 OFFCURVE",
"453 1206 CURVE SMOOTH",
"659 1206 OFFCURVE",
"827 1114 OFFCURVE",
"827 895 CURVE SMOOTH",
"827 707 OFFCURVE",
"666 610 OFFCURVE",
"543 610 CURVE SMOOTH",
"496 610 OFFCURVE",
"444 615 OFFCURVE",
"389 640 CURVE",
"412 565 LINE",
"457 545 OFFCURVE",
"512 535 OFFCURVE",
"573 535 CURVE SMOOTH",
"729 535 OFFCURVE",
"982 659 OFFCURVE",
"982 936 CURVE SMOOTH",
"982 1165 OFFCURVE",
"797 1290 OFFCURVE",
"510 1290 CURVE SMOOTH",
"348 1290 OFFCURVE",
"170 1265 OFFCURVE",
"41 1230 CURVE",
"50 1168 LINE",
"97 1176 OFFCURVE",
"146 1184 OFFCURVE",
"195 1190 CURVE",
"195 104 LINE SMOOTH",
"195 86 OFFCURVE",
"140 61 OFFCURVE",
"50 43 CURVE",
"50 0 LINE"
);
}
);
width = 1071;
}
);
unicode = 0050;
},
{
glyphname = Thorn;
layers = (
{
anchors = (
{
name = L;
position = "{515, -100}";
},
{
name = U;
position = "{515, 1370}";
}
);
hints = (
{
horizontal = 1;
origin = "{0, 0}";
type = Tag;
name = hr00;
}
);
layerId = "5E936A5D-BBF2-432C-9FBC-FBC71ABAF060";
name = Regular;
paths = (
{
closed = 1;
nodes = (
"530 0 LINE",
"530 43 LINE",
"391 66 OFFCURVE",
"355 88 OFFCURVE",
"355 104 CURVE SMOOTH",
"355 933 LINE",
"387 935 OFFCURVE",
"420 936 OFFCURVE",
"453 936 CURVE SMOOTH",
"659 936 OFFCURVE",
"827 846 OFFCURVE",
"827 625 CURVE SMOOTH",
"827 436 OFFCURVE",
"666 340 OFFCURVE",
"543 340 CURVE SMOOTH",
"496 340 OFFCURVE",
"444 344 OFFCURVE",
"389 369 CURVE",
"412 298 LINE",
"457 275 OFFCURVE",
"512 265 OFFCURVE",
"573 265 CURVE SMOOTH",
"729 265 OFFCURVE",
"982 389 OFFCURVE",
"982 666 CURVE SMOOTH",
"982 895 OFFCURVE",
"797 1020 OFFCURVE",
"510 1020 CURVE SMOOTH",
"447 1020 OFFCURVE",
"397 1018 OFFCURVE",
"355 1014 CURVE",
"355 1155 LINE SMOOTH",
"355 1174 OFFCURVE",
"393 1194 OFFCURVE",
"530 1217 CURVE",
"530 1260 LINE",
"49 1260 LINE",
"49 1217 LINE",
"145 1198 OFFCURVE",
"195 1171 OFFCURVE",
"195 1155 CURVE SMOOTH",
"195 104 LINE SMOOTH",
"195 86 OFFCURVE",
"139 61 OFFCURVE",
"49 43 CURVE",
"49 0 LINE"
);
}
);
width = 1071;
}
);
unicode = 00DE;
},
{
glyphname = Q;
layers = (
{
anchors = (
{
name = L;
position = "{604, -270}";
},
{
name = U;
position = "{604, 1370}";
}
);
hints = (
{
horizontal = 1;
origin = "{0, 0}";
type = Tag;
name = hr00;
}
);
layerId = "5E936A5D-BBF2-432C-9FBC-FBC71ABAF060";
name = Regular;
paths = (
{
closed = 1;
nodes = (
"1282 -117 CURVE",
"1255 -82 LINE",
"1176 -141 OFFCURVE",
"1141 -160 OFFCURVE",
"1108 -160 CURVE SMOOTH",
"1009 -160 OFFCURVE",
"888 -52 OFFCURVE",
"765 12 CURVE",
"979 109 OFFCURVE",
"1138 364 OFFCURVE",
"1138 647 CURVE SMOOTH",
"1138 973 OFFCURVE",
"963 1290 OFFCURVE",
"633 1290 CURVE SMOOTH",
"319 1290 OFFCURVE",
"70 975 OFFCURVE",
"70 612 CURVE SMOOTH",
"70 260 OFFCURVE",
"281 -30 OFFCURVE",
"575 -30 CURVE SMOOTH",
"590 -30 OFFCURVE",
"605 -29 OFFCURVE",
"620 -27 CURVE",
"780 -120 OFFCURVE",
"936 -305 OFFCURVE",
"1102 -305 CURVE SMOOTH",
"1143 -305 OFFCURVE",
"1219 -233 OFFCURVE"
);
},
{
closed = 1;
nodes = (
"983 629 CURVE SMOOTH",
"983 276 OFFCURVE",
"825 90 OFFCURVE",
"604 90 CURVE SMOOTH",
"399 90 OFFCURVE",
"225 342 OFFCURVE",
"225 641 CURVE SMOOTH",
"225 967 OFFCURVE",
"367 1175 OFFCURVE",
"604 1175 CURVE SMOOTH",
"831 1175 OFFCURVE",
"983 905 OFFCURVE"
);
}
);
width = 1229;
}
);
unicode = 0051;
},
{
glyphname = Qhooktail;
layers = (
{
anchors = (
{
name = L;
position = "{604, -600}";
},
{
name = U;
position = "{604, 1370}";
}
);
layerId = "5E936A5D-BBF2-432C-9FBC-FBC71ABAF060";
name = Regular;
paths = (
{
closed = 1;
nodes = (
"894 -168 LINE",
"894 -374 OFFCURVE",
"925 -500 OFFCURVE",
"1097 -500 CURVE SMOOTH",
"1265 -500 OFFCURVE",
"1452 -364 OFFCURVE",
"1452 -235 CURVE",
"1433 -196 LINE",
"1378 -196 OFFCURVE",
"1267 -243 OFFCURVE",
"1267 -264 CURVE",
"1274 -278 OFFCURVE",
"1278 -292 OFFCURVE",
"1278 -306 CURVE SMOOTH",
"1278 -358 OFFCURVE",
"1229 -405 OFFCURVE",
"1171 -405 CURVE SMOOTH",
"1063 -405 OFFCURVE",
"1054 -312 OFFCURVE",
"1054 -106 CURVE SMOOTH",
"1054 964 LINE SMOOTH",
"1054 1126 OFFCURVE",
"1091 1250 OFFCURVE",
"1091 1250 CURVE",
"1049 1288 LINE",
"1018 1253 OFFCURVE",
"973 1203 OFFCURVE",
"930 1174 CURVE",
"828 1273 OFFCURVE",
"755 1290 OFFCURVE",
"671 1290 CURVE SMOOTH",
"610 1290 OFFCURVE",
"504 1259 OFFCURVE",
"413 1203 CURVE SMOOTH",
"299 1133 OFFCURVE",
"66 911 OFFCURVE",
"66 597 CURVE SMOOTH",
"66 198 OFFCURVE",
"312 -30 OFFCURVE",
"489 -30 CURVE SMOOTH",
"653 -30 OFFCURVE",
"769 64 OFFCURVE",
"894 225 CURVE"
);
},
{
closed = 1;
nodes = (
"544 105 CURVE SMOOTH",
"383 105 OFFCURVE",
"216 333 OFFCURVE",
"216 638 CURVE SMOOTH",
"216 974 OFFCURVE",
"455 1155 OFFCURVE",
"634 1155 CURVE SMOOTH",
"748 1155 OFFCURVE",
"842 1094 OFFCURVE",
"894 991 CURVE",
"894 332 LINE",
"787 222 OFFCURVE",
"651 105 OFFCURVE"
);
}
);
width = 1229;
}
);
unicode = 024A;
},
{
glyphname = R;
layers = (
{
anchors = (
{
name = H;
position = "{275, 0}";
},
{
name = L;
position = "{520, -100}";
},
{
name = U;
position = "{520, 1370}";
}
);
hints = (
{
horizontal = 1;
origin = "{0, 0}";
type = Tag;
name = hr00;
}
);
layerId = "5E936A5D-BBF2-432C-9FBC-FBC71ABAF060";
name = Regular;
paths = (
{
closed = 1;
nodes = (
"500 0 LINE",
"500 43 LINE",
"403 61 OFFCURVE",
"355 88 OFFCURVE",
"355 104 CURVE SMOOTH",
"355 611 LINE",
"392 603 OFFCURVE",
"427 600 OFFCURVE",
"461 600 CURVE SMOOTH",
"479 600 OFFCURVE",
"497 600 OFFCURVE",
"514 602 CURVE",
"817 41 LINE",
"835 11 OFFCURVE",
"877 -14 OFFCURVE",
"915 -14 CURVE SMOOTH",
"967 -14 OFFCURVE",
"1051 8 OFFCURVE",
"1139 37 CURVE",
"1128 80 LINE",
"1038 72 OFFCURVE",
"988 81 OFFCURVE",
"948 139 CURVE",
"645 625 LINE",
"811 675 OFFCURVE",
"927 796 OFFCURVE",
"927 987 CURVE SMOOTH",
"927 1159 OFFCURVE",
"778 1290 OFFCURVE",
"469 1290 CURVE SMOOTH",
"293 1290 OFFCURVE",
"166 1261 OFFCURVE",
"41 1230 CURVE",
"50 1168 LINE",
"99 1175 OFFCURVE",
"148 1183 OFFCURVE",
"195 1189 CURVE",
"195 104 LINE SMOOTH",
"195 86 OFFCURVE",
"140 61 OFFCURVE",
"50 43 CURVE",
"50 0 LINE"
);
},
{
closed = 1;
nodes = (
"432 1206 CURVE SMOOTH",
"670 1206 OFFCURVE",
"772 1102 OFFCURVE",
"772 956 CURVE SMOOTH",
"772 780 OFFCURVE",
"654 684 OFFCURVE",
"444 684 CURVE SMOOTH",
"415 684 OFFCURVE",
"391 685 OFFCURVE",
"355 691 CURVE",
"355 1203 LINE",
"381 1205 OFFCURVE",
"407 1206 OFFCURVE"
);
}
);
width = 1149;
}
);
unicode = 0052;
},
{
glyphname = S;
layers = (
{
anchors = (
{
name = H;
position = "{480, 0}";
},
{
name = L;
position = "{500, -100}";
},
{
name = U;
position = "{500, 1370}";
}
);
hints = (
{
horizontal = 1;
origin = "{0, 0}";
type = Tag;
name = hr00;
}
);
layerId = "5E936A5D-BBF2-432C-9FBC-FBC71ABAF060";
name = Regular;
paths = (
{
closed = 1;
nodes = (
"885 377 CURVE",
"885 772 OFFCURVE",
"257 762 OFFCURVE",
"257 1014 CURVE SMOOTH",
"257 1090 OFFCURVE",
"319 1190 OFFCURVE",
"467 1190 CURVE SMOOTH",
"543 1190 OFFCURVE",
"635 1159 OFFCURVE",
"709 1071 CURVE",
"745 1065 LINE",
"778 1094 OFFCURVE",
"842 1182 OFFCURVE",
"823 1198 CURVE",
"774 1251 OFFCURVE",
"647 1290 OFFCURVE",
"526 1290 CURVE SMOOTH",
"233 1290 OFFCURVE",
"127 1092 OFFCURVE",
"127 967 CURVE SMOOTH",
"127 580 OFFCURVE",
"750 649 OFFCURVE",
"750 324 CURVE SMOOTH",
"750 197 OFFCURVE",
"616 90 OFFCURVE",
"496 90 CURVE SMOOTH",
"360 90 OFFCURVE",
"233 162 OFFCURVE",
"172 319 CURVE",
"131 324 LINE",
"111 252 OFFCURVE",
"113 78 OFFCURVE",
"131 68 CURVE SMOOTH",
"225 8 OFFCURVE",
"352 -30 OFFCURVE",
"440 -30 CURVE SMOOTH",
"741 -30 OFFCURVE",
"885 199 OFFCURVE"
);
}
);
width = 975;
}
);
unicode = 0053;
},
{
glyphname = Saltillo;
layers = (
{
layerId = "5E936A5D-BBF2-432C-9FBC-FBC71ABAF060";
name = Regular;
paths = (
{
closed = 1;
nodes = (
"357 1554 LINE",
"304 1580 LINE",
"276 1574 OFFCURVE",
"165 1538 OFFCURVE",
"135 1521 CURVE",
"203 683 LINE",
"234 683 OFFCURVE",
"279 693 OFFCURVE",
"299 704 CURVE"
);
}
);
width = 512;
}
);
unicode = A78B;
},
{
glyphname = T;
layers = (
{
anchors = (
{
name = H;
position = "{551, 0}";
},
{
name = L;
position = "{546, -100}";
},
{
name = U;
position = "{546, 1370}";
}
);
hints = (
{
horizontal = 1;
origin = "{0, 0}";
type = Tag;
name = hr00;
}
);
layerId = "5E936A5D-BBF2-432C-9FBC-FBC71ABAF060";
name = Regular;
paths = (
{
closed = 1;
nodes = (
"795 0 LINE",
"795 43 LINE",
"672 68 OFFCURVE",
"631 98 OFFCURVE",
"631 115 CURVE SMOOTH",
"631 1170 LINE",
"915 1170 LINE SMOOTH",
"972 1170 OFFCURVE",
"982 1124 OFFCURVE",
"1008 1000 CURVE",
"1053 1000 LINE",
"1069 1084 OFFCURVE",
"1081 1167 OFFCURVE",
"1083 1235 CURVE",
"1053 1260 LINE",
"43 1260 LINE",
"29 1190 OFFCURVE",
"16 1092 OFFCURVE",
"10 1014 CURVE",
"53 995 LINE",
"113 1151 OFFCURVE",
"131 1170 OFFCURVE",
"172 1170 CURVE SMOOTH",
"471 1170 LINE",
"471 115 LINE SMOOTH",
"471 96 OFFCURVE",
"430 68 OFFCURVE",
"307 43 CURVE",
"307 0 LINE"
);
}
);
width = 1128;
}
);
unicode = 0054;
},
{
glyphname = U;
layers = (
{
anchors = (
{
name = H;
position = "{677, 0}";
},
{
name = L;
position = "{677, -100}";
},
{
name = O;
position = "{760, 0}";
},
{
name = R;
position = "{1330, 900}";
},
{
name = U;
position = "{677, 1370}";
}
);
hints = (
{
horizontal = 1;
origin = "{0, 0}";
type = Tag;
name = hr00;
}
);
layerId = "5E936A5D-BBF2-432C-9FBC-FBC71ABAF060";
name = Regular;
paths = (
{
closed = 1;
nodes = (
"1275 1217 CURVE",
"1275 1260 LINE",
"855 1260 LINE",
"855 1217 LINE",
"951 1198 OFFCURVE",
"1000 1171 OFFCURVE",
"1000 1155 CURVE SMOOTH",
"1000 483 LINE SMOOTH",
"1000 285 OFFCURVE",
"895 85 OFFCURVE",
"705 85 CURVE SMOOTH",
"477 85 OFFCURVE",
"355 238 OFFCURVE",
"355 494 CURVE SMOOTH",
"355 1155 LINE SMOOTH",
"355 1174 OFFCURVE",
"410 1198 OFFCURVE",
"500 1217 CURVE",
"500 1260 LINE",
"50 1260 LINE",
"50 1217 LINE",
"146 1198 OFFCURVE",
"195 1171 OFFCURVE",
"195 1155 CURVE SMOOTH",
"195 444 LINE SMOOTH",
"195 119 OFFCURVE",
"391 -30 OFFCURVE",
"666 -30 CURVE SMOOTH",
"954 -30 OFFCURVE",
"1130 174 OFFCURVE",
"1130 524 CURVE SMOOTH",
"1130 1155 LINE SMOOTH",
"1130 1174 OFFCURVE",
"1185 1198 OFFCURVE"
);
}
);
width = 1339;
}
);
unicode = 0055;
},
{
glyphname = Ubar;
layers = (
{
anchors = (
{
name = L;
position = "{677, -100}";
},
{
name = U;
position = "{677, 1370}";
}
);
hints = (
{
horizontal = 1;
origin = "{0, 0}";
type = Tag;
name = hr00;
}
);
layerId = "5E936A5D-BBF2-432C-9FBC-FBC71ABAF060";
name = Regular;
paths = (
{
closed = 1;
nodes = (
"1275 1217 CURVE",
"1275 1260 LINE",
"855 1260 LINE",
"855 1217 LINE",
"951 1198 OFFCURVE",
"1000 1171 OFFCURVE",
"1000 1155 CURVE SMOOTH",
"1000 705 LINE",
"355 705 LINE",
"355 1155 LINE SMOOTH",
"355 1174 OFFCURVE",
"410 1198 OFFCURVE",
"500 1217 CURVE",
"500 1260 LINE",
"50 1260 LINE",
"50 1217 LINE",
"146 1198 OFFCURVE",
"195 1171 OFFCURVE",
"195 1155 CURVE SMOOTH",
"195 705 LINE",
"66 705 LINE",
"58 684 OFFCURVE",
"50 660 OFFCURVE",
"44 640 CURVE",
"66 615 LINE",
"195 615 LINE",
"195 444 LINE SMOOTH",
"195 119 OFFCURVE",
"391 -30 OFFCURVE",
"666 -30 CURVE SMOOTH",
"954 -30 OFFCURVE",
"1130 174 OFFCURVE",
"1130 524 CURVE SMOOTH",
"1130 615 LINE",
"1260 615 LINE",
"1285 682 LINE",
"1260 705 LINE",
"1130 705 LINE",
"1130 1155 LINE SMOOTH",
"1130 1174 OFFCURVE",
"1185 1198 OFFCURVE"
);
},
{
closed = 1;
nodes = (
"705 85 CURVE SMOOTH",
"477 85 OFFCURVE",
"355 238 OFFCURVE",
"355 494 CURVE SMOOTH",
"355 615 LINE",
"1000 615 LINE",
"1000 483 LINE SMOOTH",
"1000 285 OFFCURVE",
"895 85 OFFCURVE"
);
}
);
width = 1339;
}
);
unicode = 0244;
},
{
glyphname = Uhorn;
layers = (
{
anchors = (
{
name = L;
position = "{677, -100}";
},
{
name = U;
position = "{677, 1370}";
}
);
hints = (
{
horizontal = 1;
origin = "{0, 0}";
type = Tag;
name = hr00;
}
);
layerId = "5E936A5D-BBF2-432C-9FBC-FBC71ABAF060";
name = Regular;
paths = (
{
closed = 1;
nodes = (
"1400 1392 CURVE SMOOTH",
"1400 1431 OFFCURVE",
"1379 1466 OFFCURVE",
"1348 1495 CURVE",
"1170 1415 LINE",
"1207 1384 OFFCURVE",
"1228 1349 OFFCURVE",
"1228 1311 CURVE SMOOTH",
"1228 1296 OFFCURVE",
"1222 1279 OFFCURVE",
"1210 1260 CURVE",
"855 1260 LINE",
"855 1217 LINE",
"951 1198 OFFCURVE",
"1000 1171 OFFCURVE",
"1000 1155 CURVE SMOOTH",
"1000 483 LINE SMOOTH",
"1000 285 OFFCURVE",
"895 85 OFFCURVE",
"705 85 CURVE SMOOTH",
"477 85 OFFCURVE",
"355 238 OFFCURVE",
"355 494 CURVE SMOOTH",
"355 1155 LINE SMOOTH",
"355 1174 OFFCURVE",
"410 1198 OFFCURVE",
"500 1217 CURVE",
"500 1260 LINE",
"50 1260 LINE",
"50 1217 LINE",
"146 1198 OFFCURVE",
"195 1171 OFFCURVE",
"195 1155 CURVE SMOOTH",
"195 444 LINE SMOOTH",
"195 119 OFFCURVE",
"391 -30 OFFCURVE",
"666 -30 CURVE SMOOTH",
"954 -30 OFFCURVE",
"1130 174 OFFCURVE",
"1130 524 CURVE SMOOTH",
"1130 1105 LINE",
"1341 1207 OFFCURVE",
"1400 1325 OFFCURVE"
);
}
);
width = 1400;
}
);
unicode = 01AF;
},
{
glyphname = V;
layers = (
{
anchors = (
{
name = H;
position = "{665, 0}";
},
{
name = L;
position = "{655, -100}";
},
{
name = O;
position = "{610, 0}";
},
{
name = U;
position = "{665, 1370}";
}
);
hints = (
{
horizontal = 1;
origin = "{0, 0}";
type = Tag;
name = hr00;
}
);
layerId = "5E936A5D-BBF2-432C-9FBC-FBC71ABAF060";
name = Regular;
paths = (
{
closed = 1;
nodes = (
"1290 1217 CURVE",
"1290 1260 LINE",
"874 1260 LINE",
"874 1217 LINE",
"983 1204 OFFCURVE",
"1030 1190 OFFCURVE",
"1016 1151 CURVE SMOOTH",
"680 203 LINE",
"327 1153 LINE SMOOTH",
"313 1191 OFFCURVE",
"349 1209 OFFCURVE",
"455 1217 CURVE",
"455 1260 LINE",
"20 1260 LINE",
"20 1217 LINE",
"104 1206 OFFCURVE",
"149 1186 OFFCURVE",
"162 1151 CURVE SMOOTH",
"602 -30 LINE",
"637 -22 OFFCURVE",
"731 0 OFFCURVE",
"752 59 CURVE SMOOTH",
"1135 1151 LINE",
"1148 1188 OFFCURVE",
"1200 1200 OFFCURVE"
);
}
);
width = 1331;
}
);
unicode = 0056;
},
{
glyphname = Vturned;
layers = (
{
anchors = (
{
name = L;
position = "{655, -100}";
},
{
name = U;
position = "{665, 1370}";
}
);
hints = (
{
horizontal = 1;
origin = "{0, 0}";
type = Tag;
name = hr00;
}
);
layerId = "5E936A5D-BBF2-432C-9FBC-FBC71ABAF060";
name = Regular;
paths = (
{
closed = 1;
nodes = (
"20 43 CURVE",
"20 0 LINE",
"436 0 LINE",
"436 43 LINE",
"327 56 OFFCURVE",
"280 70 OFFCURVE",
"294 109 CURVE SMOOTH",
"630 1057 LINE",
"983 107 LINE SMOOTH",
"997 69 OFFCURVE",
"961 51 OFFCURVE",
"855 43 CURVE",
"855 0 LINE",
"1290 0 LINE",
"1290 43 LINE",
"1206 54 OFFCURVE",
"1161 74 OFFCURVE",
"1148 109 CURVE SMOOTH",
"708 1290 LINE",
"673 1282 OFFCURVE",
"579 1260 OFFCURVE",
"558 1201 CURVE SMOOTH",
"175 109 LINE",
"162 72 OFFCURVE",
"110 60 OFFCURVE"
);
}
);
width = 1331;
}
);
unicode = 0245;
},
{
glyphname = W;
layers = (
{
anchors = (
{
name = L;
position = "{861, -100}";
},
{
name = U;
position = "{861, 1370}";
}
);
hints = (
{
horizontal = 1;
origin = "{0, 0}";
type = Tag;
name = hr00;
}
);
layerId = "5E936A5D-BBF2-432C-9FBC-FBC71ABAF060";
name = Regular;
paths = (
{
closed = 1;
nodes = (
"1702 1217 CURVE",
"1702 1260 LINE",
"1278 1260 LINE",
"1278 1217 LINE",
"1368 1202 OFFCURVE",
"1438 1186 OFFCURVE",
"1432 1155 CURVE",
"1245 250 LINE",
"891 1260 LINE",
"836 1260 LINE",
"512 250 LINE",
"313 1147 LINE SMOOTH",
"307 1176 OFFCURVE",
"319 1204 OFFCURVE",
"449 1217 CURVE",
"449 1260 LINE",
"20 1260 LINE",
"20 1217 LINE",
"115 1200 OFFCURVE",
"151 1180 OFFCURVE",
"158 1147 CURVE SMOOTH",
"418 -30 LINE",
"472 -18 OFFCURVE",
"550 2 OFFCURVE",
"569 59 CURVE SMOOTH",
"856 944 LINE",
"1182 -30 LINE",
"1223 -21 OFFCURVE",
"1309 2 OFFCURVE",
"1321 59 CURVE SMOOTH",
"1550 1155 LINE SMOOTH",
"1554 1176 OFFCURVE",
"1584 1193 OFFCURVE"
);
}
);
width = 1741;
}
);
unicode = 0057;
},
{
glyphname = X;
layers = (
{
anchors = (
{
name = L;
position = "{630, -100}";
},
{
name = U;
position = "{630, 1370}";
}
);
hints = (
{
horizontal = 1;
origin = "{0, 0}";
type = Tag;
name = hr00;
}
);
layerId = "5E936A5D-BBF2-432C-9FBC-FBC71ABAF060";
name = Regular;
paths = (
{
closed = 1;
nodes = (
"1229 0 LINE",
"1229 43 LINE",
"1151 53 OFFCURVE",
"1110 70 OFFCURVE",
"1071 127 CURVE SMOOTH",
"706 662 LINE",
"997 1133 LINE SMOOTH",
"1032 1190 OFFCURVE",
"1083 1206 OFFCURVE",
"1180 1217 CURVE",
"1180 1260 LINE",
"727 1260 LINE",
"727 1217 LINE",
"846 1208 OFFCURVE",
"895 1194 OFFCURVE",
"858 1133 CURVE",
"632 770 LINE",
"385 1133 LINE SMOOTH",
"345 1191 OFFCURVE",
"379 1206 OFFCURVE",
"492 1217 CURVE",
"492 1260 LINE",
"41 1260 LINE",
"41 1217 LINE",
"129 1204 OFFCURVE",
"156 1192 OFFCURVE",
"197 1133 CURVE SMOOTH",
"530 644 LINE",
"213 127 LINE SMOOTH",
"180 72 OFFCURVE",
"117 49 OFFCURVE",
"31 43 CURVE",
"31 0 LINE",
"481 0 LINE",
"481 43 LINE",
"358 51 OFFCURVE",
"315 68 OFFCURVE",
"352 127 CURVE SMOOTH",
"604 535 LINE",
"883 127 LINE SMOOTH",
"920 74 OFFCURVE",
"895 55 OFFCURVE",
"778 43 CURVE",
"778 0 LINE"
);
}
);
width = 1260;
}
);
unicode = 0058;
},
{
glyphname = Y;
layers = (
{
anchors = (
{
name = L;
position = "{604, -100}";
},
{
name = U;
position = "{604, 1370}";
}
);
hints = (
{
horizontal = 1;
origin = "{0, 0}";
type = Tag;
name = hr00;
}
);
layerId = "5E936A5D-BBF2-432C-9FBC-FBC71ABAF060";
name = Regular;
paths = (
{
closed = 1;
nodes = (
"850 0 LINE",
"850 43 LINE",
"725 68 OFFCURVE",
"684 98 OFFCURVE",
"684 115 CURVE SMOOTH",
"684 541 LINE",
"1020 1151 LINE SMOOTH",
"1039 1185 OFFCURVE",
"1085 1200 OFFCURVE",
"1176 1217 CURVE",
"1176 1260 LINE",
"780 1260 LINE",
"780 1217 LINE",
"883 1204 OFFCURVE",
"911 1186 OFFCURVE",
"891 1151 CURVE SMOOTH",
"623 680 LINE",
"530 872 OFFCURVE",
"397 1102 OFFCURVE",
"297 1231 CURVE SMOOTH",
"276 1257 OFFCURVE",
"248 1270 OFFCURVE",
"219 1270 CURVE SMOOTH",
"164 1270 OFFCURVE",
"78 1260 OFFCURVE",
"0 1249 CURVE",
"4 1206 LINE",
"115 1206 OFFCURVE",
"143 1180 OFFCURVE",
"168 1151 CURVE",
"261 1023 OFFCURVE",
"426 753 OFFCURVE",
"524 537 CURVE",
"524 115 LINE SMOOTH",
"524 96 OFFCURVE",
"481 68 OFFCURVE",
"360 43 CURVE",
"360 0 LINE"
);
}
);
width = 1217;
}
);
unicode = 0059;
},
{
glyphname = Yhook;
layers = (
{
anchors = (
{
name = L;
position = "{604, -100}";
},
{
name = U;
position = "{604, 1370}";
}
);
hints = (
{
horizontal = 1;
origin = "{0, 0}";
type = Tag;
name = hr00;
}
);
layerId = "5E936A5D-BBF2-432C-9FBC-FBC71ABAF060";
name = Regular;
paths = (
{
closed = 1;
nodes = (
"850 0 LINE",
"850 43 LINE",
"725 68 OFFCURVE",
"684 98 OFFCURVE",
"684 115 CURVE SMOOTH",
"684 541 LINE",
"989 1095 LINE SMOOTH",
"1020 1151 OFFCURVE",
"1062 1201 OFFCURVE",
"1113 1201 CURVE SMOOTH",
"1179 1201 OFFCURVE",
"1212 1143 OFFCURVE",
"1212 1077 CURVE SMOOTH",
"1212 1029 OFFCURVE",
"1197 1001 OFFCURVE",
"1178 965 CURVE",
"1196 936 LINE",
"1236 947 OFFCURVE",
"1361 989 OFFCURVE",
"1375 1023 CURVE SMOOTH",
"1381 1039 OFFCURVE",
"1387 1075 OFFCURVE",
"1387 1101 CURVE SMOOTH",
"1387 1218 OFFCURVE",
"1291 1320 OFFCURVE",
"1166 1320 CURVE SMOOTH",
"1007 1320 OFFCURVE",
"932 1222 OFFCURVE",
"862 1100 CURVE SMOOTH",
"623 680 LINE",
"530 872 OFFCURVE",
"397 1102 OFFCURVE",
"297 1231 CURVE SMOOTH",
"276 1257 OFFCURVE",
"248 1270 OFFCURVE",
"219 1270 CURVE SMOOTH",
"164 1270 OFFCURVE",
"78 1260 OFFCURVE",
"0 1249 CURVE",
"4 1206 LINE",
"115 1206 OFFCURVE",
"143 1180 OFFCURVE",
"168 1151 CURVE",
"261 1023 OFFCURVE",
"426 753 OFFCURVE",
"524 537 CURVE",
"524 115 LINE SMOOTH",
"524 96 OFFCURVE",
"481 68 OFFCURVE",
"360 43 CURVE",
"360 0 LINE"
);
}
);
width = 1387;
}
);
unicode = 01B3;
},
{
glyphname = Z;
layers = (
{
anchors = (
{
name = L;
position = "{535, -100}";
},
{
name = U;
position = "{555, 1370}";
}
);
hints = (
{
horizontal = 1;
origin = "{0, 11}";
type = Tag;
name = hr01;
},
{
horizontal = 1;
origin = "{0, 16}";
type = Tag;
name = hr02;
}
);
layerId = "5E936A5D-BBF2-432C-9FBC-FBC71ABAF060";
name = Regular;
paths = (
{
closed = 1;
nodes = (
"991 293 CURVE",
"936 307 LINE",
"885 143 OFFCURVE",
"856 100 OFFCURVE",
"799 100 CURVE SMOOTH",
"276 100 LINE",
"981 1217 LINE",
"956 1260 LINE",
"340 1260 LINE SMOOTH",
"262 1260 OFFCURVE",
"223 1260 OFFCURVE",
"150 1276 CURVE",
"121 975 LINE",
"178 963 LINE",
"207 1102 OFFCURVE",
"268 1160 OFFCURVE",
"311 1160 CURVE SMOOTH",
"770 1160 LINE",
"59 45 LINE",
"88 0 LINE",
"979 0 LINE",
"981 78 OFFCURVE",
"987 207 OFFCURVE"
);
}
);
width = 1071;
}
);
unicode = 005A;
},
{
glyphname = a;
layers = (
{
anchors = (
{
name = H;
position = "{700, 0}";
},
{
name = L;
position = "{460, -100}";
},
{
name = O;
position = "{715, 0}";
},
{
name = R;
position = "{940, 900}";
},
{
name = U;
position = "{480, 1050}";
}
);
hints = (
{
horizontal = 1;
origin = "{0, 0}";
type = Tag;
name = hr00;
}
);
layerId = "5E936A5D-BBF2-432C-9FBC-FBC71ABAF060";
name = Regular;
paths = (
{
closed = 1;
nodes = (
"926 82 CURVE",
"911 127 LINE",
"858 105 OFFCURVE",
"832 100 OFFCURVE",
"813 100 CURVE SMOOTH",
"789 100 OFFCURVE",
"773 122 OFFCURVE",
"773 178 CURVE SMOOTH",
"773 742 LINE SMOOTH",
"773 879 OFFCURVE",
"690 960 OFFCURVE",
"544 960 CURVE SMOOTH",
"375 960 OFFCURVE",
"169 839 OFFCURVE",
"108 706 CURVE",
"122 667 LINE",
"155 659 OFFCURVE",
"295 699 OFFCURVE",
"292 724 CURVE SMOOTH",
"284 804 OFFCURVE",
"369 858 OFFCURVE",
"455 860 CURVE SMOOTH",
"586 864 OFFCURVE",
"623 792 OFFCURVE",
"623 702 CURVE SMOOTH",
"623 561 LINE",
"316 516 OFFCURVE",
"234 465 OFFCURVE",
"170 401 CURVE SMOOTH",
"121 352 OFFCURVE",
"80 288 OFFCURVE",
"80 186 CURVE SMOOTH",
"80 31 OFFCURVE",
"197 -30 OFFCURVE",
"293 -30 CURVE SMOOTH",
"378 -30 OFFCURVE",
"503 22 OFFCURVE",
"623 143 CURVE",
"626 36 OFFCURVE",
"658 -30 OFFCURVE",
"702 -30 CURVE SMOOTH",
"739 -30 OFFCURVE",
"813 4 OFFCURVE"
);
},
{
closed = 1;
nodes = (
"352 100 CURVE SMOOTH",
"317 100 OFFCURVE",
"244 123 OFFCURVE",
"244 229 CURVE SMOOTH",
"244 291 OFFCURVE",
"268 336 OFFCURVE",
"302 372 CURVE SMOOTH",
"345 417 OFFCURVE",
"400 450 OFFCURVE",
"623 486 CURVE",
"623 227 LINE",
"522 140 OFFCURVE",
"431 100 OFFCURVE"
);
}
);
width = 940;
}
);
unicode = 0061;
},
{
glyphname = "alpha-latin";
layers = (
{
anchors = (
{
name = H;
position = "{780, 0}";
},
{
name = L;
position = "{544, -100}";
},
{
name = O;
position = "{790, 0}";
},
{
name = R;
position = "{1023, 900}";
},
{
name = U;
position = "{544, 1050}";
}
);
hints = (
{
horizontal = 1;
origin = "{0, 0}";
type = Tag;
name = hr00;
}
);
layerId = "5E936A5D-BBF2-432C-9FBC-FBC71ABAF060";
name = Regular;
paths = (
{
closed = 1;
nodes = (
"1009 84 CURVE",
"1009 84 OFFCURVE",
"997 131 OFFCURVE",
"997 129 CURVE",
"930 98 OFFCURVE",
"884 92 OFFCURVE",
"872 109 CURVE",
"862 121 OFFCURVE",
"855 174 OFFCURVE",
"855 254 CURVE SMOOTH",
"855 723 LINE SMOOTH",
"855 834 OFFCURVE",
"884 930 OFFCURVE",
"884 930 CURVE",
"856 960 LINE",
"816 916 OFFCURVE",
"779 887 OFFCURVE",
"742 866 CURVE",
"656 946 OFFCURVE",
"612 960 OFFCURVE",
"540 960 CURVE SMOOTH",
"264 960 OFFCURVE",
"80 674 OFFCURVE",
"80 444 CURVE SMOOTH",
"80 147 OFFCURVE",
"258 -30 OFFCURVE",
"405 -30 CURVE SMOOTH",
"521 -30 OFFCURVE",
"595 20 OFFCURVE",
"706 162 CURVE",
"712 22 OFFCURVE",
"732 -30 OFFCURVE",
"788 -30 CURVE SMOOTH",
"807 -30 OFFCURVE",
"893 6 OFFCURVE"
);
},
{
closed = 1;
nodes = (
"705 256 LINE",
"604 149 OFFCURVE",
"541 100 OFFCURVE",
"477 100 CURVE SMOOTH",
"366 100 OFFCURVE",
"230 248 OFFCURVE",
"230 475 CURVE SMOOTH",
"230 725 OFFCURVE",
"340 850 OFFCURVE",
"510 850 CURVE SMOOTH",
"604 850 OFFCURVE",
"662 806 OFFCURVE",
"705 730 CURVE",
"705 272 LINE"
);
}
);
width = 1023;
}
);
unicode = 0251;
},
{
glyphname = ae;
layers = (
{
anchors = (
{
name = H;
position = "{738, 0}";
},
{
name = L;
position = "{738, -100}";
},
{
name = O;
position = "{1020, 0}";
},
{
name = R;
position = "{1417, 900}";
},
{
name = U;
position = "{738, 1050}";
}
);
hints = (
{
horizontal = 1;
origin = "{0, 0}";
type = Tag;
name = hr00;
}
);
layerId = "5E936A5D-BBF2-432C-9FBC-FBC71ABAF060";
name = Regular;
paths = (
{
closed = 1;
nodes = (
"1337 557 CURVE",
"1337 737 OFFCURVE",
"1268 960 OFFCURVE",
"1024 960 CURVE SMOOTH",
"946 960 OFFCURVE",
"835 924 OFFCURVE",
"749 816 CURVE",
"718 912 OFFCURVE",
"652 960 OFFCURVE",
"535 960 CURVE SMOOTH",
"397 960 OFFCURVE",
"128 815 OFFCURVE",
"108 657 CURVE",
"122 621 LINE",
"155 612 OFFCURVE",
"300 651 OFFCURVE",
"292 676 CURVE",
"253 776 OFFCURVE",
"383 860 OFFCURVE",
"467 860 CURVE SMOOTH",
"598 860 OFFCURVE",
"623 766 OFFCURVE",
"623 662 CURVE SMOOTH",
"623 576 LINE",
"565 572 OFFCURVE",
"507 565 OFFCURVE",
"463 553 CURVE SMOOTH",
"203 479 OFFCURVE",
"80 344 OFFCURVE",
"80 186 CURVE SMOOTH",
"80 31 OFFCURVE",
"197 -30 OFFCURVE",
"293 -30 CURVE SMOOTH",
"377 -30 OFFCURVE",
"543 41 OFFCURVE",
"658 179 CURVE",
"713 47 OFFCURVE",
"826 -30 OFFCURVE",
"944 -30 CURVE SMOOTH",
"1069 -30 OFFCURVE",
"1169 4 OFFCURVE",
"1329 195 CURVE",
"1323 205 OFFCURVE",
"1309 227 OFFCURVE",
"1292 236 CURVE",
"1151 113 OFFCURVE",
"1092 102 OFFCURVE",
"1008 102 CURVE SMOOTH",
"860 102 OFFCURVE",
"774 264 OFFCURVE",
"774 418 CURVE SMOOTH",
"774 443 OFFCURVE",
"774 466 OFFCURVE",
"776 489 CURVE",
"1225 489 LINE",
"1268 506 OFFCURVE",
"1311 530 OFFCURVE"
);
},
{
closed = 1;
nodes = (
"637 243 CURVE",
"539 147 OFFCURVE",
"424 100 OFFCURVE",
"352 100 CURVE SMOOTH",
"317 100 OFFCURVE",
"244 123 OFFCURVE",
"244 229 CURVE SMOOTH",
"244 338 OFFCURVE",
"326 424 OFFCURVE",
"526 473 CURVE",
"542 478 OFFCURVE",
"579 482 OFFCURVE",
"623 485 CURVE",
"623 365 LINE SMOOTH",
"623 321 OFFCURVE",
"628 281 OFFCURVE"
);
},
{
closed = 1;
nodes = (
"995 860 CURVE SMOOTH",
"1120 860 OFFCURVE",
"1171 743 OFFCURVE",
"1171 616 CURVE SMOOTH",
"1171 588 OFFCURVE",
"1161 580 OFFCURVE",
"1133 580 CURVE SMOOTH",
"785 580 LINE",
"821 813 OFFCURVE",
"935 860 OFFCURVE"
);
}
);
width = 1417;
}
);
unicode = 00E6;
},
{
glyphname = b;
layers = (
{
anchors = (
{
name = H;
position = "{479, 0}";
},
{
name = L;
position = "{479, -100}";
},
{
name = R;
position = "{1040, 900}";
},
{
name = U;
position = "{520, 1620}";
}
);
hints = (
{
horizontal = 1;
origin = "{0, 0}";
type = Tag;
name = hr00;
}
);
layerId = "5E936A5D-BBF2-432C-9FBC-FBC71ABAF060";
name = Regular;
paths = (
{
closed = 1;
nodes = (
"950 492 CURVE",
"950 784 OFFCURVE",
"819 960 OFFCURVE",
"637 960 CURVE SMOOTH",
"561 960 OFFCURVE",
"423 887 OFFCURVE",
"290 727 CURVE",
"290 1516 LINE",
"290 1516 OFFCURVE",
"263 1540 OFFCURVE",
"253 1550 CURVE",
"177 1509 OFFCURVE",
"98 1491 OFFCURVE",
"10 1470 CURVE",
"10 1430 LINE",
"119 1417 OFFCURVE",
"140 1419 OFFCURVE",
"140 1296 CURVE SMOOTH",
"140 96 LINE",
"284 16 OFFCURVE",
"418 -30 OFFCURVE",
"469 -30 CURVE SMOOTH",
"764 -30 OFFCURVE",
"950 260 OFFCURVE"
);
},
{
closed = 1;
nodes = (
"815 408 CURVE",
"815 254 OFFCURVE",
"729 100 OFFCURVE",
"567 100 CURVE SMOOTH",
"520 100 OFFCURVE",
"396 123 OFFCURVE",
"290 203 CURVE",
"290 610 LINE",
"402 776 OFFCURVE",
"520 825 OFFCURVE",
"567 825 CURVE SMOOTH",
"696 825 OFFCURVE",
"815 674 OFFCURVE"
);
}
);
width = 1040;
}
);
unicode = 0062;
},
{
glyphname = bhook;
layers = (
{
anchors = (
{
name = L;
position = "{544, -100}";
},
{
name = U;
position = "{544, 1690}";
}
);
hints = (
{
horizontal = 1;
origin = "{0, 3}";
type = Tag;
name = hr01;
},
{
horizontal = 1;
origin = "{0, 6}";
type = Tag;
name = hr02;
},
{
horizontal = 1;
origin = "{1, 6}";
type = Tag;
name = hr04;
},
{
horizontal = 1;
origin = "{1, 10}";
type = Tag;
name = hr05;
}
);
layerId = "5E936A5D-BBF2-432C-9FBC-FBC71ABAF060";
name = Regular;
paths = (
{
closed = 1;
nodes = (
"950 492 CURVE",
"950 784 OFFCURVE",
"819 960 OFFCURVE",
"637 960 CURVE SMOOTH",
"561 960 OFFCURVE",
"423 887 OFFCURVE",
"290 727 CURVE",
"290 936 LINE SMOOTH",
"290 1317 OFFCURVE",
"426 1425 OFFCURVE",
"512 1425 CURVE SMOOTH",
"590 1425 OFFCURVE",
"672 1380 OFFCURVE",
"727 1311 CURVE",
"766 1329 OFFCURVE",
"854 1399 OFFCURVE",
"854 1421 CURVE SMOOTH",
"854 1446 OFFCURVE",
"737 1550 OFFCURVE",
"618 1550 CURVE SMOOTH",
"567 1550 OFFCURVE",
"451 1516 OFFCURVE",
"379 1458 CURVE SMOOTH",
"236 1343 OFFCURVE",
"140 1212 OFFCURVE",
"140 881 CURVE SMOOTH",
"140 96 LINE",
"284 16 OFFCURVE",
"418 -30 OFFCURVE",
"469 -30 CURVE SMOOTH",
"764 -30 OFFCURVE",
"950 260 OFFCURVE"
);
},
{
closed = 1;
nodes = (
"815 408 CURVE",
"815 254 OFFCURVE",
"729 100 OFFCURVE",
"567 100 CURVE SMOOTH",
"520 100 OFFCURVE",
"396 123 OFFCURVE",
"290 203 CURVE",
"290 610 LINE",
"402 776 OFFCURVE",
"520 825 OFFCURVE",
"567 825 CURVE SMOOTH",
"696 825 OFFCURVE",
"815 674 OFFCURVE"
);
}
);
width = 1040;
}
);
unicode = 0253;
},
{
glyphname = c;
layers = (
{
anchors = (
{
name = H;
position = "{490, 0}";
},
{
name = L;
position = "{490, -100}";
},
{
name = R;
position = "{895, 900}";
},
{
name = U;
position = "{490, 1050}";
}
);
hints = (
{
horizontal = 1;
origin = "{0, 0}";
type = Tag;
name = hr00;
}
);
layerId = "5E936A5D-BBF2-432C-9FBC-FBC71ABAF060";
name = Regular;
paths = (
{
closed = 1;
nodes = (
"840 190 CURVE",
"801 231 LINE",
"653 104 OFFCURVE",
"612 100 OFFCURVE",
"537 100 CURVE SMOOTH",
"377 100 OFFCURVE",
"230 248 OFFCURVE",
"230 475 CURVE SMOOTH",
"230 725 OFFCURVE",
"360 850 OFFCURVE",
"500 850 CURVE SMOOTH",
"637 850 OFFCURVE",
"709 774 OFFCURVE",
"731 727 CURVE",
"768 717 LINE",
"793 754 OFFCURVE",
"831 848 OFFCURVE",
"825 881 CURVE",
"780 928 OFFCURVE",
"678 960 OFFCURVE",
"590 960 CURVE SMOOTH",
"303 960 OFFCURVE",
"80 731 OFFCURVE",
"80 444 CURVE SMOOTH",
"80 147 OFFCURVE",
"270 -30 OFFCURVE",
"465 -30 CURVE SMOOTH",
"590 -30 OFFCURVE",
"666 -14 OFFCURVE"
);
}
);
width = 895;
}
);
unicode = 0063;
},
{
glyphname = d;
layers = (
{
anchors = (
{
name = H;
position = "{820, 0}";
},
{
name = L;
position = "{525, -100}";
},
{
name = R;
position = "{1065, 900}";
},
{
name = U;
position = "{335, 1050}";
}
);
hints = (
{
horizontal = 1;
origin = "{0, 0}";
type = Tag;
name = hr00;
}
);
layerId = "5E936A5D-BBF2-432C-9FBC-FBC71ABAF060";
name = Regular;
paths = (
{
closed = 1;
nodes = (
"1051 84 CURVE",
"1038 127 LINE",
"958 96 OFFCURVE",
"930 92 OFFCURVE",
"918 106 CURVE SMOOTH",
"903 125 OFFCURVE",
"895 160 OFFCURVE",
"895 254 CURVE SMOOTH",
"895 1520 LINE",
"864 1550 LINE",
"795 1528 OFFCURVE",
"709 1499 OFFCURVE",
"600 1485 CURVE",
"600 1446 LINE",
"741 1436 OFFCURVE",
"745 1421 OFFCURVE",
"745 1274 CURVE SMOOTH",
"745 897 LINE",
"673 950 OFFCURVE",
"613 960 OFFCURVE",
"551 960 CURVE SMOOTH",
"272 960 OFFCURVE",
"80 674 OFFCURVE",
"80 444 CURVE SMOOTH",
"80 147 OFFCURVE",
"268 -30 OFFCURVE",
"416 -30 CURVE SMOOTH",
"553 -30 OFFCURVE",
"645 46 OFFCURVE",
"747 169 CURVE",
"756 24 OFFCURVE",
"785 -30 OFFCURVE",
"829 -30 CURVE SMOOTH",
"866 -30 OFFCURVE",
"928 2 OFFCURVE"
);
},
{
closed = 1;
nodes = (
"745 261 LINE",
"662 180 OFFCURVE",
"578 100 OFFCURVE",
"487 100 CURVE SMOOTH",
"377 100 OFFCURVE",
"230 248 OFFCURVE",
"230 475 CURVE SMOOTH",
"230 725 OFFCURVE",
"350 850 OFFCURVE",
"520 850 CURVE SMOOTH",
"615 850 OFFCURVE",
"701 806 OFFCURVE",
"745 730 CURVE",
"745 272 LINE"
);
}
);
width = 1065;
}
);
unicode = 0064;
},
{
glyphname = eth;
layers = (
{
anchors = (
{
name = L;
position = "{507, -100}";
},
{
name = U;
position = "{507, 1690}";
}
);
hints = (
{
horizontal = 1;
origin = "{0, 0}";
type = Tag;
name = hr00;
}
);
layerId = "5E936A5D-BBF2-432C-9FBC-FBC71ABAF060";
name = Regular;
paths = (
{
closed = 1;
nodes = (
"935 592 CURVE SMOOTH",
"935 801 OFFCURVE",
"858 1019 OFFCURVE",
"673 1218 CURVE",
"911 1321 LINE",
"905 1356 LINE",
"870 1368 OFFCURVE",
"874 1368 OFFCURVE",
"811 1378 CURVE",
"603 1287 LINE",
"546 1340 OFFCURVE",
"480 1391 OFFCURVE",
"406 1440 CURVE",
"205 1368 LINE",
"211 1327 LINE",
"323 1343 OFFCURVE",
"405 1296 OFFCURVE",
"478 1233 CURVE",
"223 1122 LINE",
"233 1085 LINE",
"279 1071 OFFCURVE",
"274 1073 OFFCURVE",
"324 1067 CURVE",
"550 1165 LINE",
"644 1069 OFFCURVE",
"712 963 OFFCURVE",
"750 829 CURVE",
"682 902 OFFCURVE",
"585 960 OFFCURVE",
"506 960 CURVE SMOOTH",
"289 960 OFFCURVE",
"80 709 OFFCURVE",
"80 444 CURVE SMOOTH",
"80 172 OFFCURVE",
"236 -30 OFFCURVE",
"496 -30 CURVE SMOOTH",
"647 -30 OFFCURVE",
"935 129 OFFCURVE"
);
},
{
closed = 1;
nodes = (
"785 586 CURVE",
"786 575 OFFCURVE",
"785 563 OFFCURVE",
"785 551 CURVE SMOOTH",
"785 223 OFFCURVE",
"653 80 OFFCURVE",
"506 80 CURVE SMOOTH",
"391 80 OFFCURVE",
"235 262 OFFCURVE",
"235 473 CURVE SMOOTH",
"235 686 OFFCURVE",
"317 850 OFFCURVE",
"475 850 CURVE SMOOTH",
"591 850 OFFCURVE",
"734 739 OFFCURVE"
);
}
);
width = 1020;
}
);
unicode = 00F0;
},
{
glyphname = dcroat;
layers = (
{
anchors = (
{
name = L;
position = "{571, -100}";
},
{
name = U;
position = "{571, 1690}";
}
);
hints = (
{
horizontal = 1;
origin = "{0, 0}";
type = Tag;
name = hr00;
}
);
layerId = "5E936A5D-BBF2-432C-9FBC-FBC71ABAF060";
name = Regular;
paths = (
{
closed = 1;
nodes = (
"1051 84 CURVE",
"1038 127 LINE",
"958 96 OFFCURVE",
"930 92 OFFCURVE",
"918 106 CURVE SMOOTH",
"903 125 OFFCURVE",
"895 160 OFFCURVE",
"895 254 CURVE SMOOTH",
"895 1140 LINE",
"1040 1140 LINE",
"1063 1205 LINE",
"1040 1230 LINE",
"895 1230 LINE",
"895 1520 LINE",
"864 1550 LINE",
"795 1528 OFFCURVE",
"709 1499 OFFCURVE",
"600 1485 CURVE",
"600 1446 LINE",
"741 1436 OFFCURVE",
"745 1421 OFFCURVE",
"745 1274 CURVE SMOOTH",
"745 1230 LINE",
"465 1230 LINE",
"455 1209 OFFCURVE",
"449 1183 OFFCURVE",
"442 1162 CURVE",
"465 1140 LINE",
"745 1140 LINE",
"745 897 LINE",
"673 950 OFFCURVE",
"613 960 OFFCURVE",
"551 960 CURVE SMOOTH",
"272 960 OFFCURVE",
"80 674 OFFCURVE",
"80 444 CURVE SMOOTH",
"80 147 OFFCURVE",
"268 -30 OFFCURVE",
"416 -30 CURVE SMOOTH",
"553 -30 OFFCURVE",
"645 46 OFFCURVE",
"747 169 CURVE",
"756 24 OFFCURVE",
"785 -31 OFFCURVE",
"829 -31 CURVE SMOOTH",
"866 -31 OFFCURVE",
"928 2 OFFCURVE"
);
},
{
closed = 1;
nodes = (
"745 261 LINE",
"662 180 OFFCURVE",
"578 100 OFFCURVE",
"487 100 CURVE SMOOTH",
"377 100 OFFCURVE",
"230 248 OFFCURVE",
"230 475 CURVE SMOOTH",
"230 725 OFFCURVE",
"350 850 OFFCURVE",
"520 850 CURVE SMOOTH",
"615 850 OFFCURVE",
"701 806 OFFCURVE",
"745 730 CURVE",
"745 272 LINE"
);
}
);
width = 1065;
}
);
unicode = 0111;
},
{
glyphname = dhook;
layers = (
{
anchors = (
{
name = L;
position = "{525, -100}";
},
{
name = U;
position = "{335, 1050}";
}
);
hints = (
{
horizontal = 1;
origin = "{0, 0}";
type = Tag;
name = hr00;
}
);
layerId = "5E936A5D-BBF2-432C-9FBC-FBC71ABAF060";
name = Regular;
paths = (
{
closed = 1;
nodes = (
"1292 1423 CURVE SMOOTH",
"1292 1448 OFFCURVE",
"1210 1550 OFFCURVE",
"1094 1550 CURVE SMOOTH",
"1042 1550 OFFCURVE",
"961 1518 OFFCURVE",
"893 1458 CURVE",
"788 1368 OFFCURVE",
"745 1278 OFFCURVE",
"745 1051 CURVE SMOOTH",
"745 897 LINE",
"673 950 OFFCURVE",
"613 960 OFFCURVE",
"551 960 CURVE SMOOTH",
"272 960 OFFCURVE",
"80 674 OFFCURVE",
"80 444 CURVE SMOOTH",
"80 147 OFFCURVE",
"268 -30 OFFCURVE",
"416 -30 CURVE SMOOTH",
"553 -30 OFFCURVE",
"645 46 OFFCURVE",
"747 169 CURVE",
"756 24 OFFCURVE",
"785 -31 OFFCURVE",
"829 -31 CURVE SMOOTH",
"866 -31 OFFCURVE",
"928 2 OFFCURVE",
"1051 84 CURVE",
"1038 127 LINE",
"958 96 OFFCURVE",
"930 92 OFFCURVE",
"918 106 CURVE SMOOTH",
"903 125 OFFCURVE",
"895 160 OFFCURVE",
"895 254 CURVE SMOOTH",
"895 1106 LINE SMOOTH",
"895 1348 OFFCURVE",
"932 1425 OFFCURVE",
"1016 1425 CURVE SMOOTH",
"1053 1425 OFFCURVE",
"1110 1407 OFFCURVE",
"1165 1315 CURVE",
"1204 1333 OFFCURVE",
"1292 1401 OFFCURVE"
);
},
{
closed = 1;
nodes = (
"745 261 LINE",
"662 180 OFFCURVE",
"578 100 OFFCURVE",
"487 100 CURVE SMOOTH",
"377 100 OFFCURVE",
"230 248 OFFCURVE",
"230 475 CURVE SMOOTH",
"230 725 OFFCURVE",
"350 850 OFFCURVE",
"520 850 CURVE SMOOTH",
"615 850 OFFCURVE",
"701 806 OFFCURVE",
"745 730 CURVE",
"745 272 LINE"
);
}
);
width = 1065;
}
);
unicode = 0257;
},
{
glyphname = dtail;
layers = (
{
anchors = (
{
name = L;
position = "{525, -100}";
},
{
name = R;
position = "{1065, 900}";
},
{
name = U;
position = "{335, 1050}";
}
);
hints = (
{
horizontal = 1;
origin = "{0, 0}";
type = Tag;
name = hr00;
}
);
layerId = "5E936A5D-BBF2-432C-9FBC-FBC71ABAF060";
name = Regular;
paths = (
{
closed = 1;
nodes = (
"895 1520 LINE",
"864 1550 LINE",
"795 1528 OFFCURVE",
"711 1499 OFFCURVE",
"602 1485 CURVE",
"602 1446 LINE",
"743 1436 OFFCURVE",
"745 1421 OFFCURVE",
"745 1274 CURVE SMOOTH",
"745 897 LINE",
"673 950 OFFCURVE",
"613 960 OFFCURVE",
"551 960 CURVE SMOOTH",
"272 960 OFFCURVE",
"80 674 OFFCURVE",
"80 444 CURVE SMOOTH",
"80 147 OFFCURVE",
"268 -30 OFFCURVE",
"416 -30 CURVE SMOOTH",
"552 -30 OFFCURVE",
"643 44 OFFCURVE",
"745 166 CURVE",
"745 -227 LINE SMOOTH",
"745 -371 OFFCURVE",
"786 -500 OFFCURVE",
"948 -500 CURVE SMOOTH",
"1143 -500 OFFCURVE",
"1311 -336 OFFCURVE",
"1303 -235 CURVE",
"1284 -196 LINE",
"1243 -190 OFFCURVE",
"1110 -252 OFFCURVE",
"1118 -264 CURVE SMOOTH",
"1153 -321 OFFCURVE",
"1100 -405 OFFCURVE",
"1022 -405 CURVE SMOOTH",
"926 -405 OFFCURVE",
"895 -319 OFFCURVE",
"895 -166 CURVE SMOOTH"
);
},
{
closed = 1;
nodes = (
"487 100 CURVE SMOOTH",
"377 100 OFFCURVE",
"230 248 OFFCURVE",
"230 475 CURVE SMOOTH",
"230 725 OFFCURVE",
"350 850 OFFCURVE",
"520 850 CURVE SMOOTH",
"615 850 OFFCURVE",
"701 806 OFFCURVE",
"745 730 CURVE",
"745 261 LINE",
"662 180 OFFCURVE",
"578 100 OFFCURVE"
);
}
);
width = 1030;
}
);
unicode = 0256;
},
{
glyphname = e;
layers = (
{
anchors = (
{
name = H;
position = "{500, 0}";
},
{
name = L;
position = "{500, -100}";
},
{
name = O;
position = "{700, 0}";
},
{
name = R;
position = "{946, 900}";
},
{
name = U;
position = "{510, 1050}";
}
);
hints = (
{
horizontal = 1;
origin = "{0, 0}";
type = Tag;
name = hr00;
}
);
layerId = "5E936A5D-BBF2-432C-9FBC-FBC71ABAF060";
name = Regular;
paths = (
{
closed = 1;
nodes = (
"866 557 CURVE",
"866 727 OFFCURVE",
"786 960 OFFCURVE",
"524 960 CURVE SMOOTH",
"453 960 OFFCURVE",
"360 922 OFFCURVE",
"301 881 CURVE SMOOTH",
"162 786 OFFCURVE",
"80 614 OFFCURVE",
"80 434 CURVE SMOOTH",
"80 152 OFFCURVE",
"260 -30 OFFCURVE",
"465 -30 CURVE SMOOTH",
"602 -30 OFFCURVE",
"682 0 OFFCURVE",
"860 195 CURVE",
"854 205 OFFCURVE",
"840 227 OFFCURVE",
"823 236 CURVE",
"674 113 OFFCURVE",
"610 100 OFFCURVE",
"526 100 CURVE SMOOTH",
"344 100 OFFCURVE",
"232 283 OFFCURVE",
"230 490 CURVE",
"756 490 LINE",
"799 507 OFFCURVE",
"842 530 OFFCURVE"
);
},
{
closed = 1;
nodes = (
"496 855 CURVE SMOOTH",
"670 855 OFFCURVE",
"702 688 OFFCURVE",
"702 616 CURVE SMOOTH",
"702 588 OFFCURVE",
"694 580 OFFCURVE",
"664 580 CURVE SMOOTH",
"236 580 LINE",
"260 742 OFFCURVE",
"358 855 OFFCURVE"
);
}
);
width = 946;
}
);
unicode = 0065;
},
{
glyphname = eopen;
layers = (
{
anchors = (
{
name = H;
position = "{454, 0}";
},
{
name = L;
position = "{454, -100}";
},
{
name = O;
position = "{520, 0}";
},
{
name = R;
position = "{874, 900}";
},
{
name = U;
position = "{454, 1050}";
}
);
hints = (
{
horizontal = 1;
origin = "{0, 39}";
type = Tag;
name = hr01;
}
);
layerId = "5E936A5D-BBF2-432C-9FBC-FBC71ABAF060";
name = Regular;
paths = (
{
closed = 1;
nodes = (
"829 190 CURVE",
"791 231 LINE",
"631 102 OFFCURVE",
"553 95 OFFCURVE",
"477 95 CURVE SMOOTH",
"332 95 OFFCURVE",
"246 180 OFFCURVE",
"244 264 CURVE SMOOTH",
"242 354 OFFCURVE",
"334 455 OFFCURVE",
"543 469 CURVE",
"532 522 LINE",
"289 539 OFFCURVE",
"253 625 OFFCURVE",
"253 707 CURVE SMOOTH",
"253 786 OFFCURVE",
"326 860 OFFCURVE",
"440 860 CURVE SMOOTH",
"582 860 OFFCURVE",
"659 782 OFFCURVE",
"682 727 CURVE",
"719 717 LINE",
"741 754 OFFCURVE",
"780 848 OFFCURVE",
"774 881 CURVE",
"721 930 OFFCURVE",
"614 960 OFFCURVE",
"520 960 CURVE SMOOTH",
"432 960 OFFCURVE",
"332 936 OFFCURVE",
"268 895 CURVE SMOOTH",
"180 842 OFFCURVE",
"113 760 OFFCURVE",
"113 676 CURVE SMOOTH",
"113 567 OFFCURVE",
"170 506 OFFCURVE",
"270 467 CURVE",
"178 426 OFFCURVE",
"80 338 OFFCURVE",
"80 221 CURVE SMOOTH",
"80 78 OFFCURVE",
"203 -30 OFFCURVE",
"426 -30 CURVE SMOOTH",
"541 -30 OFFCURVE",
"655 -14 OFFCURVE"
);
}
);
width = 874;
}
);
unicode = 025B;
},
{
glyphname = esh;
layers = (
{
anchors = (
{
name = L;
position = "{227, -600}";
},
{
name = U;
position = "{227, 1690}";
}
);
hints = (
{
horizontal = 1;
origin = "{0, 3}";
type = Tag;
name = hr01;
},
{
horizontal = 1;
origin = "{0, 24}";
type = Tag;
name = hr02;
}
);
layerId = "5E936A5D-BBF2-432C-9FBC-FBC71ABAF060";
name = Regular;
paths = (
{
closed = 1;
nodes = (
"390 66 CURVE SMOOTH",
"390 300 OFFCURVE",
"282 839 OFFCURVE",
"282 1146 CURVE SMOOTH",
"282 1326 OFFCURVE",
"348 1425 OFFCURVE",
"417 1425 CURVE SMOOTH",
"452 1425 OFFCURVE",
"524 1399 OFFCURVE",
"587 1343 CURVE",
"626 1362 OFFCURVE",
"714 1432 OFFCURVE",
"714 1454 CURVE SMOOTH",
"714 1477 OFFCURVE",
"608 1550 OFFCURVE",
"526 1550 CURVE SMOOTH",
"475 1550 OFFCURVE",
"368 1516 OFFCURVE",
"296 1458 CURVE SMOOTH",
"190 1372 OFFCURVE",
"122 1276 OFFCURVE",
"122 1031 CURVE SMOOTH",
"122 798 OFFCURVE",
"230 265 OFFCURVE",
"230 -50 CURVE SMOOTH",
"230 -261 OFFCURVE",
"144 -365 OFFCURVE",
"27 -365 CURVE SMOOTH",
"-23 -365 OFFCURVE",
"-90 -340 OFFCURVE",
"-133 -303 CURVE",
"-172 -321 OFFCURVE",
"-260 -391 OFFCURVE",
"-260 -414 CURVE SMOOTH",
"-260 -436 OFFCURVE",
"-154 -500 OFFCURVE",
"-72 -500 CURVE SMOOTH",
"11 -500 OFFCURVE",
"121 -457 OFFCURVE",
"192 -400 CURVE SMOOTH",
"299 -314 OFFCURVE",
"390 -192 OFFCURVE"
);
}
);
width = 504;
}
);
unicode = 0283;
},
{
glyphname = eshreversedloop;
layers = (
{
anchors = (
{
name = L;
position = "{504, -600}";
},
{
name = U;
position = "{504, 1690}";
}
);
hints = (
{
horizontal = 1;
origin = "{0, 0}";
type = Tag;
name = hr00;
}
);
layerId = "5E936A5D-BBF2-432C-9FBC-FBC71ABAF060";
name = Regular;
paths = (
{
closed = 1;
nodes = (
"30 1282 CURVE SMOOTH",
"30 1175 OFFCURVE",
"98 1092 OFFCURVE",
"213 1092 CURVE SMOOTH",
"281 1092 OFFCURVE",
"349 1120 OFFCURVE",
"409 1185 CURVE",
"409 1172 OFFCURVE",
"410 1159 OFFCURVE",
"410 1146 CURVE SMOOTH",
"410 793 OFFCURVE",
"365 356 OFFCURVE",
"365 -40 CURVE SMOOTH",
"365 -324 OFFCURVE",
"451 -500 OFFCURVE",
"633 -500 CURVE SMOOTH",
"818 -500 OFFCURVE",
"986 -336 OFFCURVE",
"978 -235 CURVE",
"959 -196 LINE",
"918 -190 OFFCURVE",
"785 -252 OFFCURVE",
"793 -264 CURVE SMOOTH",
"828 -321 OFFCURVE",
"775 -405 OFFCURVE",
"697 -405 CURVE SMOOTH",
"591 -405 OFFCURVE",
"525 -299 OFFCURVE",
"525 21 CURVE SMOOTH",
"525 355 OFFCURVE",
"570 802 OFFCURVE",
"570 1207 CURVE SMOOTH",
"570 1381 OFFCURVE",
"499 1550 OFFCURVE",
"337 1550 CURVE SMOOTH",
"162 1550 OFFCURVE",
"30 1399 OFFCURVE"
);
},
{
closed = 1;
nodes = (
"269 1213 CURVE SMOOTH",
"211 1213 OFFCURVE",
"155 1262 OFFCURVE",
"155 1334 CURVE SMOOTH",
"155 1396 OFFCURVE",
"205 1455 OFFCURVE",
"263 1455 CURVE SMOOTH",
"332 1455 OFFCURVE",
"378 1399 OFFCURVE",
"398 1291 CURVE",
"373 1256 OFFCURVE",
"330 1213 OFFCURVE"
);
}
);
width = 706;
}
);
unicode = 01AA;
},
{
glyphname = ezh;
layers = (
{
anchors = (
{
name = L;
position = "{444, -600}";
},
{
name = U;
position = "{444, 1050}";
}
);
hints = (
{
horizontal = 1;
origin = "{0, 0}";
type = Tag;
name = hr00;
}
);
layerId = "5E936A5D-BBF2-432C-9FBC-FBC71ABAF060";
name = Regular;
paths = (
{
closed = 1;
nodes = (
"850 -26 CURVE SMOOTH",
"850 228 OFFCURVE",
"686 371 OFFCURVE",
"473 375 CURVE SMOOTH",
"452 375 OFFCURVE",
"430 373 OFFCURVE",
"408 371 CURVE",
"805 887 LINE",
"780 930 LINE",
"291 930 LINE SMOOTH",
"205 930 OFFCURVE",
"172 930 OFFCURVE",
"115 946 CURVE",
"96 702 LINE",
"145 690 LINE",
"172 813 OFFCURVE",
"219 840 OFFCURVE",
"262 840 CURVE SMOOTH",
"602 840 LINE",
"174 290 LINE",
"180 279 OFFCURVE",
"200 253 OFFCURVE",
"209 246 CURVE",
"262 264 OFFCURVE",
"315 274 OFFCURVE",
"369 274 CURVE",
"580 279 OFFCURVE",
"700 103 OFFCURVE",
"700 -77 CURVE SMOOTH",
"700 -280 OFFCURVE",
"580 -395 OFFCURVE",
"421 -395 CURVE SMOOTH",
"332 -395 OFFCURVE",
"254 -339 OFFCURVE",
"177 -240 CURVE",
"122 -248 OFFCURVE",
"38 -322 OFFCURVE",
"38 -337 CURVE SMOOTH",
"38 -382 OFFCURVE",
"192 -500 OFFCURVE",
"382 -500 CURVE SMOOTH",
"606 -500 OFFCURVE",
"850 -308 OFFCURVE"
);
}
);
width = 920;
}
);
unicode = 0292;
},
{
glyphname = f;
layers = (
{
anchors = (
{
name = H;
position = "{275, 0}";
},
{
name = L;
position = "{325, -100}";
},
{
name = U;
position = "{420, 1620}";
}
);
hints = (
{
horizontal = 1;
origin = "{0, 0}";
type = Tag;
name = hr00;
}
);
layerId = "5E936A5D-BBF2-432C-9FBC-FBC71ABAF060";
name = Regular;
paths = (
{
closed = 1;
nodes = (
"817 1454 CURVE",
"817 1477 OFFCURVE",
"711 1550 OFFCURVE",
"629 1550 CURVE SMOOTH",
"578 1550 OFFCURVE",
"471 1516 OFFCURVE",
"399 1458 CURVE SMOOTH",
"293 1372 OFFCURVE",
"200 1276 OFFCURVE",
"200 961 CURVE SMOOTH",
"200 930 LINE",
"123 930 LINE",
"45 863 LINE",
"66 835 LINE",
"200 835 LINE",
"200 102 LINE SMOOTH",
"200 86 OFFCURVE",
"151 59 OFFCURVE",
"60 43 CURVE",
"60 0 LINE",
"559 0 LINE",
"559 43 LINE",
"403 72 OFFCURVE",
"350 86 OFFCURVE",
"350 102 CURVE SMOOTH",
"350 835 LINE",
"457 835 OFFCURVE",
"508 816 OFFCURVE",
"539 800 CURVE",
"563 812 OFFCURVE",
"612 864 OFFCURVE",
"637 901 CURVE",
"608 930 LINE",
"350 930 LINE",
"350 1016 LINE SMOOTH",
"350 1346 OFFCURVE",
"451 1425 OFFCURVE",
"520 1425 CURVE SMOOTH",
"555 1425 OFFCURVE",
"627 1399 OFFCURVE",
"690 1343 CURVE",
"729 1362 OFFCURVE",
"817 1432 OFFCURVE"
);
}
);
width = 637;
}
);
unicode = 0066;
},
{
glyphname = g;
layers = (
{
anchors = (
{
name = H;
position = "{500, -470}";
},
{
name = L;
position = "{500, -600}";
},
{
name = R;
position = "{999, 900}";
},
{
name = U;
position = "{500, 1050}";
}
);
hints = (
{
horizontal = 1;
origin = "{0, 0}";
type = Tag;
name = hr00;
}
);
layerId = "5E936A5D-BBF2-432C-9FBC-FBC71ABAF060";
name = Regular;
paths = (
{
closed = 1;
nodes = (
"830 641 CURVE SMOOTH",
"830 704 OFFCURVE",
"810 763 OFFCURVE",
"775 813 CURVE",
"836 815 OFFCURVE",
"882 821 OFFCURVE",
"932 830 CURVE",
"963 863 OFFCURVE",
"973 893 OFFCURVE",
"989 930 CURVE",
"969 960 LINE",
"914 939 OFFCURVE",
"833 909 OFFCURVE",
"693 895 CURVE",
"636 936 OFFCURVE",
"564 960 OFFCURVE",
"485 960 CURVE SMOOTH",
"291 960 OFFCURVE",
"100 798 OFFCURVE",
"100 602 CURVE SMOOTH",
"100 453 OFFCURVE",
"191 346 OFFCURVE",
"326 309 CURVE",
"203 224 OFFCURVE",
"182 175 OFFCURVE",
"182 153 CURVE SMOOTH",
"182 113 OFFCURVE",
"211 73 OFFCURVE",
"297 42 CURVE",
"69 -80 OFFCURVE",
"30 -159 OFFCURVE",
"30 -229 CURVE SMOOTH",
"30 -423 OFFCURVE",
"281 -500 OFFCURVE",
"467 -500 CURVE SMOOTH",
"702 -500 OFFCURVE",
"970 -339 OFFCURVE",
"970 -120 CURVE SMOOTH",
"970 -26 OFFCURVE",
"893 78 OFFCURVE",
"602 110 CURVE",
"393 135 OFFCURVE",
"346 164 OFFCURVE",
"346 196 CURVE SMOOTH",
"346 204 OFFCURVE",
"367 242 OFFCURVE",
"430 295 CURVE",
"434 295 LINE SMOOTH",
"629 295 OFFCURVE",
"830 437 OFFCURVE"
);
},
{
closed = 1;
nodes = (
"518 -4 CURVE SMOOTH",
"760 -31 OFFCURVE",
"820 -83 OFFCURVE",
"820 -157 CURVE SMOOTH",
"820 -295 OFFCURVE",
"702 -395 OFFCURVE",
"522 -395 CURVE SMOOTH",
"340 -395 OFFCURVE",
"180 -302 OFFCURVE",
"180 -190 CURVE SMOOTH",
"180 -147 OFFCURVE",
"197 -87 OFFCURVE",
"388 16 CURVE",
"425 8 OFFCURVE",
"468 1 OFFCURVE"
);
},
{
closed = 1;
nodes = (
"690 600 CURVE SMOOTH",
"690 468 OFFCURVE",
"592 400 OFFCURVE",
"514 400 CURVE SMOOTH",
"326 400 OFFCURVE",
"240 517 OFFCURVE",
"240 659 CURVE SMOOTH",
"240 791 OFFCURVE",
"350 860 OFFCURVE",
"416 860 CURVE SMOOTH",
"596 860 OFFCURVE",
"690 742 OFFCURVE"
);
}
);
width = 999;
}
);
unicode = 0067;
},
{
glyphname = "gamma-latin";
layers = (
{
anchors = (
{
name = L;
position = "{504, -600}";
},
{
name = U;
position = "{504, 1050}";
}
);
hints = (
{
horizontal = 1;
origin = "{0, 0}";
type = Tag;
name = hr00;
}
);
layerId = "5E936A5D-BBF2-432C-9FBC-FBC71ABAF060";
name = Regular;
paths = (
{
closed = 1;
nodes = (
"989 887 CURVE",
"989 930 LINE",
"655 930 LINE",
"655 887 LINE",
"754 872 OFFCURVE",
"778 858 OFFCURVE",
"760 819 CURVE",
"525 340 LINE",
"301 819 LINE",
"283 860 OFFCURVE",
"303 874 OFFCURVE",
"406 887 CURVE",
"406 930 LINE",
"20 930 LINE",
"20 887 LINE",
"86 872 OFFCURVE",
"117 854 OFFCURVE",
"131 819 CURVE",
"438 160 LINE",
"364 9 LINE SMOOTH",
"287 -149 OFFCURVE",
"268 -217 OFFCURVE",
"268 -284 CURVE SMOOTH",
"268 -414 OFFCURVE",
"365 -500 OFFCURVE",
"483 -500 CURVE SMOOTH",
"662 -500 OFFCURVE",
"740 -333 OFFCURVE",
"740 -235 CURVE SMOOTH",
"740 -126 OFFCURVE",
"711 -54 OFFCURVE",
"635 107 CURVE SMOOTH",
"581 220 LINE",
"879 819 LINE SMOOTH",
"897 856 OFFCURVE",
"909 868 OFFCURVE"
);
},
{
closed = 1;
nodes = (
"517 -9 LINE",
"587 -166 OFFCURVE",
"602 -207 OFFCURVE",
"602 -282 CURVE SMOOTH",
"602 -343 OFFCURVE",
"547 -395 OFFCURVE",
"496 -395 CURVE SMOOTH",
"444 -395 OFFCURVE",
"379 -363 OFFCURVE",
"379 -251 CURVE SMOOTH",
"379 -207 OFFCURVE",
"403 -140 OFFCURVE",
"493 42 CURVE"
);
}
);
width = 1010;
}
);
unicode = 0263;
},
{
glyphname = glottalstop;
layers = (
{
anchors = (
{
name = L;
position = "{455, -100}";
},
{
name = R;
position = "{890, 900}";
},
{
name = U;
position = "{455, 1690}";
}
);
hints = (
{
horizontal = 1;
origin = "{0, 4}";
type = Tag;
name = hr01;
},
{
horizontal = 1;
origin = "{0, 8}";
type = Tag;
name = hr02;
},
{
horizontal = 1;
origin = "{0, 11}";
type = Tag;
name = hr03;
},
{
horizontal = 1;
origin = "{0, 14}";
type = Tag;
name = hr04;
},
{
horizontal = 1;
origin = "{0, 27}";
type = Tag;
name = hr05;
},
{
horizontal = 1;
origin = "{0, 30}";
type = Tag;
name = hr06;
},
{
horizontal = 1;
origin = "{0, 33}";
type = Tag;
name = hr07;
},
{
horizontal = 1;
origin = "{0, 38}";
type = Tag;
name = hr08;
}
);
layerId = "5E936A5D-BBF2-432C-9FBC-FBC71ABAF060";
name = Regular;
paths = (
{
closed = 1;
nodes = (
"690 0 LINE",
"690 43 LINE",
"581 61 OFFCURVE",
"520 84 OFFCURVE",
"520 104 CURVE SMOOTH",
"520 555 LINE SMOOTH",
"520 830 OFFCURVE",
"850 918 OFFCURVE",
"850 1215 CURVE SMOOTH",
"850 1402 OFFCURVE",
"718 1550 OFFCURVE",
"512 1550 CURVE SMOOTH",
"279 1550 OFFCURVE",
"60 1391 OFFCURVE",
"60 1203 CURVE SMOOTH",
"60 1193 OFFCURVE",
"60 1180 OFFCURVE",
"62 1170 CURVE",
"89 1140 LINE",
"148 1146 OFFCURVE",
"193 1156 OFFCURVE",
"236 1178 CURVE",
"230 1197 OFFCURVE",
"224 1217 OFFCURVE",
"224 1236 CURVE SMOOTH",
"224 1340 OFFCURVE",
"328 1455 OFFCURVE",
"434 1455 CURVE SMOOTH",
"583 1455 OFFCURVE",
"700 1334 OFFCURVE",
"700 1170 CURVE SMOOTH",
"700 940 OFFCURVE",
"370 805 OFFCURVE",
"370 496 CURVE SMOOTH",
"370 104 LINE SMOOTH",
"370 82 OFFCURVE",
"315 63 OFFCURVE",
"200 43 CURVE",
"200 0 LINE"
);
}
);
width = 890;
}
);
unicode = 0294;
},
{
glyphname = glottalstopsmall;
layers = (
{
anchors = (
{
name = L;
position = "{395, -100}";
},
{
name = U;
position = "{395, 1050}";
}
);
layerId = "5E936A5D-BBF2-432C-9FBC-FBC71ABAF060";
name = Regular;
paths = (
{
closed = 1;
nodes = (
"640 0 LINE",
"640 43 LINE",
"531 61 OFFCURVE",
"470 84 OFFCURVE",
"470 104 CURVE SMOOTH",
"470 305 LINE SMOOTH",
"470 500 OFFCURVE",
"740 498 OFFCURVE",
"740 715 CURVE SMOOTH",
"740 852 OFFCURVE",
"628 960 OFFCURVE",
"462 960 CURVE SMOOTH",
"269 960 OFFCURVE",
"70 841 OFFCURVE",
"70 673 CURVE SMOOTH",
"70 663 OFFCURVE",
"70 650 OFFCURVE",
"72 640 CURVE",
"99 610 LINE",
"158 616 OFFCURVE",
"203 626 OFFCURVE",
"246 648 CURVE",
"240 667 OFFCURVE",
"234 687 OFFCURVE",
"234 706 CURVE SMOOTH",
"234 790 OFFCURVE",
"288 865 OFFCURVE",
"384 865 CURVE SMOOTH",
"493 865 OFFCURVE",
"590 794 OFFCURVE",
"590 670 CURVE SMOOTH",
"590 510 OFFCURVE",
"320 495 OFFCURVE",
"320 266 CURVE SMOOTH",
"320 104 LINE SMOOTH",
"320 82 OFFCURVE",
"265 63 OFFCURVE",
"150 43 CURVE",
"150 0 LINE"
);
}
);
width = 820;
}
);
unicode = 0242;
},
{
glyphname = h;
layers = (
{
anchors = (
{
name = H;
position = "{257, 0}";
},
{
name = L;
position = "{577, -100}";
},
{
name = U;
position = "{577, 1620}";
}
);
hints = (
{
horizontal = 1;
origin = "{0, 0}";
type = Tag;
name = hr00;
}
);
layerId = "5E936A5D-BBF2-432C-9FBC-FBC71ABAF060";
name = Regular;
paths = (
{
closed = 1;
nodes = (
"1100 0 LINE",
"1100 43 LINE",
"995 70 OFFCURVE",
"960 86 OFFCURVE",
"960 104 CURVE SMOOTH",
"960 741 LINE SMOOTH",
"960 891 OFFCURVE",
"854 960 OFFCURVE",
"739 960 CURVE SMOOTH",
"635 960 OFFCURVE",
"460 854 OFFCURVE",
"345 684 CURVE",
"345 1516 LINE",
"308 1550 LINE",
"232 1511 OFFCURVE",
"168 1491 OFFCURVE",
"55 1470 CURVE",
"55 1430 LINE",
"184 1415 OFFCURVE",
"195 1409 OFFCURVE",
"195 1298 CURVE SMOOTH",
"195 104 LINE SMOOTH",
"195 82 OFFCURVE",
"143 66 OFFCURVE",
"55 43 CURVE",
"55 0 LINE",
"485 0 LINE",
"485 43 LINE",
"399 61 OFFCURVE",
"345 84 OFFCURVE",
"345 104 CURVE SMOOTH",
"345 549 LINE",
"460 735 OFFCURVE",
"590 830 OFFCURVE",
"682 830 CURVE SMOOTH",
"770 830 OFFCURVE",
"810 795 OFFCURVE",
"810 633 CURVE SMOOTH",
"810 104 LINE SMOOTH",
"810 86 OFFCURVE",
"766 68 OFFCURVE",
"670 43 CURVE",
"670 0 LINE"
);
}
);
width = 1130;
}
);
unicode = 0068;
},
{
glyphname = i;
layers = (
{
anchors = (
{
name = H;
position = "{285, 0}";
},
{
name = L;
position = "{285, -100}";
},
{
name = O;
position = "{335, 0}";
},
{
name = R;
position = "{555, 900}";
},
{
name = U;
position = "{285, 1050}";
}
);
hints = (
{
horizontal = 1;
origin = "{1, 4}";
type = Tag;
name = hr01;
}
);
layerId = "5E936A5D-BBF2-432C-9FBC-FBC71ABAF060";
name = Regular;
paths = (
{
closed = 1;
nodes = (
"390 1261 CURVE",
"390 1323 OFFCURVE",
"362 1356 OFFCURVE",
"305 1356 CURVE SMOOTH",
"242 1356 OFFCURVE",
"190 1296 OFFCURVE",
"190 1220 CURVE SMOOTH",
"190 1159 OFFCURVE",
"215 1124 OFFCURVE",
"274 1124 CURVE SMOOTH",
"340 1124 OFFCURVE",
"390 1186 OFFCURVE"
);
},
{
closed = 1;
nodes = (
"500 0 LINE",
"500 43 LINE",
"403 61 OFFCURVE",
"360 88 OFFCURVE",
"360 104 CURVE SMOOTH",
"360 960 LINE",
"326 960 LINE",
"258 927 OFFCURVE",
"154 896 OFFCURVE",
"70 880 CURVE",
"70 840 LINE",
"211 827 OFFCURVE",
"210 807 OFFCURVE",
"210 670 CURVE SMOOTH",
"210 104 LINE SMOOTH",
"210 86 OFFCURVE",
"160 61 OFFCURVE",
"70 43 CURVE",
"70 0 LINE"
);
}
);
width = 555;
}
);
unicode = 0069;
},
{
glyphname = idotless;
layers = (
{
anchors = (
{
name = H;
position = "{285, 0}";
},
{
name = L;
position = "{285, -100}";
},
{
name = O;
position = "{335, 0}";
},
{
name = R;
position = "{555, 900}";
},
{
name = U;
position = "{285, 1050}";
}
);
hints = (
{
horizontal = 1;
origin = "{0, 5}";
type = Tag;
name = hr01;
}
);
layerId = "5E936A5D-BBF2-432C-9FBC-FBC71ABAF060";
name = Regular;
paths = (
{
closed = 1;
nodes = (
"500 0 LINE",
"500 43 LINE",
"403 61 OFFCURVE",
"360 88 OFFCURVE",
"360 104 CURVE SMOOTH",
"360 960 LINE",
"326 960 LINE",
"258 927 OFFCURVE",
"154 896 OFFCURVE",
"70 880 CURVE",
"70 840 LINE",
"211 827 OFFCURVE",
"210 807 OFFCURVE",
"210 670 CURVE SMOOTH",
"210 104 LINE SMOOTH",
"210 86 OFFCURVE",
"160 61 OFFCURVE",
"70 43 CURVE",
"70 0 LINE"
);
}
);
width = 555;
}
);
unicode = 0131;
},
{
glyphname = "iota-latin";
layers = (
{
anchors = (
{
name = H;
position = "{275, 0}";
},
{
name = L;
position = "{265, -100}";
},
{
name = O;
position = "{340, 0}";
},
{
name = R;
position = "{578, 900}";
},
{
name = U;
position = "{265, 1050}";
}
);
hints = (
{
horizontal = 1;
origin = "{0, 0}";
type = Tag;
name = hr00;
}
);
layerId = "5E936A5D-BBF2-432C-9FBC-FBC71ABAF060";
name = Regular;
paths = (
{
closed = 1;
nodes = (
"598 135 CURVE",
"582 186 LINE",
"496 125 OFFCURVE",
"428 106 OFFCURVE",
"414 106 CURVE SMOOTH",
"354 106 OFFCURVE",
"340 123 OFFCURVE",
"340 303 CURVE SMOOTH",
"340 960 LINE",
"305 960 LINE",
"240 927 OFFCURVE",
"133 896 OFFCURVE",
"49 880 CURVE",
"49 840 LINE",
"193 827 OFFCURVE",
"190 807 OFFCURVE",
"190 670 CURVE SMOOTH",
"190 203 LINE SMOOTH",
"190 43 OFFCURVE",
"213 -30 OFFCURVE",
"313 -30 CURVE SMOOTH",
"365 -30 OFFCURVE",
"463 6 OFFCURVE"
);
}
);
width = 578;
}
);
unicode = 0269;
},
{
glyphname = istroke;
layers = (
{
anchors = (
{
name = H;
position = "{285, 0}";
},
{
name = L;
position = "{284, -100}";
},
{
name = O;
position = "{335, 0}";
},
{
name = R;
position = "{555, 900}";
},
{
name = U;
position = "{284, 1050}";
}
);
hints = (
{
horizontal = 1;
origin = "{0, 0}";
type = Tag;
name = hr00;
}
);
layerId = "5E936A5D-BBF2-432C-9FBC-FBC71ABAF060";
name = Regular;
paths = (
{
closed = 1;
nodes = (
"500 0 LINE",
"500 43 LINE",
"403 61 OFFCURVE",
"360 88 OFFCURVE",
"360 104 CURVE SMOOTH",
"360 415 LINE",
"500 415 LINE",
"522 480 LINE",
"500 505 LINE",
"360 505 LINE",
"360 960 LINE",
"326 960 LINE",
"258 927 OFFCURVE",
"154 896 OFFCURVE",
"70 880 CURVE",
"70 840 LINE",
"211 827 OFFCURVE",
"210 807 OFFCURVE",
"210 670 CURVE SMOOTH",
"210 505 LINE",
"70 505 LINE",
"59 484 OFFCURVE",
"53 458 OFFCURVE",
"47 437 CURVE",
"70 415 LINE",
"210 415 LINE",
"210 104 LINE SMOOTH",
"210 86 OFFCURVE",
"160 61 OFFCURVE",
"70 43 CURVE",
"70 0 LINE"
);
},
{
closed = 1;
nodes = (
"390 1261 CURVE SMOOTH",
"390 1323 OFFCURVE",
"362 1356 OFFCURVE",
"305 1356 CURVE SMOOTH",
"242 1356 OFFCURVE",
"190 1296 OFFCURVE",
"190 1220 CURVE SMOOTH",
"190 1159 OFFCURVE",
"215 1124 OFFCURVE",
"274 1124 CURVE SMOOTH",
"340 1124 OFFCURVE",
"390 1186 OFFCURVE"
);
}
);
width = 555;
}
);
unicode = 0268;
},
{
glyphname = j;
layers = (
{
anchors = (
{
name = L;
position = "{280, -600}";
},
{
name = U;
position = "{281, 1050}";
}
);
hints = (
{
horizontal = 1;
origin = "{1, 0}";
type = Tag;
name = hr01;
}
);
layerId = "5E936A5D-BBF2-432C-9FBC-FBC71ABAF060";
name = Regular;
paths = (
{
closed = 1;
nodes = (
"385 1261 CURVE",
"385 1323 OFFCURVE",
"357 1356 OFFCURVE",
"300 1356 CURVE SMOOTH",
"236 1356 OFFCURVE",
"185 1296 OFFCURVE",
"185 1220 CURVE SMOOTH",
"185 1159 OFFCURVE",
"210 1124 OFFCURVE",
"270 1124 CURVE SMOOTH",
"335 1124 OFFCURVE",
"385 1186 OFFCURVE"
);
},
{
closed = 1;
nodes = (
"355 99 CURVE",
"355 960 LINE",
"318 960 LINE",
"234 925 OFFCURVE",
"176 900 OFFCURVE",
"65 880 CURVE",
"65 840 LINE",
"204 825 OFFCURVE",
"205 807 OFFCURVE",
"205 670 CURVE SMOOTH",
"205 43 LINE SMOOTH",
"205 -280 OFFCURVE",
"122 -365 OFFCURVE",
"45 -365 CURVE SMOOTH",
"-5 -365 OFFCURVE",
"-50 -357 OFFCURVE",
"-93 -320 CURVE",
"-132 -338 OFFCURVE",
"-220 -408 OFFCURVE",
"-220 -431 CURVE SMOOTH",
"-220 -453 OFFCURVE",
"-136 -500 OFFCURVE",
"-54 -500 CURVE SMOOTH",
"-3 -500 OFFCURVE",
"94 -457 OFFCURVE",
"165 -400 CURVE SMOOTH",
"272 -314 OFFCURVE",
"355 -208 OFFCURVE"
);
}
);
width = 530;
}
);
unicode = 006A;
},
{
glyphname = k;
layers = (
{
anchors = (
{
name = H;
position = "{275, 0}";
},
{
name = L;
position = "{539, -100}";
},
{
name = R;
position = "{1024, 900}";
},
{
name = U;
position = "{539, 1620}";
}
);
hints = (
{
horizontal = 1;
origin = "{0, 0}";
type = Tag;
name = hr00;
}
);
layerId = "5E936A5D-BBF2-432C-9FBC-FBC71ABAF060";
name = Regular;
paths = (
{
closed = 1;
nodes = (
"455 0 LINE",
"455 43 LINE",
"356 74 OFFCURVE",
"345 84 OFFCURVE",
"345 104 CURVE SMOOTH",
"345 522 LINE",
"725 43 LINE",
"754 4 OFFCURVE",
"784 -10 OFFCURVE",
"840 -10 CURVE SMOOTH",
"868 -10 OFFCURVE",
"946 0 OFFCURVE",
"1024 18 CURVE",
"1018 61 LINE",
"940 55 OFFCURVE",
"901 68 OFFCURVE",
"864 111 CURVE SMOOTH",
"488 552 LINE",
"829 825 LINE SMOOTH",
"885 870 OFFCURVE",
"930 881 OFFCURVE",
"989 887 CURVE",
"989 930 LINE",
"610 930 LINE",
"610 887 LINE",
"680 887 OFFCURVE",
"741 877 OFFCURVE",
"653 799 CURVE SMOOTH",
"345 530 LINE",
"345 1516 LINE",
"308 1550 LINE",
"241 1511 OFFCURVE",
"147 1489 OFFCURVE",
"55 1470 CURVE",
"55 1430 LINE",
"170 1417 OFFCURVE",
"195 1419 OFFCURVE",
"195 1296 CURVE SMOOTH",
"195 104 LINE SMOOTH",
"195 80 OFFCURVE",
"143 66 OFFCURVE",
"55 43 CURVE",
"55 0 LINE"
);
}
);
width = 1024;
}
);
unicode = 006B;
},
{
glyphname = khook;
layers = (
{
anchors = (
{
name = L;
position = "{539, -100}";
},
{
name = U;
position = "{539, 1690}";
}
);
hints = (
{
horizontal = 1;
origin = "{0, 0}";
type = Tag;
name = hr00;
}
);
layerId = "5E936A5D-BBF2-432C-9FBC-FBC71ABAF060";
name = Regular;
paths = (
{
closed = 1;
nodes = (
"1024 18 CURVE",
"1018 61 LINE",
"940 55 OFFCURVE",
"901 68 OFFCURVE",
"864 111 CURVE SMOOTH",
"488 552 LINE",
"829 825 LINE SMOOTH",
"885 870 OFFCURVE",
"930 881 OFFCURVE",
"989 887 CURVE",
"989 930 LINE",
"610 930 LINE",
"610 887 LINE",
"680 887 OFFCURVE",
"741 877 OFFCURVE",
"653 799 CURVE SMOOTH",
"345 530 LINE",
"345 936 LINE SMOOTH",
"345 1317 OFFCURVE",
"482 1425 OFFCURVE",
"567 1425 CURVE SMOOTH",
"649 1425 OFFCURVE",
"721 1380 OFFCURVE",
"782 1311 CURVE",
"821 1328 OFFCURVE",
"909 1400 OFFCURVE",
"909 1421 CURVE SMOOTH",
"909 1446 OFFCURVE",
"786 1550 OFFCURVE",
"677 1550 CURVE SMOOTH",
"623 1550 OFFCURVE",
"514 1521 OFFCURVE",
"436 1459 CURVE SMOOTH",
"290 1343 OFFCURVE",
"198 1216 OFFCURVE",
"195 896 CURVE",
"195 104 LINE SMOOTH",
"195 80 OFFCURVE",
"143 66 OFFCURVE",
"55 43 CURVE",
"55 0 LINE",
"455 0 LINE",
"455 43 LINE",
"356 74 OFFCURVE",
"345 84 OFFCURVE",
"345 104 CURVE SMOOTH",
"345 522 LINE",
"725 43 LINE",
"754 4 OFFCURVE",
"784 -10 OFFCURVE",
"840 -10 CURVE SMOOTH",
"868 -10 OFFCURVE",
"946 0 OFFCURVE"
);
}
);
width = 1024;
}
);
unicode = 0199;
},
{
glyphname = l;
layers = (
{
anchors = (
{
name = H;
position = "{285, 0}";
},
{
name = L;
position = "{285, -100}";
},
{
name = R;
position = "{535, 900}";
},
{
name = U;
position = "{285, 1690}";
}
);
hints = (
{
horizontal = 1;
origin = "{0, 0}";
type = Tag;
name = hr00;
}
);
layerId = "5E936A5D-BBF2-432C-9FBC-FBC71ABAF060";
name = Regular;
paths = (
{
closed = 1;
nodes = (
"510 0 LINE",
"510 43 LINE",
"401 61 OFFCURVE",
"360 84 OFFCURVE",
"360 104 CURVE SMOOTH",
"360 1516 LINE",
"324 1550 LINE",
"242 1507 OFFCURVE",
"166 1489 OFFCURVE",
"70 1470 CURVE",
"70 1430 LINE",
"182 1417 OFFCURVE",
"210 1417 OFFCURVE",
"210 1296 CURVE SMOOTH",
"210 104 LINE SMOOTH",
"210 82 OFFCURVE",
"175 63 OFFCURVE",
"60 43 CURVE",
"60 0 LINE"
);
}
);
width = 555;
}
);
unicode = 006C;
},
{
glyphname = lbar;
layers = (
{
anchors = (
{
name = L;
position = "{327, -100}";
},
{
name = U;
position = "{327, 1690}";
}
);
hints = (
{
horizontal = 1;
origin = "{0, 0}";
type = Tag;
name = hr00;
}
);
layerId = "5E936A5D-BBF2-432C-9FBC-FBC71ABAF060";
name = Regular;
paths = (
{
closed = 1;
nodes = (
"584 805 LINE",
"562 830 LINE",
"402 830 LINE",
"402 1516 LINE",
"366 1550 LINE",
"284 1507 OFFCURVE",
"208 1489 OFFCURVE",
"112 1470 CURVE",
"112 1430 LINE",
"224 1417 OFFCURVE",
"252 1417 OFFCURVE",
"252 1296 CURVE SMOOTH",
"252 830 LINE",
"92 830 LINE",
"82 809 OFFCURVE",
"76 783 OFFCURVE",
"70 762 CURVE",
"92 740 LINE",
"252 740 LINE",
"252 104 LINE SMOOTH",
"252 82 OFFCURVE",
"217 63 OFFCURVE",
"102 43 CURVE",
"102 0 LINE",
"552 0 LINE",
"552 43 LINE",
"443 61 OFFCURVE",
"402 84 OFFCURVE",
"402 104 CURVE SMOOTH",
"402 740 LINE",
"562 740 LINE"
);
}
);
width = 654;
}
);
unicode = 019A;
},
{
glyphname = ldoublebar;
layers = (
{
anchors = (
{
name = L;
position = "{327, -100}";
},
{
name = U;
position = "{327, 1690}";
}
);
hints = (
{
horizontal = 1;
origin = "{0, 0}";
type = Tag;
name = hr00;
}
);
layerId = "5E936A5D-BBF2-432C-9FBC-FBC71ABAF060";
name = Regular;
paths = (
{
closed = 1;
nodes = (
"584 705 LINE",
"562 730 LINE",
"402 730 LINE",
"402 840 LINE",
"562 840 LINE",
"584 905 LINE",
"562 930 LINE",
"402 930 LINE",
"402 1516 LINE",
"366 1550 LINE",
"284 1507 OFFCURVE",
"208 1489 OFFCURVE",
"112 1470 CURVE",
"112 1430 LINE",
"224 1417 OFFCURVE",
"252 1417 OFFCURVE",
"252 1296 CURVE SMOOTH",
"252 930 LINE",
"92 930 LINE",
"82 909 OFFCURVE",
"76 883 OFFCURVE",
"70 862 CURVE",
"92 840 LINE",
"252 840 LINE",
"252 730 LINE",
"92 730 LINE",
"82 709 OFFCURVE",
"76 683 OFFCURVE",
"70 662 CURVE",
"92 640 LINE",
"252 640 LINE",
"252 104 LINE SMOOTH",
"252 82 OFFCURVE",
"217 63 OFFCURVE",
"102 43 CURVE",
"102 0 LINE",
"552 0 LINE",
"552 43 LINE",
"443 61 OFFCURVE",
"402 84 OFFCURVE",
"402 104 CURVE SMOOTH",
"402 640 LINE",
"562 640 LINE"
);
}
);
width = 654;
}
);
unicode = 2C61;
},
{
glyphname = lmiddletilde;
layers = (
{
anchors = (
{
name = L;
position = "{341, -100}";
},
{
name = U;
position = "{341, 1690}";
}
);
hints = (
{
horizontal = 1;
origin = "{0, 0}";
type = Tag;
name = hr00;
}
);
layerId = "5E936A5D-BBF2-432C-9FBC-FBC71ABAF060";
name = Regular;
paths = (
{
closed = 1;
nodes = (
"682 891 CURVE",
"628 914 LINE",
"583 836 OFFCURVE",
"534 791 OFFCURVE",
"483 791 CURVE SMOOTH",
"462 791 OFFCURVE",
"440 802 OFFCURVE",
"416 818 CURVE",
"416 1516 LINE",
"380 1550 LINE",
"298 1507 OFFCURVE",
"222 1489 OFFCURVE",
"126 1470 CURVE",
"126 1430 LINE",
"238 1417 OFFCURVE",
"266 1417 OFFCURVE",
"266 1296 CURVE SMOOTH",
"266 901 LINE",
"257 903 OFFCURVE",
"248 904 OFFCURVE",
"239 904 CURVE SMOOTH",
"135 904 OFFCURVE",
"47 787 OFFCURVE",
"0 678 CURVE",
"53 658 LINE",
"102 732 OFFCURVE",
"143 779 OFFCURVE",
"196 779 CURVE SMOOTH",
"219 779 OFFCURVE",
"242 768 OFFCURVE",
"266 754 CURVE",
"266 104 LINE SMOOTH",
"266 82 OFFCURVE",
"231 63 OFFCURVE",
"116 43 CURVE",
"116 0 LINE",
"566 0 LINE",
"566 43 LINE",
"457 61 OFFCURVE",
"416 84 OFFCURVE",
"416 104 CURVE SMOOTH",
"416 669 LINE",
"424 667 OFFCURVE",
"433 666 OFFCURVE",
"442 666 CURVE SMOOTH",
"546 666 OFFCURVE",
"635 783 OFFCURVE"
);
}
);
width = 682;
}
);
unicode = 026B;
},
{
glyphname = lslash;
layers = (
{
anchors = (
{
name = L;
position = "{294, -100}";
},
{
name = U;
position = "{294, 1690}";
}
);
hints = (
{
horizontal = 1;
origin = "{0, 0}";
type = Tag;
name = hr00;
}
);
layerId = "5E936A5D-BBF2-432C-9FBC-FBC71ABAF060";
name = Regular;
paths = (
{
closed = 1;
nodes = (
"520 0 LINE",
"520 43 LINE",
"411 61 OFFCURVE",
"370 84 OFFCURVE",
"370 104 CURVE SMOOTH",
"370 782 LINE",
"511 882 LINE",
"529 928 OFFCURVE",
"532 928 OFFCURVE",
"540 973 CURVE",
"517 989 LINE",
"370 886 LINE",
"370 1516 LINE",
"334 1550 LINE",
"252 1507 OFFCURVE",
"176 1489 OFFCURVE",
"80 1470 CURVE",
"80 1430 LINE",
"192 1417 OFFCURVE",
"220 1417 OFFCURVE",
"220 1296 CURVE SMOOTH",
"220 782 LINE",
"82 686 LINE",
"61 629 OFFCURVE",
"60 629 OFFCURVE",
"54 594 CURVE",
"78 577 LINE",
"220 677 LINE",
"220 104 LINE SMOOTH",
"220 82 OFFCURVE",
"185 63 OFFCURVE",
"70 43 CURVE",
"70 0 LINE"
);
}
);
width = 575;
}
);
unicode = 0142;
},
{
glyphname = m;
layers = (
{
anchors = (
{
name = H;
position = "{1400, 0}";
},
{
name = L;
position = "{835, -100}";
},
{
name = U;
position = "{835, 1050}";
}
);
hints = (
{
horizontal = 1;
origin = "{0, 0}";
type = Tag;
name = hr00;
}
);
layerId = "5E936A5D-BBF2-432C-9FBC-FBC71ABAF060";
name = Regular;
paths = (
{
closed = 1;
nodes = (
"1616 0 LINE",
"1616 43 LINE",
"1511 70 OFFCURVE",
"1475 86 OFFCURVE",
"1475 104 CURVE SMOOTH",
"1475 741 LINE SMOOTH",
"1475 891 OFFCURVE",
"1380 960 OFFCURVE",
"1253 960 CURVE SMOOTH",
"1155 960 OFFCURVE",
"1022 871 OFFCURVE",
"910 704 CURVE",
"910 725 LINE SMOOTH",
"910 903 OFFCURVE",
"815 960 OFFCURVE",
"688 960 CURVE SMOOTH",
"592 960 OFFCURVE",
"460 873 OFFCURVE",
"341 696 CURVE",
"330 925 LINE",
"295 960 LINE",
"223 925 OFFCURVE",
"156 896 OFFCURVE",
"55 880 CURVE",
"55 840 LINE",
"184 825 OFFCURVE",
"195 817 OFFCURVE",
"195 711 CURVE SMOOTH",
"195 104 LINE SMOOTH",
"195 82 OFFCURVE",
"143 66 OFFCURVE",
"55 43 CURVE",
"55 0 LINE",
"485 0 LINE",
"485 43 LINE",
"399 61 OFFCURVE",
"345 84 OFFCURVE",
"345 104 CURVE SMOOTH",
"345 573 LINE",
"458 741 OFFCURVE",
"557 840 OFFCURVE",
"647 840 CURVE SMOOTH",
"729 840 OFFCURVE",
"760 797 OFFCURVE",
"760 633 CURVE SMOOTH",
"760 104 LINE SMOOTH",
"760 86 OFFCURVE",
"717 68 OFFCURVE",
"621 43 CURVE",
"621 0 LINE",
"1051 0 LINE",
"1051 43 LINE",
"946 70 OFFCURVE",
"910 86 OFFCURVE",
"910 104 CURVE SMOOTH",
"910 573 LINE",
"1011 739 OFFCURVE",
"1124 840 OFFCURVE",
"1212 840 CURVE SMOOTH",
"1292 840 OFFCURVE",
"1325 797 OFFCURVE",
"1325 633 CURVE SMOOTH",
"1325 104 LINE SMOOTH",
"1325 86 OFFCURVE",
"1282 68 OFFCURVE",
"1186 43 CURVE",
"1186 0 LINE"
);
}
);
width = 1645;
}
);
unicode = 006D;
},
{
glyphname = n;
layers = (
{
anchors = (
{
name = H;
position = "{885, 0}";
},
{
name = L;
position = "{577, -100}";
},
{
name = U;
position = "{577, 1050}";
}
);
hints = (
{
horizontal = 1;
origin = "{0, 34}";
type = Tag;
name = hr01;
}
);
layerId = "5E936A5D-BBF2-432C-9FBC-FBC71ABAF060";
name = Regular;
paths = (
{
closed = 1;
nodes = (
"1100 0 LINE",
"1100 43 LINE",
"995 70 OFFCURVE",
"960 86 OFFCURVE",
"960 104 CURVE SMOOTH",
"960 741 LINE SMOOTH",
"960 891 OFFCURVE",
"854 960 OFFCURVE",
"739 960 CURVE SMOOTH",
"635 960 OFFCURVE",
"458 854 OFFCURVE",
"341 676 CURVE",
"330 925 LINE",
"295 960 LINE",
"221 923 OFFCURVE",
"145 894 OFFCURVE",
"55 880 CURVE",
"55 840 LINE",
"190 825 OFFCURVE",
"195 815 OFFCURVE",
"195 711 CURVE SMOOTH",
"195 104 LINE SMOOTH",
"195 82 OFFCURVE",
"143 66 OFFCURVE",
"55 43 CURVE",
"55 0 LINE",
"485 0 LINE",
"485 43 LINE",
"399 61 OFFCURVE",
"345 84 OFFCURVE",
"345 104 CURVE SMOOTH",
"345 549 LINE",
"474 756 OFFCURVE",
"600 830 OFFCURVE",
"682 830 CURVE SMOOTH",
"776 830 OFFCURVE",
"810 795 OFFCURVE",
"810 633 CURVE SMOOTH",
"810 104 LINE SMOOTH",
"810 86 OFFCURVE",
"766 68 OFFCURVE",
"670 43 CURVE",
"670 0 LINE"
);
}
);
width = 1130;
}
);
unicode = 006E;
},
{
glyphname = eng;
layers = (
{
anchors = (
{
name = L;
position = "{582, -600}";
},
{
name = U;
position = "{583, 1050}";
}
);
guideLines = (
{
angle = 90;
position = "{582, 0}";
}
);
hints = (
{
horizontal = 1;
origin = "{0, 0}";
type = Tag;
name = hr00;
}
);
layerId = "5E936A5D-BBF2-432C-9FBC-FBC71ABAF060";
name = Regular;
paths = (
{
closed = 1;
nodes = (
"960 88 CURVE",
"960 741 LINE SMOOTH",
"960 891 OFFCURVE",
"854 960 OFFCURVE",
"739 960 CURVE SMOOTH",
"635 960 OFFCURVE",
"457 854 OFFCURVE",
"340 676 CURVE",
"330 926 LINE",
"295 961 LINE",
"221 924 OFFCURVE",
"145 895 OFFCURVE",
"55 881 CURVE",
"55 840 LINE",
"190 825 OFFCURVE",
"195 815 OFFCURVE",
"195 711 CURVE SMOOTH",
"195 104 LINE SMOOTH",
"195 82 OFFCURVE",
"143 66 OFFCURVE",
"55 43 CURVE",
"55 0 LINE",
"485 0 LINE",
"485 43 LINE",
"399 61 OFFCURVE",
"344 84 OFFCURVE",
"344 104 CURVE SMOOTH",
"344 549 LINE",
"473 756 OFFCURVE",
"600 829 OFFCURVE",
"682 829 CURVE SMOOTH",
"776 829 OFFCURVE",
"810 795 OFFCURVE",
"810 633 CURVE SMOOTH",
"810 35 LINE SMOOTH",
"810 -295 OFFCURVE",
"688 -380 OFFCURVE",
"613 -380 CURVE SMOOTH",
"572 -380 OFFCURVE",
"480 -361 OFFCURVE",
"403 -290 CURVE",
"365 -309 OFFCURVE",
"274 -378 OFFCURVE",
"274 -401 CURVE SMOOTH",
"274 -440 OFFCURVE",
"412 -500 OFFCURVE",
"502 -500 CURVE SMOOTH",
"553 -500 OFFCURVE",
"674 -467 OFFCURVE",
"745 -407 CURVE SMOOTH",
"852 -321 OFFCURVE",
"960 -225 OFFCURVE"
);
}
);
width = 1120;
}
);
unicode = 014B;
userData = {
com.typemytype.robofont.guides = (
{
angle = 90;
isGlobal = 0;
x = 582;
y = 0;
}
);
};
},
{
glyphname = nhookleft;
layers = (
{
anchors = (
{
name = L;
position = "{567, -600}";
},
{
name = U;
position = "{567, 1050}";
}
);
hints = (
{
horizontal = 1;
origin = "{0, 0}";
type = Tag;
name = hr00;
}
);
layerId = "5E936A5D-BBF2-432C-9FBC-FBC71ABAF060";
name = Regular;
paths = (
{
closed = 1;
nodes = (
"1090 0 LINE",
"1090 43 LINE",
"985 70 OFFCURVE",
"950 86 OFFCURVE",
"950 104 CURVE SMOOTH",
"950 741 LINE SMOOTH",
"950 891 OFFCURVE",
"844 960 OFFCURVE",
"729 960 CURVE SMOOTH",
"625 960 OFFCURVE",
"445 854 OFFCURVE",
"329 676 CURVE",
"319 925 LINE",
"285 960 LINE",
"213 923 OFFCURVE",
"135 894 OFFCURVE",
"45 880 CURVE",
"45 840 LINE",
"180 825 OFFCURVE",
"185 815 OFFCURVE",
"185 711 CURVE SMOOTH",
"185 35 LINE SMOOTH",
"185 -295 OFFCURVE",
"96 -365 OFFCURVE",
"19 -365 CURVE SMOOTH",
"-13 -365 OFFCURVE",
"-61 -365 OFFCURVE",
"-113 -320 CURVE",
"-151 -338 OFFCURVE",
"-240 -409 OFFCURVE",
"-240 -431 CURVE SMOOTH",
"-240 -457 OFFCURVE",
"-147 -500 OFFCURVE",
"-92 -500 CURVE SMOOTH",
"-41 -500 OFFCURVE",
"66 -467 OFFCURVE",
"135 -407 CURVE",
"242 -321 OFFCURVE",
"335 -225 OFFCURVE",
"335 88 CURVE SMOOTH",
"335 549 LINE",
"462 756 OFFCURVE",
"592 830 OFFCURVE",
"672 830 CURVE SMOOTH",
"768 830 OFFCURVE",
"800 795 OFFCURVE",
"800 633 CURVE SMOOTH",
"800 104 LINE SMOOTH",
"800 86 OFFCURVE",
"757 68 OFFCURVE",
"660 43 CURVE",
"660 0 LINE"
);
}
);
width = 1120;
}
);
unicode = 0272;
},
{
glyphname = o;
layers = (
{
anchors = (
{
name = H;
position = "{535, 0}";
},
{
name = L;
position = "{535, -100}";
},
{
name = O;
position = "{575, 0}";
},
{
name = R;
position = "{1030, 900}";
},
{
name = U;
position = "{535, 1050}";
}
);
hints = (
{
horizontal = 1;
origin = "{0, 0}";
type = Tag;
name = hr00;
}
);
layerId = "5E936A5D-BBF2-432C-9FBC-FBC71ABAF060";
name = Regular;
paths = (
{
closed = 1;
nodes = (
"950 485 CURVE",
"950 758 OFFCURVE",
"786 960 OFFCURVE",
"535 960 CURVE SMOOTH",
"285 960 OFFCURVE",
"80 709 OFFCURVE",
"80 444 CURVE SMOOTH",
"80 172 OFFCURVE",
"244 -30 OFFCURVE",
"496 -30 CURVE SMOOTH",
"739 -30 OFFCURVE",
"950 219 OFFCURVE"
);
},
{
closed = 1;
nodes = (
"795 455 CURVE",
"795 227 OFFCURVE",
"713 80 OFFCURVE",
"524 80 CURVE SMOOTH",
"401 80 OFFCURVE",
"235 262 OFFCURVE",
"235 473 CURVE SMOOTH",
"235 686 OFFCURVE",
"303 850 OFFCURVE",
"506 850 CURVE SMOOTH",
"643 850 OFFCURVE",
"795 666 OFFCURVE"
);
}
);
width = 1030;
}
);
unicode = 006F;
},
{
glyphname = obarred;
layers = (
{
anchors = (
{
name = L;
position = "{525, -100}";
},
{
name = R;
position = "{1030, 900}";
},
{
name = U;
position = "{525, 1050}";
}
);
hints = (
{
horizontal = 1;
origin = "{0, 0}";
type = Tag;
name = hr00;
}
);
layerId = "5E936A5D-BBF2-432C-9FBC-FBC71ABAF060";
name = Regular;
paths = (
{
closed = 1;
nodes = (
"950 485 CURVE SMOOTH",
"950 758 OFFCURVE",
"786 960 OFFCURVE",
"535 960 CURVE SMOOTH",
"285 960 OFFCURVE",
"80 709 OFFCURVE",
"80 444 CURVE SMOOTH",
"80 172 OFFCURVE",
"244 -30 OFFCURVE",
"496 -30 CURVE SMOOTH",
"739 -30 OFFCURVE",
"950 219 OFFCURVE"
);
},
{
closed = 1;
nodes = (
"793 505 CURVE",
"235 505 LINE",
"242 702 OFFCURVE",
"313 850 OFFCURVE",
"506 850 CURVE SMOOTH",
"632 850 OFFCURVE",
"771 694 OFFCURVE"
);
},
{
closed = 1;
nodes = (
"795 415 LINE",
"785 210 OFFCURVE",
"701 80 OFFCURVE",
"524 80 CURVE SMOOTH",
"412 80 OFFCURVE",
"266 229 OFFCURVE",
"239 415 CURVE"
);
}
);
width = 1030;
}
);
unicode = 0275;
},
{
glyphname = ohorn;
layers = (
{
anchors = (
{
name = L;
position = "{535, -100}";
},
{
name = U;
position = "{535, 1050}";
}
);
hints = (
{
horizontal = 1;
origin = "{0, 0}";
type = Tag;
name = hr00;
}
);
layerId = "5E936A5D-BBF2-432C-9FBC-FBC71ABAF060";
name = Regular;
paths = (
{
closed = 1;
nodes = (
"1100 1042 CURVE SMOOTH",
"1100 1081 OFFCURVE",
"1079 1116 OFFCURVE",
"1048 1145 CURVE",
"870 1065 LINE",
"907 1034 OFFCURVE",
"928 999 OFFCURVE",
"928 961 CURVE SMOOTH",
"928 928 OFFCURVE",
"898 880 OFFCURVE",
"829 833 CURVE",
"757 913 OFFCURVE",
"656 960 OFFCURVE",
"535 960 CURVE SMOOTH",
"285 960 OFFCURVE",
"80 709 OFFCURVE",
"80 444 CURVE SMOOTH",
"80 172 OFFCURVE",
"244 -30 OFFCURVE",
"496 -30 CURVE SMOOTH",
"739 -30 OFFCURVE",
"950 219 OFFCURVE",
"950 485 CURVE SMOOTH",
"950 597 OFFCURVE",
"922 698 OFFCURVE",
"871 777 CURVE",
"1048 874 OFFCURVE",
"1100 979 OFFCURVE"
);
},
{
closed = 1;
nodes = (
"795 455 CURVE SMOOTH",
"795 227 OFFCURVE",
"713 80 OFFCURVE",
"524 80 CURVE SMOOTH",
"401 80 OFFCURVE",
"235 262 OFFCURVE",
"235 473 CURVE SMOOTH",
"235 686 OFFCURVE",
"303 850 OFFCURVE",
"506 850 CURVE SMOOTH",
"643 850 OFFCURVE",
"795 666 OFFCURVE"
);
}
);
width = 1100;
}
);
unicode = 01A1;
},
{
glyphname = oopen;
layers = (
{
anchors = (
{
name = H;
position = "{420, 0}";
},
{
name = L;
position = "{455, -100}";
},
{
name = O;
position = "{470, 0}";
},
{
name = R;
position = "{925, 900}";
},
{
name = U;
position = "{455, 1050}";
}
);
hints = (
{
horizontal = 1;
origin = "{0, 3}";
type = Tag;
name = hr01;
},
{
horizontal = 1;
origin = "{0, 15}";
type = Tag;
name = hr02;
}
);
layerId = "5E936A5D-BBF2-432C-9FBC-FBC71ABAF060";
name = Regular;
paths = (
{
closed = 1;
nodes = (
"845 485 CURVE",
"845 782 OFFCURVE",
"659 960 OFFCURVE",
"465 960 CURVE SMOOTH",
"342 960 OFFCURVE",
"236 926 OFFCURVE",
"74 754 CURVE",
"80 743 OFFCURVE",
"96 719 OFFCURVE",
"113 711 CURVE",
"250 809 OFFCURVE",
"317 825 OFFCURVE",
"393 825 CURVE SMOOTH",
"553 825 OFFCURVE",
"695 682 OFFCURVE",
"695 455 CURVE SMOOTH",
"695 205 OFFCURVE",
"590 75 OFFCURVE",
"440 75 CURVE SMOOTH",
"336 75 OFFCURVE",
"236 170 OFFCURVE",
"236 262 CURVE SMOOTH",
"236 319 OFFCURVE",
"252 344 OFFCURVE",
"289 379 CURVE",
"268 426 LINE",
"217 416 OFFCURVE",
"156 395 OFFCURVE",
"106 379 CURVE",
"78 350 OFFCURVE",
"66 311 OFFCURVE",
"66 268 CURVE SMOOTH",
"66 94 OFFCURVE",
"209 -30 OFFCURVE",
"399 -30 CURVE SMOOTH",
"647 -30 OFFCURVE",
"845 199 OFFCURVE"
);
}
);
width = 925;
}
);
unicode = 0254;
},
{
glyphname = oslash;
layers = (
{
anchors = (
{
name = H;
position = "{535, 0}";
},
{
name = L;
position = "{525, -100}";
},
{
name = O;
position = "{575, 0}";
},
{
name = R;
position = "{1030, 900}";
},
{
name = U;
position = "{525, 1050}";
}
);
hints = (
{
horizontal = 1;
origin = "{0, 0}";
type = Tag;
name = hr00;
}
);
layerId = "5E936A5D-BBF2-432C-9FBC-FBC71ABAF060";
name = Regular;
paths = (
{
closed = 1;
nodes = (
"915 983 LINE",
"877 973 OFFCURVE",
"829 936 OFFCURVE",
"793 913 CURVE",
"772 885 LINE",
"707 933 OFFCURVE",
"627 960 OFFCURVE",
"535 960 CURVE SMOOTH",
"285 960 OFFCURVE",
"80 709 OFFCURVE",
"80 444 CURVE SMOOTH",
"80 311 OFFCURVE",
"119 196 OFFCURVE",
"188 112 CURVE",
"88 -20 LINE",
"117 -53 LINE",
"150 -43 OFFCURVE",
"217 -2 OFFCURVE",
"242 18 CURVE",
"261 43 LINE",
"325 -3 OFFCURVE",
"405 -30 OFFCURVE",
"496 -30 CURVE SMOOTH",
"739 -30 OFFCURVE",
"950 219 OFFCURVE",
"950 485 CURVE SMOOTH",
"950 616 OFFCURVE",
"912 731 OFFCURVE",
"844 815 CURVE",
"946 950 LINE"
);
},
{
closed = 1;
nodes = (
"233 473 CURVE SMOOTH",
"233 686 OFFCURVE",
"303 850 OFFCURVE",
"506 850 CURVE SMOOTH",
"564 850 OFFCURVE",
"626 816 OFFCURVE",
"678 761 CURVE",
"294 253 LINE",
"257 316 OFFCURVE",
"233 392 OFFCURVE"
);
},
{
closed = 1;
nodes = (
"797 455 CURVE SMOOTH",
"797 227 OFFCURVE",
"713 80 OFFCURVE",
"524 80 CURVE SMOOTH",
"471 80 OFFCURVE",
"409 114 OFFCURVE",
"356 169 CURVE",
"739 676 LINE",
"774 612 OFFCURVE",
"797 535 OFFCURVE"
);
}
);
width = 1030;
}
);
unicode = 00F8;
},
{
glyphname = oe;
layers = (
{
anchors = (
{
name = H;
position = "{1170, 0}";
},
{
name = L;
position = "{812, -100}";
},
{
name = O;
position = "{1230, 0}";
},
{
name = R;
position = "{1624, 900}";
},
{
name = U;
position = "{812, 1050}";
}
);
hints = (
{
horizontal = 1;
origin = "{0, 0}";
type = Tag;
name = hr00;
}
);
layerId = "5E936A5D-BBF2-432C-9FBC-FBC71ABAF060";
name = Regular;
paths = (
{
closed = 1;
nodes = (
"1544 557 CURVE",
"1544 727 OFFCURVE",
"1460 960 OFFCURVE",
"1212 960 CURVE SMOOTH",
"1151 960 OFFCURVE",
"1055 921 OFFCURVE",
"995 880 CURVE SMOOTH",
"945 846 OFFCURVE",
"902 801 OFFCURVE",
"869 751 CURVE",
"801 878 OFFCURVE",
"680 960 OFFCURVE",
"535 960 CURVE SMOOTH",
"293 960 OFFCURVE",
"80 709 OFFCURVE",
"80 444 CURVE SMOOTH",
"80 172 OFFCURVE",
"248 -30 OFFCURVE",
"475 -30 CURVE SMOOTH",
"613 -30 OFFCURVE",
"745 58 OFFCURVE",
"831 184 CURVE",
"899 49 OFFCURVE",
"1021 -30 OFFCURVE",
"1153 -30 CURVE SMOOTH",
"1278 -30 OFFCURVE",
"1360 0 OFFCURVE",
"1536 195 CURVE",
"1530 205 OFFCURVE",
"1516 227 OFFCURVE",
"1499 236 CURVE",
"1350 113 OFFCURVE",
"1288 102 OFFCURVE",
"1214 102 CURVE SMOOTH",
"1042 102 OFFCURVE",
"933 282 OFFCURVE",
"930 489 CURVE",
"1432 489 LINE",
"1475 506 OFFCURVE",
"1518 530 OFFCURVE"
);
},
{
closed = 1;
nodes = (
"776 455 CURVE SMOOTH",
"776 242 OFFCURVE",
"678 80 OFFCURVE",
"535 80 CURVE SMOOTH",
"391 80 OFFCURVE",
"233 262 OFFCURVE",
"233 473 CURVE SMOOTH",
"233 686 OFFCURVE",
"332 850 OFFCURVE",
"475 850 CURVE SMOOTH",
"627 850 OFFCURVE",
"776 668 OFFCURVE"
);
},
{
closed = 1;
nodes = (
"1184 856 CURVE SMOOTH",
"1346 856 OFFCURVE",
"1378 688 OFFCURVE",
"1378 616 CURVE SMOOTH",
"1378 588 OFFCURVE",
"1368 580 OFFCURVE",
"1339 580 CURVE SMOOTH",
"936 580 LINE",
"960 742 OFFCURVE",
"1055 856 OFFCURVE"
);
}
);
width = 1624;
}
);
unicode = 0153;
},
{
glyphname = p;
layers = (
{
anchors = (
{
name = H;
position = "{625, -470}";
},
{
name = L;
position = "{529, -600}";
},
{
name = R;
position = "{1085, 900}";
},
{
name = U;
position = "{529, 1050}";
}
);
hints = (
{
horizontal = 1;
origin = "{0, 0}";
type = Tag;
name = hr00;
}
);
layerId = "5E936A5D-BBF2-432C-9FBC-FBC71ABAF060";
name = Regular;
paths = (
{
closed = 1;
nodes = (
"1005 492 CURVE",
"1005 784 OFFCURVE",
"872 960 OFFCURVE",
"690 960 CURVE SMOOTH",
"614 960 OFFCURVE",
"472 887 OFFCURVE",
"339 727 CURVE",
"330 925 LINE",
"295 960 LINE",
"217 923 OFFCURVE",
"147 900 OFFCURVE",
"55 880 CURVE",
"55 840 LINE",
"182 834 OFFCURVE",
"195 811 OFFCURVE",
"195 711 CURVE SMOOTH",
"195 -375 LINE SMOOTH",
"195 -398 OFFCURVE",
"143 -416 OFFCURVE",
"55 -437 CURVE",
"55 -480 LINE",
"514 -480 LINE",
"514 -437 LINE",
"389 -418 OFFCURVE",
"345 -396 OFFCURVE",
"345 -375 CURVE SMOOTH",
"345 98 LINE",
"439 16 OFFCURVE",
"545 -30 OFFCURVE",
"623 -30 CURVE SMOOTH",
"818 -30 OFFCURVE",
"1005 260 OFFCURVE"
);
},
{
closed = 1;
nodes = (
"870 426 CURVE",
"870 213 OFFCURVE",
"764 100 OFFCURVE",
"621 100 CURVE SMOOTH",
"549 100 OFFCURVE",
"464 123 OFFCURVE",
"345 213 CURVE",
"345 610 LINE",
"462 782 OFFCURVE",
"575 835 OFFCURVE",
"623 835 CURVE SMOOTH",
"752 835 OFFCURVE",
"870 659 OFFCURVE"
);
}
);
width = 1085;
}
);
unicode = 0070;
},
{
glyphname = thorn;
layers = (
{
anchors = (
{
name = L;
position = "{530, -600}";
},
{
name = U;
position = "{530, 1690}";
}
);
hints = (
{
horizontal = 1;
origin = "{0, 0}";
type = Tag;
name = hr00;
}
);
layerId = "5E936A5D-BBF2-432C-9FBC-FBC71ABAF060";
name = Regular;
paths = (
{
closed = 1;
nodes = (
"1005 492 CURVE",
"1005 784 OFFCURVE",
"872 960 OFFCURVE",
"690 960 CURVE SMOOTH",
"614 960 OFFCURVE",
"482 895 OFFCURVE",
"345 733 CURVE",
"345 1516 LINE",
"308 1550 LINE",
"228 1507 OFFCURVE",
"150 1489 OFFCURVE",
"55 1470 CURVE",
"55 1430 LINE",
"168 1417 OFFCURVE",
"195 1417 OFFCURVE",
"195 1296 CURVE SMOOTH",
"195 -375 LINE SMOOTH",
"195 -398 OFFCURVE",
"143 -416 OFFCURVE",
"55 -437 CURVE",
"55 -480 LINE",
"515 -480 LINE",
"515 -437 LINE",
"390 -418 OFFCURVE",
"345 -396 OFFCURVE",
"345 -375 CURVE SMOOTH",
"345 74 LINE",
"439 -2 OFFCURVE",
"530 -30 OFFCURVE",
"573 -30 CURVE SMOOTH",
"813 -30 OFFCURVE",
"1005 260 OFFCURVE"
);
},
{
closed = 1;
nodes = (
"870 408 CURVE",
"870 248 OFFCURVE",
"782 90 OFFCURVE",
"631 90 CURVE SMOOTH",
"539 90 OFFCURVE",
"447 133 OFFCURVE",
"345 213 CURVE",
"345 610 LINE",
"462 782 OFFCURVE",
"575 835 OFFCURVE",
"623 835 CURVE SMOOTH",
"752 835 OFFCURVE",
"870 672 OFFCURVE"
);
}
);
width = 1085;
}
);
unicode = 00FE;
},
{
glyphname = q;
layers = (
{
anchors = (
{
name = L;
position = "{557, -600}";
},
{
name = R;
position = "{1055, 900}";
},
{
name = U;
position = "{557, 1050}";
}
);
hints = (
{
horizontal = 1;
origin = "{0, 0}";
type = Tag;
name = hr00;
}
);
layerId = "5E936A5D-BBF2-432C-9FBC-FBC71ABAF060";
name = Regular;
paths = (
{
closed = 1;
nodes = (
"1034 -480 LINE",
"1034 -437 LINE",
"932 -418 OFFCURVE",
"895 -396 OFFCURVE",
"895 -375 CURVE SMOOTH",
"895 717 LINE SMOOTH",
"895 838 OFFCURVE",
"926 930 OFFCURVE",
"926 930 CURVE",
"895 960 LINE",
"870 935 OFFCURVE",
"822 892 OFFCURVE",
"782 867 CURVE",
"692 946 OFFCURVE",
"623 960 OFFCURVE",
"551 960 CURVE SMOOTH",
"500 960 OFFCURVE",
"420 936 OFFCURVE",
"344 895 CURVE",
"250 842 OFFCURVE",
"80 678 OFFCURVE",
"80 444 CURVE SMOOTH",
"80 147 OFFCURVE",
"268 -30 OFFCURVE",
"416 -30 CURVE SMOOTH",
"552 -30 OFFCURVE",
"643 44 OFFCURVE",
"745 166 CURVE",
"745 -375 LINE SMOOTH",
"745 -398 OFFCURVE",
"700 -418 OFFCURVE",
"575 -437 CURVE",
"575 -480 LINE"
);
},
{
closed = 1;
nodes = (
"487 100 CURVE SMOOTH",
"377 100 OFFCURVE",
"230 248 OFFCURVE",
"230 475 CURVE SMOOTH",
"230 725 OFFCURVE",
"371 850 OFFCURVE",
"520 850 CURVE SMOOTH",
"615 850 OFFCURVE",
"701 806 OFFCURVE",
"745 730 CURVE",
"745 261 LINE",
"662 180 OFFCURVE",
"578 100 OFFCURVE"
);
}
);
width = 1055;
}
);
unicode = 0071;
},
{
glyphname = qhook;
layers = (
{
anchors = (
{
name = L;
position = "{557, -600}";
},
{
name = U;
position = "{557, 1690}";
}
);
hints = (
{
horizontal = 1;
origin = "{0, 0}";
type = Tag;
name = hr00;
}
);
layerId = "5E936A5D-BBF2-432C-9FBC-FBC71ABAF060";
name = Regular;
paths = (
{
closed = 1;
nodes = (
"1292 1423 CURVE SMOOTH",
"1292 1448 OFFCURVE",
"1210 1550 OFFCURVE",
"1094 1550 CURVE SMOOTH",
"1042 1550 OFFCURVE",
"961 1518 OFFCURVE",
"893 1458 CURVE",
"788 1368 OFFCURVE",
"745 1278 OFFCURVE",
"745 1051 CURVE SMOOTH",
"745 897 LINE",
"673 950 OFFCURVE",
"613 960 OFFCURVE",
"551 960 CURVE SMOOTH",
"500 960 OFFCURVE",
"420 936 OFFCURVE",
"344 895 CURVE",
"250 842 OFFCURVE",
"80 678 OFFCURVE",
"80 444 CURVE SMOOTH",
"80 147 OFFCURVE",
"268 -30 OFFCURVE",
"416 -30 CURVE SMOOTH",
"552 -30 OFFCURVE",
"643 44 OFFCURVE",
"745 166 CURVE",
"745 -375 LINE SMOOTH",
"745 -398 OFFCURVE",
"700 -418 OFFCURVE",
"575 -437 CURVE",
"575 -480 LINE",
"1034 -480 LINE",
"1034 -437 LINE",
"932 -418 OFFCURVE",
"895 -396 OFFCURVE",
"895 -375 CURVE SMOOTH",
"895 1106 LINE SMOOTH",
"895 1348 OFFCURVE",
"932 1427 OFFCURVE",
"1016 1427 CURVE SMOOTH",
"1053 1427 OFFCURVE",
"1110 1407 OFFCURVE",
"1165 1315 CURVE",
"1204 1333 OFFCURVE",
"1292 1401 OFFCURVE"
);
},
{
closed = 1;
nodes = (
"745 261 LINE",
"662 180 OFFCURVE",
"578 100 OFFCURVE",
"487 100 CURVE SMOOTH",
"377 100 OFFCURVE",
"230 248 OFFCURVE",
"230 475 CURVE SMOOTH",
"230 725 OFFCURVE",
"371 850 OFFCURVE",
"520 850 CURVE SMOOTH",
"615 850 OFFCURVE",
"701 806 OFFCURVE",
"745 730 CURVE"
);
}
);
width = 1055;
}
);
unicode = 02A0;
},
{
glyphname = qhooktail;
layers = (
{
anchors = (
{
name = L;
position = "{557, -600}";
},
{
name = U;
position = "{557, 1050}";
}
);
layerId = "5E936A5D-BBF2-432C-9FBC-FBC71ABAF060";
name = Regular;
paths = (
{
closed = 1;
nodes = (
"745 -227 LINE",
"745 -371 OFFCURVE",
"786 -500 OFFCURVE",
"948 -500 CURVE SMOOTH",
"1140 -500 OFFCURVE",
"1304 -346 OFFCURVE",
"1304 -237 CURVE",
"1284 -196 LINE",
"1246 -193 OFFCURVE",
"1140 -234 OFFCURVE",
"1117 -262 CURVE",
"1125 -274 OFFCURVE",
"1129 -289 OFFCURVE",
"1129 -303 CURVE SMOOTH",
"1129 -353 OFFCURVE",
"1083 -405 OFFCURVE",
"1022 -405 CURVE SMOOTH",
"926 -405 OFFCURVE",
"895 -319 OFFCURVE",
"895 -166 CURVE SMOOTH",
"895 717 LINE SMOOTH",
"895 838 OFFCURVE",
"926 930 OFFCURVE",
"926 930 CURVE",
"895 960 LINE",
"870 935 OFFCURVE",
"822 892 OFFCURVE",
"782 867 CURVE",
"692 946 OFFCURVE",
"623 960 OFFCURVE",
"551 960 CURVE SMOOTH",
"500 960 OFFCURVE",
"420 937 OFFCURVE",
"344 895 CURVE SMOOTH",
"250 843 OFFCURVE",
"80 678 OFFCURVE",
"80 444 CURVE SMOOTH",
"80 147 OFFCURVE",
"268 -30 OFFCURVE",
"416 -30 CURVE SMOOTH",
"552 -30 OFFCURVE",
"643 44 OFFCURVE",
"745 166 CURVE"
);
},
{
closed = 1;
nodes = (
"487 100 CURVE SMOOTH",
"377 100 OFFCURVE",
"230 248 OFFCURVE",
"230 475 CURVE SMOOTH",
"230 725 OFFCURVE",
"371 850 OFFCURVE",
"520 850 CURVE SMOOTH",
"615 850 OFFCURVE",
"701 806 OFFCURVE",
"745 730 CURVE",
"745 261 LINE",
"662 180 OFFCURVE",
"578 100 OFFCURVE"
);
}
);
width = 1054;
}
);
unicode = 024B;
},
{
glyphname = r;
layers = (
{
anchors = (
{
name = H;
position = "{270, 0}";
},
{
name = L;
position = "{270, -100}";
},
{
name = U;
position = "{450, 1050}";
}
);
hints = (
{
horizontal = 1;
origin = "{0, 0}";
type = Tag;
name = hr00;
}
);
layerId = "5E936A5D-BBF2-432C-9FBC-FBC71ABAF060";
name = Regular;
paths = (
{
closed = 1;
nodes = (
"770 923 CURVE",
"721 951 OFFCURVE",
"670 960 OFFCURVE",
"627 960 CURVE SMOOTH",
"512 960 OFFCURVE",
"415 846 OFFCURVE",
"343 698 CURVE",
"330 925 LINE",
"295 960 LINE",
"229 923 OFFCURVE",
"141 902 OFFCURVE",
"55 880 CURVE",
"55 840 LINE",
"129 836 OFFCURVE",
"154 831 OFFCURVE",
"172 813 CURVE SMOOTH",
"184 801 OFFCURVE",
"195 774 OFFCURVE",
"195 686 CURVE SMOOTH",
"195 104 LINE SMOOTH",
"195 82 OFFCURVE",
"143 63 OFFCURVE",
"55 43 CURVE",
"55 0 LINE",
"514 0 LINE",
"514 43 LINE",
"389 61 OFFCURVE",
"345 84 OFFCURVE",
"345 104 CURVE SMOOTH",
"345 496 LINE",
"409 723 OFFCURVE",
"514 820 OFFCURVE",
"573 820 CURVE SMOOTH",
"623 820 OFFCURVE",
"668 784 OFFCURVE",
"684 676 CURVE",
"727 676 LINE",
"760 748 OFFCURVE",
"795 908 OFFCURVE"
);
}
);
width = 811;
}
);
unicode = 0072;
},
{
glyphname = s;
layers = (
{
anchors = (
{
name = H;
position = "{385, 0}";
},
{
name = L;
position = "{397, -100}";
},
{
name = U;
position = "{397, 1050}";
}
);
hints = (
{
horizontal = 1;
origin = "{0, 0}";
type = Tag;
name = hr00;
}
);
layerId = "5E936A5D-BBF2-432C-9FBC-FBC71ABAF060";
name = Regular;
paths = (
{
closed = 1;
nodes = (
"700 283 CURVE",
"700 432 OFFCURVE",
"571 500 OFFCURVE",
"455 559 CURVE",
"344 618 OFFCURVE",
"234 664 OFFCURVE",
"234 750 CURVE SMOOTH",
"234 805 OFFCURVE",
"287 870 OFFCURVE",
"375 870 CURVE SMOOTH",
"440 870 OFFCURVE",
"512 836 OFFCURVE",
"575 741 CURVE",
"614 733 LINE",
"631 754 OFFCURVE",
"680 868 OFFCURVE",
"664 883 CURVE SMOOTH",
"610 930 OFFCURVE",
"485 960 OFFCURVE",
"401 960 CURVE SMOOTH",
"250 960 OFFCURVE",
"104 866 OFFCURVE",
"104 700 CURVE SMOOTH",
"104 573 OFFCURVE",
"211 506 OFFCURVE",
"322 449 CURVE SMOOTH",
"444 385 OFFCURVE",
"570 334 OFFCURVE",
"570 227 CURVE SMOOTH",
"570 133 OFFCURVE",
"502 70 OFFCURVE",
"406 70 CURVE SMOOTH",
"268 70 OFFCURVE",
"162 160 OFFCURVE",
"156 272 CURVE",
"113 283 LINE",
"94 223 OFFCURVE",
"88 51 OFFCURVE",
"106 43 CURVE",
"195 -6 OFFCURVE",
"293 -30 OFFCURVE",
"356 -30 CURVE SMOOTH",
"434 -30 OFFCURVE",
"700 0 OFFCURVE"
);
}
);
width = 791;
}
);
unicode = 0073;
},
{
glyphname = saltillo;
layers = (
{
hints = (
{
horizontal = 1;
origin = "{0, 0}";
type = Tag;
name = hr00;
}
);
layerId = "5E936A5D-BBF2-432C-9FBC-FBC71ABAF060";
name = Regular;
paths = (
{
closed = 1;
nodes = (
"357 1454 LINE",
"304 1480 LINE",
"276 1474 OFFCURVE",
"175 1438 OFFCURVE",
"145 1421 CURVE",
"208 633 LINE",
"239 633 OFFCURVE",
"284 643 OFFCURVE",
"304 654 CURVE"
);
}
);
width = 502;
}
);
unicode = A78C;
},
{
glyphname = germandbls;
layers = (
{
anchors = (
{
name = L;
position = "{561, -100}";
},
{
name = U;
position = "{561, 1690}";
}
);
hints = (
{
horizontal = 1;
origin = "{0, 0}";
type = Tag;
name = hr00;
}
);
layerId = "5E936A5D-BBF2-432C-9FBC-FBC71ABAF060";
name = Regular;
paths = (
{
closed = 1;
nodes = (
"1067 283 CURVE",
"1067 614 OFFCURVE",
"623 596 OFFCURVE",
"623 770 CURVE SMOOTH",
"623 930 OFFCURVE",
"967 862 OFFCURVE",
"967 1190 CURVE SMOOTH",
"967 1337 OFFCURVE",
"883 1550 OFFCURVE",
"653 1550 CURVE SMOOTH",
"557 1550 OFFCURVE",
"465 1516 OFFCURVE",
"393 1458 CURVE SMOOTH",
"289 1372 OFFCURVE",
"195 1282 OFFCURVE",
"195 961 CURVE SMOOTH",
"195 102 LINE SMOOTH",
"195 86 OFFCURVE",
"145 59 OFFCURVE",
"55 43 CURVE",
"55 0 LINE",
"345 0 LINE",
"345 1016 LINE SMOOTH",
"345 1346 OFFCURVE",
"436 1425 OFFCURVE",
"565 1425 CURVE SMOOTH",
"745 1425 OFFCURVE",
"815 1257 OFFCURVE",
"815 1122 CURVE SMOOTH",
"815 930 OFFCURVE",
"483 999 OFFCURVE",
"483 729 CURVE SMOOTH",
"483 457 OFFCURVE",
"937 494 OFFCURVE",
"937 217 CURVE SMOOTH",
"937 129 OFFCURVE",
"862 70 OFFCURVE",
"768 70 CURVE SMOOTH",
"666 70 OFFCURVE",
"541 127 OFFCURVE",
"522 270 CURVE",
"483 283 LINE",
"463 256 OFFCURVE",
"457 66 OFFCURVE",
"469 47 CURVE SMOOTH",
"489 14 OFFCURVE",
"655 -30 OFFCURVE",
"729 -30 CURVE SMOOTH",
"969 -30 OFFCURVE",
"1067 127 OFFCURVE"
);
}
);
width = 1157;
}
);
unicode = 00DF;
},
{
glyphname = schwa;
layers = (
{
anchors = (
{
name = H;
position = "{460, 0}";
},
{
name = L;
position = "{460, -100}";
},
{
name = O;
position = "{490, 0}";
},
{
name = U;
position = "{460, 1050}";
}
);
hints = (
{
horizontal = 1;
origin = "{0, 0}";
type = Tag;
name = hr00;
}
);
layerId = "5E936A5D-BBF2-432C-9FBC-FBC71ABAF060";
name = Regular;
paths = (
{
closed = 1;
nodes = (
"850 485 CURVE SMOOTH",
"850 782 OFFCURVE",
"664 960 OFFCURVE",
"469 960 CURVE SMOOTH",
"346 960 OFFCURVE",
"240 926 OFFCURVE",
"78 754 CURVE",
"86 743 OFFCURVE",
"100 719 OFFCURVE",
"117 711 CURVE",
"254 809 OFFCURVE",
"324 825 OFFCURVE",
"397 825 CURVE SMOOTH",
"561 825 OFFCURVE",
"694 690 OFFCURVE",
"699 470 CURVE",
"240 470 LINE",
"193 452 OFFCURVE",
"145 428 OFFCURVE",
"106 408 CURVE",
"84 377 OFFCURVE",
"70 332 OFFCURVE",
"70 279 CURVE SMOOTH",
"70 104 OFFCURVE",
"225 -30 OFFCURVE",
"416 -30 CURVE SMOOTH",
"535 -30 OFFCURVE",
"627 8 OFFCURVE",
"702 90 CURVE SMOOTH",
"793 188 OFFCURVE",
"850 328 OFFCURVE"
);
},
{
closed = 1;
nodes = (
"444 74 CURVE SMOOTH",
"342 74 OFFCURVE",
"230 168 OFFCURVE",
"230 293 CURVE SMOOTH",
"230 346 OFFCURVE",
"256 380 OFFCURVE",
"297 380 CURVE SMOOTH",
"697 380 LINE",
"680 181 OFFCURVE",
"595 74 OFFCURVE"
);
}
);
width = 930;
}
);
unicode = 0259;
},
{
glyphname = t;
layers = (
{
anchors = (
{
name = H;
position = "{348, 0}";
},
{
name = L;
position = "{348, -100}";
},
{
name = R;
position = "{500, 900}";
},
{
name = U;
position = "{348, 1320}";
}
);
hints = (
{
horizontal = 1;
origin = "{0, 0}";
type = Tag;
name = hr00;
}
);
layerId = "5E936A5D-BBF2-432C-9FBC-FBC71ABAF060";
name = Regular;
paths = (
{
closed = 1;
nodes = (
"676 117 CURVE",
"647 168 LINE",
"543 115 OFFCURVE",
"475 100 OFFCURVE",
"428 100 CURVE SMOOTH",
"348 100 OFFCURVE",
"320 147 OFFCURVE",
"320 307 CURVE SMOOTH",
"320 835 LINE",
"372 835 LINE SMOOTH",
"480 835 OFFCURVE",
"543 816 OFFCURVE",
"575 800 CURVE",
"602 812 OFFCURVE",
"651 864 OFFCURVE",
"676 901 CURVE",
"647 930 LINE",
"320 930 LINE",
"320 1255 LINE",
"289 1280 LINE",
"170 1176 LINE",
"170 930 LINE",
"98 930 LINE",
"20 863 LINE",
"41 835 LINE",
"170 835 LINE",
"170 221 LINE SMOOTH",
"170 35 OFFCURVE",
"252 -30 OFFCURVE",
"344 -30 CURVE SMOOTH",
"414 -30 OFFCURVE",
"545 20 OFFCURVE"
);
}
);
width = 705;
}
);
unicode = 0074;
},
{
glyphname = u;
layers = (
{
anchors = (
{
name = H;
position = "{840, 0}";
},
{
name = L;
position = "{545, -100}";
},
{
name = O;
position = "{860, 0}";
},
{
name = R;
position = "{1185, 900}";
},
{
name = U;
position = "{545, 1050}";
}
);
hints = (
{
horizontal = 1;
origin = "{0, 0}";
type = Tag;
name = hr00;
}
);
layerId = "5E936A5D-BBF2-432C-9FBC-FBC71ABAF060";
name = Regular;
paths = (
{
closed = 1;
nodes = (
"1069 82 CURVE",
"1059 127 LINE",
"991 98 OFFCURVE",
"954 94 OFFCURVE",
"938 104 CURVE SMOOTH",
"920 117 OFFCURVE",
"915 172 OFFCURVE",
"915 254 CURVE SMOOTH",
"915 921 LINE",
"885 960 LINE",
"811 935 OFFCURVE",
"721 906 OFFCURVE",
"625 894 CURVE",
"625 854 LINE",
"748 848 OFFCURVE",
"765 831 OFFCURVE",
"765 711 CURVE SMOOTH",
"765 262 LINE",
"648 137 OFFCURVE",
"559 90 OFFCURVE",
"473 90 CURVE SMOOTH",
"377 90 OFFCURVE",
"320 147 OFFCURVE",
"320 334 CURVE SMOOTH",
"320 921 LINE",
"292 960 LINE",
"204 925 OFFCURVE",
"137 906 OFFCURVE",
"41 894 CURVE",
"41 854 LINE",
"164 842 OFFCURVE",
"170 838 OFFCURVE",
"170 711 CURVE SMOOTH",
"170 279 LINE SMOOTH",
"170 29 OFFCURVE",
"284 -30 OFFCURVE",
"408 -30 CURVE SMOOTH",
"493 -30 OFFCURVE",
"599 0 OFFCURVE",
"765 166 CURVE",
"773 29 OFFCURVE",
"803 -30 OFFCURVE",
"850 -30 CURVE SMOOTH",
"883 -30 OFFCURVE",
"971 18 OFFCURVE"
);
}
);
width = 1085;
}
);
unicode = 0075;
},
{
glyphname = ubar;
layers = (
{
anchors = (
{
name = H;
position = "{840, 0}";
},
{
name = L;
position = "{555, -100}";
},
{
name = O;
position = "{860, 0}";
},
{
name = R;
position = "{1085, 900}";
},
{
name = U;
position = "{555, 1050}";
}
);
hints = (
{
horizontal = 1;
origin = "{0, 0}";
type = Tag;
name = hr00;
}
);
layerId = "5E936A5D-BBF2-432C-9FBC-FBC71ABAF060";
name = Regular;
paths = (
{
closed = 1;
nodes = (
"1043 480 LINE",
"1021 505 LINE",
"915 505 LINE",
"915 921 LINE",
"885 960 LINE",
"811 935 OFFCURVE",
"721 906 OFFCURVE",
"625 894 CURVE",
"625 854 LINE",
"748 848 OFFCURVE",
"765 831 OFFCURVE",
"765 711 CURVE SMOOTH",
"765 505 LINE",
"320 505 LINE",
"320 921 LINE",
"292 960 LINE",
"204 925 OFFCURVE",
"137 906 OFFCURVE",
"41 894 CURVE",
"41 854 LINE",
"164 842 OFFCURVE",
"170 838 OFFCURVE",
"170 711 CURVE SMOOTH",
"170 505 LINE",
"64 505 LINE",
"53 484 OFFCURVE",
"47 458 OFFCURVE",
"41 437 CURVE",
"64 415 LINE",
"170 415 LINE",
"170 279 LINE SMOOTH",
"170 29 OFFCURVE",
"284 -30 OFFCURVE",
"408 -30 CURVE SMOOTH",
"493 -30 OFFCURVE",
"599 0 OFFCURVE",
"765 166 CURVE",
"773 29 OFFCURVE",
"803 -30 OFFCURVE",
"850 -30 CURVE SMOOTH",
"883 -30 OFFCURVE",
"971 18 OFFCURVE",
"1069 82 CURVE",
"1059 127 LINE",
"991 98 OFFCURVE",
"954 94 OFFCURVE",
"938 104 CURVE SMOOTH",
"920 117 OFFCURVE",
"915 172 OFFCURVE",
"915 254 CURVE SMOOTH",
"915 415 LINE",
"1021 415 LINE"
);
},
{
closed = 1;
nodes = (
"473 90 CURVE SMOOTH",
"377 90 OFFCURVE",
"320 147 OFFCURVE",
"320 334 CURVE SMOOTH",
"320 415 LINE",
"765 415 LINE",
"765 262 LINE",
"648 137 OFFCURVE",
"559 90 OFFCURVE"
);
}
);
width = 1085;
}
);
unicode = 0289;
},
{
glyphname = uhorn;
layers = (
{
anchors = (
{
name = L;
position = "{545, -100}";
},
{
name = U;
position = "{545, 1050}";
}
);
hints = (
{
horizontal = 1;
origin = "{0, 0}";
type = Tag;
name = hr00;
}
);
layerId = "5E936A5D-BBF2-432C-9FBC-FBC71ABAF060";
name = Regular;
paths = (
{
closed = 1;
nodes = (
"1255 1042 CURVE SMOOTH",
"1255 1081 OFFCURVE",
"1234 1116 OFFCURVE",
"1203 1145 CURVE",
"1025 1065 LINE",
"1062 1034 OFFCURVE",
"1083 999 OFFCURVE",
"1083 961 CURVE SMOOTH",
"1083 919 OFFCURVE",
"1034 850 OFFCURVE",
"915 794 CURVE",
"915 921 LINE",
"885 960 LINE",
"811 935 OFFCURVE",
"721 906 OFFCURVE",
"625 894 CURVE",
"625 854 LINE",
"748 848 OFFCURVE",
"765 831 OFFCURVE",
"765 711 CURVE SMOOTH",
"765 262 LINE",
"648 137 OFFCURVE",
"559 90 OFFCURVE",
"473 90 CURVE SMOOTH",
"377 90 OFFCURVE",
"320 147 OFFCURVE",
"320 334 CURVE SMOOTH",
"320 921 LINE",
"292 960 LINE",
"204 925 OFFCURVE",
"137 906 OFFCURVE",
"41 894 CURVE",
"41 854 LINE",
"164 842 OFFCURVE",
"170 838 OFFCURVE",
"170 711 CURVE SMOOTH",
"170 279 LINE SMOOTH",
"170 29 OFFCURVE",
"284 -30 OFFCURVE",
"408 -30 CURVE SMOOTH",
"493 -30 OFFCURVE",
"599 0 OFFCURVE",
"765 166 CURVE",
"773 29 OFFCURVE",
"803 -30 OFFCURVE",
"850 -30 CURVE SMOOTH",
"883 -30 OFFCURVE",
"971 18 OFFCURVE",
"1069 82 CURVE",
"1059 127 LINE",
"991 98 OFFCURVE",
"954 94 OFFCURVE",
"938 104 CURVE SMOOTH",
"920 117 OFFCURVE",
"915 172 OFFCURVE",
"915 254 CURVE SMOOTH",
"915 724 LINE",
"1183 833 OFFCURVE",
"1255 968 OFFCURVE"
);
}
);
width = 1255;
}
);
unicode = 01B0;
},
{
glyphname = "upsilon-latin";
layers = (
{
anchors = (
{
name = H;
position = "{484, 0}";
},
{
name = L;
position = "{484, -100}";
},
{
name = O;
position = "{520, 0}";
},
{
name = R;
position = "{971, 900}";
},
{
name = U;
position = "{484, 1050}";
}
);
hints = (
{
horizontal = 1;
origin = "{0, 0}";
type = Tag;
name = hr00;
}
);
layerId = "5E936A5D-BBF2-432C-9FBC-FBC71ABAF060";
name = Regular;
paths = (
{
closed = 1;
nodes = (
"910 887 CURVE",
"910 930 LINE",
"565 930 LINE",
"545 838 LINE",
"672 762 OFFCURVE",
"748 584 OFFCURVE",
"748 383 CURVE SMOOTH",
"748 248 OFFCURVE",
"670 80 OFFCURVE",
"514 80 CURVE SMOOTH",
"360 80 OFFCURVE",
"225 250 OFFCURVE",
"225 428 CURVE SMOOTH",
"225 627 OFFCURVE",
"297 741 OFFCURVE",
"424 838 CURVE",
"406 930 LINE",
"60 930 LINE",
"60 887 LINE",
"60 887 OFFCURVE",
"287 836 OFFCURVE",
"240 793 CURVE SMOOTH",
"117 682 OFFCURVE",
"75 549 OFFCURVE",
"75 399 CURVE SMOOTH",
"75 174 OFFCURVE",
"190 -30 OFFCURVE",
"465 -30 CURVE SMOOTH",
"739 -30 OFFCURVE",
"883 246 OFFCURVE",
"883 434 CURVE SMOOTH",
"883 569 OFFCURVE",
"844 690 OFFCURVE",
"727 793 CURVE SMOOTH",
"682 834 OFFCURVE",
"910 887 OFFCURVE"
);
}
);
width = 971;
}
);
unicode = 028A;
},
{
glyphname = v;
layers = (
{
anchors = (
{
name = H;
position = "{516, 0}";
},
{
name = L;
position = "{516, -100}";
},
{
name = O;
position = "{460, 0}";
},
{
name = U;
position = "{536, 1050}";
}
);
hints = (
{
horizontal = 1;
origin = "{0, 0}";
type = Tag;
name = hr00;
}
);
layerId = "5E936A5D-BBF2-432C-9FBC-FBC71ABAF060";
name = Regular;
paths = (
{
closed = 1;
nodes = (
"989 887 CURVE",
"989 930 LINE",
"666 930 LINE",
"666 887 LINE",
"764 872 OFFCURVE",
"784 860 OFFCURVE",
"770 819 CURVE SMOOTH",
"539 178 LINE",
"293 819 LINE SMOOTH",
"276 862 OFFCURVE",
"303 874 OFFCURVE",
"406 887 CURVE",
"406 930 LINE",
"20 930 LINE",
"20 887 LINE",
"86 872 OFFCURVE",
"119 856 OFFCURVE",
"131 819 CURVE",
"461 -30 LINE",
"496 -22 OFFCURVE",
"573 0 OFFCURVE",
"596 59 CURVE SMOOTH",
"879 819 LINE SMOOTH",
"893 858 OFFCURVE",
"909 868 OFFCURVE"
);
}
);
width = 1010;
}
);
unicode = 0076;
},
{
glyphname = vturned;
layers = (
{
anchors = (
{
name = H;
position = "{800, 0}";
},
{
name = L;
position = "{504, -100}";
},
{
name = O;
position = "{720, 0}";
},
{
name = R;
position = "{1010, 900}";
},
{
name = U;
position = "{504, 1050}";
}
);
hints = (
{
horizontal = 1;
origin = "{0, 0}";
type = Tag;
name = hr00;
}
);
layerId = "5E936A5D-BBF2-432C-9FBC-FBC71ABAF060";
name = Regular;
paths = (
{
closed = 1;
nodes = (
"20 43 CURVE",
"20 0 LINE",
"343 0 LINE",
"343 43 LINE",
"245 58 OFFCURVE",
"225 70 OFFCURVE",
"239 111 CURVE SMOOTH",
"470 752 LINE",
"716 111 LINE SMOOTH",
"733 68 OFFCURVE",
"706 56 OFFCURVE",
"603 43 CURVE",
"603 0 LINE",
"989 0 LINE",
"989 43 LINE",
"923 58 OFFCURVE",
"890 74 OFFCURVE",
"878 111 CURVE",
"548 960 LINE",
"513 952 OFFCURVE",
"436 930 OFFCURVE",
"413 871 CURVE SMOOTH",
"130 111 LINE SMOOTH",
"116 72 OFFCURVE",
"100 62 OFFCURVE"
);
}
);
width = 1010;
}
);
unicode = 028C;
},
{
glyphname = w;
layers = (
{
anchors = (
{
name = L;
position = "{730, -100}";
},
{
name = U;
position = "{750, 1050}";
}
);
hints = (
{
horizontal = 1;
origin = "{0, 0}";
type = Tag;
name = hr00;
}
);
layerId = "5E936A5D-BBF2-432C-9FBC-FBC71ABAF060";
name = Regular;
paths = (
{
closed = 1;
nodes = (
"1425 887 CURVE",
"1425 930 LINE",
"1100 930 LINE",
"1100 887 LINE",
"1192 872 OFFCURVE",
"1225 856 OFFCURVE",
"1217 825 CURVE SMOOTH",
"1044 190 LINE",
"784 930 LINE",
"715 930 LINE",
"469 190 LINE",
"281 825 LINE",
"272 850 OFFCURVE",
"276 874 OFFCURVE",
"406 887 CURVE",
"406 930 LINE",
"20 930 LINE",
"20 887 LINE",
"86 872 OFFCURVE",
"123 850 OFFCURVE",
"129 825 CURVE",
"391 -30 LINE",
"426 -22 OFFCURVE",
"504 -2 OFFCURVE",
"524 59 CURVE",
"729 648 LINE",
"967 -30 LINE",
"1001 -22 OFFCURVE",
"1087 0 OFFCURVE",
"1104 59 CURVE SMOOTH",
"1325 825 LINE",
"1333 856 OFFCURVE",
"1343 868 OFFCURVE"
);
}
);
width = 1446;
}
);
unicode = 0077;
},
{
glyphname = x;
layers = (
{
anchors = (
{
name = H;
position = "{800, 0}";
},
{
name = L;
position = "{518, -100}";
},
{
name = U;
position = "{518, 1050}";
}
);
hints = (
{
horizontal = 1;
origin = "{0, 0}";
type = Tag;
name = hr00;
}
);
layerId = "5E936A5D-BBF2-432C-9FBC-FBC71ABAF060";
name = Regular;
paths = (
{
closed = 1;
nodes = (
"1016 0 LINE",
"1016 43 LINE",
"928 55 OFFCURVE",
"887 98 OFFCURVE",
"856 137 CURVE",
"589 502 LINE",
"799 797 LINE SMOOTH",
"834 846 OFFCURVE",
"887 879 OFFCURVE",
"995 887 CURVE",
"995 930 LINE",
"614 930 LINE",
"614 887 LINE",
"696 879 OFFCURVE",
"735 864 OFFCURVE",
"688 799 CURVE",
"534 577 LINE",
"373 799 LINE",
"326 862 OFFCURVE",
"369 879 OFFCURVE",
"451 887 CURVE",
"451 930 LINE",
"31 930 LINE",
"31 887 LINE",
"139 879 OFFCURVE",
"166 846 OFFCURVE",
"201 797 CURVE SMOOTH",
"436 475 LINE",
"193 137 LINE SMOOTH",
"164 96 OFFCURVE",
"127 59 OFFCURVE",
"20 43 CURVE",
"20 0 LINE",
"399 0 LINE",
"399 43 LINE",
"336 49 OFFCURVE",
"250 59 OFFCURVE",
"301 131 CURVE SMOOTH",
"490 400 LINE",
"688 131 LINE SMOOTH",
"741 59 OFFCURVE",
"680 49 OFFCURVE",
"614 43 CURVE",
"614 0 LINE"
);
}
);
width = 1030;
}
);
unicode = 0078;
},
{
glyphname = y;
layers = (
{
anchors = (
{
name = L;
position = "{770, -100}";
},
{
name = R;
position = "{1010, 900}";
},
{
name = U;
position = "{530, 1050}";
}
);
hints = (
{
horizontal = 1;
origin = "{0, 0}";
type = Tag;
name = hr00;
}
);
layerId = "5E936A5D-BBF2-432C-9FBC-FBC71ABAF060";
name = Regular;
paths = (
{
closed = 1;
nodes = (
"989 887 CURVE",
"989 930 LINE",
"655 930 LINE",
"655 887 LINE",
"754 872 OFFCURVE",
"784 860 OFFCURVE",
"770 819 CURVE",
"539 182 LINE",
"293 819 LINE",
"276 862 OFFCURVE",
"303 874 OFFCURVE",
"406 887 CURVE",
"406 930 LINE",
"20 930 LINE",
"20 887 LINE",
"86 872 OFFCURVE",
"119 856 OFFCURVE",
"131 819 CURVE",
"459 -23 LINE",
"430 -92 LINE SMOOTH",
"383 -207 OFFCURVE",
"299 -314 OFFCURVE",
"250 -330 CURVE",
"201 -349 OFFCURVE",
"133 -349 OFFCURVE",
"70 -312 CURVE SMOOTH",
"27 -338 OFFCURVE",
"-47 -431 OFFCURVE",
"-47 -447 CURVE SMOOTH",
"-47 -472 OFFCURVE",
"25 -500 OFFCURVE",
"127 -500 CURVE SMOOTH",
"260 -500 OFFCURVE",
"434 -377 OFFCURVE",
"545 -82 CURVE SMOOTH",
"879 819 LINE",
"893 858 OFFCURVE",
"909 868 OFFCURVE"
);
}
);
width = 1010;
}
);
unicode = 0079;
},
{
glyphname = yhook;
layers = (
{
anchors = (
{
name = L;
position = "{770, -100}";
},
{
name = U;
position = "{530, 1050}";
}
);
hints = (
{
horizontal = 1;
origin = "{0, 0}";
type = Tag;
name = hr00;
}
);
layerId = "5E936A5D-BBF2-432C-9FBC-FBC71ABAF060";
name = Regular;
paths = (
{
closed = 1;
nodes = (
"406 930 LINE",
"20 930 LINE",
"20 887 LINE",
"86 872 OFFCURVE",
"119 856 OFFCURVE",
"131 819 CURVE",
"460 -29 LINE",
"437 -91 LINE SMOOTH",
"377 -250 OFFCURVE",
"276 -345 OFFCURVE",
"194 -345 CURVE SMOOTH",
"165 -345 OFFCURVE",
"122 -346 OFFCURVE",
"70 -313 CURVE",
"18 -346 OFFCURVE",
"-47 -429 OFFCURVE",
"-47 -448 CURVE SMOOTH",
"-47 -472 OFFCURVE",
"34 -500 OFFCURVE",
"115 -500 CURVE SMOOTH",
"245 -500 OFFCURVE",
"424 -411 OFFCURVE",
"541 -93 CURVE SMOOTH",
"903 882 LINE SMOOTH",
"962 1041 OFFCURVE",
"1058 1133 OFFCURVE",
"1140 1133 CURVE SMOOTH",
"1169 1133 OFFCURVE",
"1212 1136 OFFCURVE",
"1264 1103 CURVE",
"1316 1136 OFFCURVE",
"1381 1219 OFFCURVE",
"1381 1238 CURVE SMOOTH",
"1381 1262 OFFCURVE",
"1300 1290 OFFCURVE",
"1219 1290 CURVE SMOOTH",
"1089 1290 OFFCURVE",
"910 1202 OFFCURVE",
"793 884 CURVE SMOOTH",
"539 182 LINE",
"293 819 LINE SMOOTH",
"276 862 OFFCURVE",
"303 874 OFFCURVE",
"406 887 CURVE"
);
}
);
width = 1010;
}
);
unicode = 01B4;
},
{
glyphname = z;
layers = (
{
anchors = (
{
name = H;
position = "{750, 0}";
},
{
name = L;
position = "{452, -100}";
},
{
name = U;
position = "{480, 1050}";
}
);
hints = (
{
horizontal = 1;
origin = "{0, 11}";
type = Tag;
name = hr01;
},
{
horizontal = 1;
origin = "{0, 16}";
type = Tag;
name = hr02;
}
);
layerId = "5E936A5D-BBF2-432C-9FBC-FBC71ABAF060";
name = Regular;
paths = (
{
closed = 1;
nodes = (
"829 248 CURVE",
"782 258 LINE",
"752 137 OFFCURVE",
"725 90 OFFCURVE",
"692 90 CURVE SMOOTH",
"270 90 LINE",
"827 887 LINE",
"805 930 LINE",
"313 930 LINE SMOOTH",
"227 930 OFFCURVE",
"195 930 OFFCURVE",
"137 946 CURVE",
"119 702 LINE",
"168 690 LINE",
"195 813 OFFCURVE",
"242 840 OFFCURVE",
"285 840 CURVE SMOOTH",
"631 840 LINE",
"76 45 LINE",
"102 0 LINE",
"817 0 LINE",
"825 47 OFFCURVE",
"829 164 OFFCURVE"
);
}
);
width = 905;
}
);
unicode = 007A;
},
{
glyphname = ordfeminine;
layers = (
{
hints = (
{
horizontal = 1;
origin = "{0, 0}";
type = Tag;
name = hr00;
}
);
layerId = "5E936A5D-BBF2-432C-9FBC-FBC71ABAF060";
name = Regular;
paths = (
{
closed = 1;
nodes = (
"514 768 CURVE",
"508 793 LINE",
"471 778 OFFCURVE",
"451 778 OFFCURVE",
"444 782 CURVE",
"436 791 OFFCURVE",
"430 805 OFFCURVE",
"430 842 CURVE SMOOTH",
"430 1038 LINE SMOOTH",
"430 1186 OFFCURVE",
"395 1235 OFFCURVE",
"299 1235 CURVE SMOOTH",
"229 1235 OFFCURVE",
"78 1159 OFFCURVE",
"66 1075 CURVE",
"74 1055 LINE",
"92 1051 OFFCURVE",
"182 1071 OFFCURVE",
"178 1083 CURVE SMOOTH",
"158 1139 OFFCURVE",
"213 1178 OFFCURVE",
"252 1178 CURVE SMOOTH",
"324 1178 OFFCURVE",
"338 1133 OFFCURVE",
"338 1051 CURVE SMOOTH",
"338 1034 LINE",
"246 1010 LINE",
"111 973 OFFCURVE",
"49 907 OFFCURVE",
"49 825 CURVE SMOOTH",
"49 741 OFFCURVE",
"113 711 OFFCURVE",
"166 711 CURVE SMOOTH",
"211 711 OFFCURVE",
"277 734 OFFCURVE",
"341 794 CURVE",
"350 737 OFFCURVE",
"372 711 OFFCURVE",
"391 711 CURVE SMOOTH",
"412 711 OFFCURVE",
"453 727 OFFCURVE"
);
},
{
closed = 1;
nodes = (
"485 586 LINE",
"485 659 LINE",
"51 659 LINE",
"51 586 LINE"
);
},
{
closed = 1;
nodes = (
"338 840 LINE",
"288 799 OFFCURVE",
"240 780 OFFCURVE",
"199 780 CURVE SMOOTH",
"180 780 OFFCURVE",
"147 793 OFFCURVE",
"147 848 CURVE SMOOTH",
"147 905 OFFCURVE",
"178 948 OFFCURVE",
"295 981 CURVE",
"338 992 LINE",
"338 846 LINE"
);
}
);
width = 524;
}
);
unicode = 00AA;
},
{
glyphname = ordmasculine;
layers = (
{
hints = (
{
horizontal = 1;
origin = "{0, 0}";
type = Tag;
name = hr00;
}
);
layerId = "5E936A5D-BBF2-432C-9FBC-FBC71ABAF060";
name = Regular;
paths = (
{
closed = 1;
nodes = (
"528 983 CURVE",
"528 1128 OFFCURVE",
"434 1235 OFFCURVE",
"305 1235 CURVE SMOOTH",
"164 1235 OFFCURVE",
"49 1102 OFFCURVE",
"49 963 CURVE SMOOTH",
"49 817 OFFCURVE",
"139 711 OFFCURVE",
"272 711 CURVE SMOOTH",
"397 711 OFFCURVE",
"528 846 OFFCURVE"
);
},
{
closed = 1;
nodes = (
"516 586 LINE",
"516 659 LINE",
"61 659 LINE",
"61 586 LINE"
);
},
{
closed = 1;
nodes = (
"434 967 CURVE",
"434 854 OFFCURVE",
"377 768 OFFCURVE",
"305 768 CURVE SMOOTH",
"223 768 OFFCURVE",
"143 864 OFFCURVE",
"143 977 CURVE SMOOTH",
"143 1090 OFFCURVE",
"193 1176 OFFCURVE",
"272 1176 CURVE SMOOTH",
"360 1176 OFFCURVE",
"434 1079 OFFCURVE"
);
}
);
width = 578;
}
);
unicode = 00BA;
},
{
glyphname = Pi;
layers = (
{
hints = (
{
horizontal = 1;
origin = "{0, 0}";
type = Tag;
name = hr00;
}
);
layerId = "5E936A5D-BBF2-432C-9FBC-FBC71ABAF060";
name = Regular;
paths = (
{
closed = 1;
nodes = (
"500 0 LINE",
"500 43 LINE",
"403 61 OFFCURVE",
"355 88 OFFCURVE",
"355 104 CURVE SMOOTH",
"355 1107 LINE SMOOTH",
"355 1138 OFFCURVE",
"419 1174 OFFCURVE",
"544 1176 CURVE",
"710 1176 LINE SMOOTH",
"842 1176 OFFCURVE",
"915 1138 OFFCURVE",
"915 1107 CURVE SMOOTH",
"915 104 LINE SMOOTH",
"915 86 OFFCURVE",
"860 61 OFFCURVE",
"770 43 CURVE",
"770 0 LINE",
"1221 0 LINE",
"1221 43 LINE",
"1124 61 OFFCURVE",
"1075 88 OFFCURVE",
"1075 104 CURVE SMOOTH",
"1075 1155 LINE SMOOTH",
"1075 1174 OFFCURVE",
"1130 1198 OFFCURVE",
"1221 1217 CURVE",
"1221 1260 LINE",
"49 1260 LINE",
"49 1217 LINE",
"145 1198 OFFCURVE",
"195 1171 OFFCURVE",
"195 1155 CURVE SMOOTH",
"195 104 LINE SMOOTH",
"195 86 OFFCURVE",
"139 61 OFFCURVE",
"49 43 CURVE",
"49 0 LINE"
);
}
);
width = 1290;
}
);
unicode = 03A0;
},
{
glyphname = Omega;
layers = (
{
hints = (
{
horizontal = 1;
origin = "{0, 0}";
type = Tag;
name = hr00;
}
);
layerId = "5E936A5D-BBF2-432C-9FBC-FBC71ABAF060";
name = Regular;
paths = (
{
closed = 1;
nodes = (
"576 0 LINE",
"576 110 LINE",
"309 413 OFFCURVE",
"270 512 OFFCURVE",
"270 750 CURVE SMOOTH",
"270 899 OFFCURVE",
"365 1200 OFFCURVE",
"638 1200 CURVE SMOOTH",
"883 1200 OFFCURVE",
"1010 981 OFFCURVE",
"1010 739 CURVE SMOOTH",
"1010 512 OFFCURVE",
"934 413 OFFCURVE",
"701 110 CURVE",
"701 0 LINE",
"1143 0 LINE",
"1157 70 OFFCURVE",
"1170 187 OFFCURVE",
"1176 265 CURVE",
"1131 284 LINE",
"1084 157 OFFCURVE",
"1073 110 OFFCURVE",
"1018 110 CURVE SMOOTH",
"788 110 LINE",
"1042 344 OFFCURVE",
"1170 525 OFFCURVE",
"1170 762 CURVE SMOOTH",
"1170 1087 OFFCURVE",
"964 1290 OFFCURVE",
"671 1290 CURVE SMOOTH",
"311 1290 OFFCURVE",
"110 1001 OFFCURVE",
"110 739 CURVE SMOOTH",
"110 524 OFFCURVE",
"187 336 OFFCURVE",
"472 110 CURVE",
"252 110 LINE SMOOTH",
"195 110 OFFCURVE",
"178 167 OFFCURVE",
"156 280 CURVE",
"111 280 LINE",
"92 196 OFFCURVE",
"82 92 OFFCURVE",
"80 27 CURVE",
"111 0 LINE"
);
}
);
width = 1296;
}
);
unicode = 03A9;
},
{
glyphname = pi;
layers = (
{
anchors = (
{
name = L;
position = "{577, -100}";
},
{
name = U;
position = "{577, 1050}";
}
);
hints = (
{
horizontal = 1;
origin = "{0, 0}";
type = Tag;
name = hr00;
}
);
layerId = "5E936A5D-BBF2-432C-9FBC-FBC71ABAF060";
name = Regular;
paths = (
{
closed = 1;
nodes = (
"1046 110 CURVE",
"1024 154 LINE",
"933 119 OFFCURVE",
"902 113 OFFCURVE",
"862 113 CURVE SMOOTH",
"800 113 OFFCURVE",
"774 214 OFFCURVE",
"774 457 CURVE SMOOTH",
"774 561 OFFCURVE",
"777 675 OFFCURVE",
"788 782 CURVE",
"853 782 LINE SMOOTH",
"916 782 OFFCURVE",
"989 836 OFFCURVE",
"1058 931 CURVE",
"1030 960 LINE",
"989 931 OFFCURVE",
"941 930 OFFCURVE",
"885 930 CURVE SMOOTH",
"252 930 LINE SMOOTH",
"168 930 OFFCURVE",
"97 859 OFFCURVE",
"20 766 CURVE",
"43 730 LINE",
"118 783 OFFCURVE",
"163 793 OFFCURVE",
"247 793 CURVE SMOOTH",
"298 793 LINE",
"254 224 OFFCURVE",
"238 157 OFFCURVE",
"130 4 CURVE",
"130 4 OFFCURVE",
"152 -23 OFFCURVE",
"159 -32 CURVE",
"219 -15 OFFCURVE",
"351 26 OFFCURVE",
"387 50 CURVE",
"380 123 OFFCURVE",
"377 205 OFFCURVE",
"377 300 CURVE SMOOTH",
"377 470 OFFCURVE",
"384 641 OFFCURVE",
"396 792 CURVE",
"505 790 OFFCURVE",
"591 786 OFFCURVE",
"686 784 CURVE",
"661 505 OFFCURVE",
"652 353 OFFCURVE",
"652 267 CURVE SMOOTH",
"652 84 OFFCURVE",
"698 -31 OFFCURVE",
"791 -31 CURVE SMOOTH",
"850 -31 OFFCURVE",
"909 -4 OFFCURVE"
);
}
);
width = 1078;
}
);
unicode = 03C0;
},
{
glyphname = zero;
layers = (
{
anchors = (
{
name = L;
position = "{480, -100}";
},
{
name = U;
position = "{480, 1370}";
}
);
hints = (
{
horizontal = 1;
origin = "{0, 0}";
type = Tag;
name = hr00;
}
);
layerId = "5E936A5D-BBF2-432C-9FBC-FBC71ABAF060";
name = Regular;
paths = (
{
closed = 1;
nodes = (
"885 602 CURVE",
"885 950 OFFCURVE",
"754 1235 OFFCURVE",
"500 1235 CURVE SMOOTH",
"248 1235 OFFCURVE",
"76 946 OFFCURVE",
"76 602 CURVE SMOOTH",
"76 258 OFFCURVE",
"207 -30 OFFCURVE",
"461 -30 CURVE SMOOTH",
"715 -30 OFFCURVE",
"885 258 OFFCURVE"
);
},
{
closed = 1;
nodes = (
"721 565 CURVE",
"721 227 OFFCURVE",
"639 85 OFFCURVE",
"500 85 CURVE SMOOTH",
"352 85 OFFCURVE",
"240 279 OFFCURVE",
"240 645 CURVE SMOOTH",
"240 979 OFFCURVE",
"324 1120 OFFCURVE",
"461 1120 CURVE SMOOTH",
"596 1120 OFFCURVE",
"721 930 OFFCURVE"
);
}
);
width = 961;
}
);
unicode = 0030;
},
{
glyphname = one;
layers = (
{
anchors = (
{
name = L;
position = "{480, -100}";
},
{
name = U;
position = "{480, 1370}";
}
);
hints = (
{
horizontal = 1;
origin = "{0, 0}";
type = Tag;
name = hr00;
}
);
layerId = "5E936A5D-BBF2-432C-9FBC-FBC71ABAF060";
name = Regular;
paths = (
{
closed = 1;
nodes = (
"840 0 LINE",
"840 53 LINE",
"639 78 OFFCURVE",
"590 117 OFFCURVE",
"590 143 CURVE SMOOTH",
"590 1210 LINE",
"553 1245 LINE",
"465 1196 OFFCURVE",
"250 1106 OFFCURVE",
"139 1075 CURVE",
"160 1024 LINE",
"336 1061 OFFCURVE",
"406 1055 OFFCURVE",
"422 1038 CURVE SMOOTH",
"438 1020 OFFCURVE",
"440 993 OFFCURVE",
"440 940 CURVE SMOOTH",
"440 143 LINE SMOOTH",
"440 115 OFFCURVE",
"379 78 OFFCURVE",
"170 53 CURVE",
"170 0 LINE"
);
}
);
width = 961;
}
);
unicode = 0031;
},
{
glyphname = two;
layers = (
{
anchors = (
{
name = L;
position = "{480, -100}";
},
{
name = U;
position = "{480, 1370}";
}
);
hints = (
{
horizontal = 1;
origin = "{0, 0}";
type = Tag;
name = hr00;
}
);
layerId = "5E936A5D-BBF2-432C-9FBC-FBC71ABAF060";
name = Regular;
paths = (
{
closed = 1;
nodes = (
"836 287 LINE",
"786 299 LINE",
"786 299 OFFCURVE",
"774 121 OFFCURVE",
"684 121 CURVE SMOOTH",
"266 121 LINE",
"676 602 OFFCURVE",
"823 774 OFFCURVE",
"823 952 CURVE SMOOTH",
"823 1147 OFFCURVE",
"696 1235 OFFCURVE",
"535 1235 CURVE SMOOTH",
"330 1235 OFFCURVE",
"125 1053 OFFCURVE",
"125 915 CURVE",
"152 885 LINE",
"213 891 OFFCURVE",
"235 909 OFFCURVE",
"280 934 CURVE",
"280 1028 OFFCURVE",
"358 1145 OFFCURVE",
"467 1145 CURVE SMOOTH",
"612 1145 OFFCURVE",
"668 1047 OFFCURVE",
"668 924 CURVE SMOOTH",
"668 772 OFFCURVE",
"573 625 OFFCURVE",
"98 74 CURVE",
"127 0 LINE",
"821 0 LINE"
);
}
);
width = 961;
}
);
unicode = 0032;
},
{
glyphname = three;
layers = (
{
anchors = (
{
name = L;
position = "{480, -100}";
},
{
name = U;
position = "{480, 1370}";
}
);
hints = (
{
horizontal = 1;
origin = "{0, 6}";
type = Tag;
name = hr01;
},
{
horizontal = 1;
origin = "{0, 32}";
type = Tag;
name = hr02;
}
);
layerId = "5E936A5D-BBF2-432C-9FBC-FBC71ABAF060";
name = Regular;
paths = (
{
closed = 1;
nodes = (
"825 381 CURVE",
"825 543 OFFCURVE",
"707 680 OFFCURVE",
"555 698 CURVE",
"686 756 OFFCURVE",
"768 858 OFFCURVE",
"768 958 CURVE SMOOTH",
"768 1094 OFFCURVE",
"682 1235 OFFCURVE",
"483 1235 CURVE SMOOTH",
"281 1235 OFFCURVE",
"104 1077 OFFCURVE",
"104 965 CURVE",
"131 934 LINE",
"188 938 OFFCURVE",
"225 950 OFFCURVE",
"270 973 CURVE",
"254 1063 OFFCURVE",
"319 1145 OFFCURVE",
"426 1145 CURVE SMOOTH",
"553 1145 OFFCURVE",
"608 1032 OFFCURVE",
"608 940 CURVE SMOOTH",
"608 858 OFFCURVE",
"573 743 OFFCURVE",
"328 676 CURVE",
"342 616 LINE",
"383 623 OFFCURVE",
"373 623 OFFCURVE",
"410 623 CURVE SMOOTH",
"528 623 OFFCURVE",
"665 549 OFFCURVE",
"665 348 CURVE SMOOTH",
"665 178 OFFCURVE",
"555 70 OFFCURVE",
"393 70 CURVE SMOOTH",
"293 70 OFFCURVE",
"223 96 OFFCURVE",
"102 186 CURVE",
"68 119 LINE",
"188 4 OFFCURVE",
"301 -30 OFFCURVE",
"406 -30 CURVE SMOOTH",
"680 -30 OFFCURVE",
"825 156 OFFCURVE"
);
}
);
width = 961;
}
);
unicode = 0033;
},
{
glyphname = four;
layers = (
{
anchors = (
{
name = L;
position = "{480, -100}";
},
{
name = U;
position = "{480, 1370}";
}
);
hints = (
{
horizontal = 1;
origin = "{0, 0}";
type = Tag;
name = hr00;
}
);
layerId = "5E936A5D-BBF2-432C-9FBC-FBC71ABAF060";
name = Regular;
paths = (
{
closed = 1;
nodes = (
"874 430 CURVE",
"848 460 LINE",
"725 460 LINE",
"725 1210 LINE",
"688 1245 LINE",
"649 1225 OFFCURVE",
"606 1198 OFFCURVE",
"551 1174 CURVE",
"55 383 LINE",
"88 350 LINE",
"585 350 LINE",
"585 115 LINE SMOOTH",
"585 92 OFFCURVE",
"549 72 OFFCURVE",
"375 43 CURVE",
"375 0 LINE",
"864 0 LINE",
"864 43 LINE",
"754 68 OFFCURVE",
"725 84 OFFCURVE",
"725 104 CURVE SMOOTH",
"725 350 LINE",
"795 350 LINE",
"825 373 OFFCURVE",
"846 387 OFFCURVE"
);
},
{
closed = 1;
nodes = (
"585 460 LINE",
"213 460 LINE",
"585 1040 LINE"
);
}
);
width = 961;
}
);
unicode = 0034;
},
{
glyphname = five;
layers = (
{
anchors = (
{
name = L;
position = "{480, -100}";
},
{
name = U;
position = "{480, 1370}";
}
);
hints = (
{
horizontal = 1;
origin = "{0, 14}";
type = Tag;
name = hr01;
},
{
horizontal = 1;
origin = "{0, 17}";
type = Tag;
name = hr02;
}
);
layerId = "5E936A5D-BBF2-432C-9FBC-FBC71ABAF060";
name = Regular;
paths = (
{
closed = 1;
nodes = (
"836 410 CURVE",
"836 606 OFFCURVE",
"705 780 OFFCURVE",
"463 780 CURVE SMOOTH",
"395 780 OFFCURVE",
"317 770 OFFCURVE",
"264 754 CURVE",
"276 813 OFFCURVE",
"303 997 OFFCURVE",
"307 1075 CURVE",
"694 1075 LINE",
"725 1098 OFFCURVE",
"776 1151 OFFCURVE",
"805 1194 CURVE",
"776 1223 LINE",
"776 1223 OFFCURVE",
"731 1205 OFFCURVE",
"655 1205 CURVE SMOOTH",
"219 1205 LINE",
"211 1064 OFFCURVE",
"162 768 OFFCURVE",
"137 623 CURVE",
"184 590 LINE",
"254 643 OFFCURVE",
"346 670 OFFCURVE",
"403 670 CURVE SMOOTH",
"590 670 OFFCURVE",
"676 549 OFFCURVE",
"676 367 CURVE SMOOTH",
"676 215 OFFCURVE",
"592 70 OFFCURVE",
"418 70 CURVE SMOOTH",
"342 70 OFFCURVE",
"254 88 OFFCURVE",
"113 186 CURVE",
"78 119 LINE",
"193 12 OFFCURVE",
"317 -30 OFFCURVE",
"440 -30 CURVE SMOOTH",
"692 -30 OFFCURVE",
"836 178 OFFCURVE"
);
}
);
width = 961;
}
);
unicode = 0035;
},
{
glyphname = six;
layers = (
{
anchors = (
{
name = L;
position = "{480, -100}";
},
{
name = U;
position = "{480, 1370}";
}
);
hints = (
{
horizontal = 1;
origin = "{0, 0}";
type = Tag;
name = hr00;
}
);
layerId = "5E936A5D-BBF2-432C-9FBC-FBC71ABAF060";
name = Regular;
paths = (
{
closed = 1;
nodes = (
"881 412 CURVE SMOOTH",
"881 631 OFFCURVE",
"756 770 OFFCURVE",
"541 770 CURVE SMOOTH",
"479 770 OFFCURVE",
"373 741 OFFCURVE",
"279 650 CURVE",
"320 888 OFFCURVE",
"492 1117 OFFCURVE",
"807 1190 CURVE",
"788 1249 LINE",
"324 1182 OFFCURVE",
"110 850 OFFCURVE",
"110 473 CURVE SMOOTH",
"110 172 OFFCURVE",
"287 -30 OFFCURVE",
"506 -30 CURVE SMOOTH",
"752 -30 OFFCURVE",
"881 225 OFFCURVE"
);
},
{
closed = 1;
nodes = (
"500 660 CURVE SMOOTH",
"598 660 OFFCURVE",
"731 598 OFFCURVE",
"731 348 CURVE SMOOTH",
"731 225 OFFCURVE",
"688 75 OFFCURVE",
"545 75 CURVE SMOOTH",
"379 75 OFFCURVE",
"270 220 OFFCURVE",
"270 536 CURVE",
"344 625 OFFCURVE",
"432 660 OFFCURVE"
);
}
);
width = 961;
}
);
unicode = 0036;
},
{
glyphname = seven;
layers = (
{
anchors = (
{
name = L;
position = "{480, -100}";
},
{
name = U;
position = "{480, 1370}";
}
);
hints = (
{
horizontal = 1;
origin = "{0, 0}";
type = Tag;
name = hr00;
}
);
layerId = "5E936A5D-BBF2-432C-9FBC-FBC71ABAF060";
name = Regular;
paths = (
{
closed = 1;
nodes = (
"885 1167 CURVE",
"852 1205 LINE",
"147 1205 LINE",
"131 1146 OFFCURVE",
"113 1010 OFFCURVE",
"104 948 CURVE",
"150 930 LINE",
"207 1085 OFFCURVE",
"240 1075 OFFCURVE",
"279 1075 CURVE SMOOTH",
"733 1075 LINE",
"586 735 OFFCURVE",
"461 411 OFFCURVE",
"229 3 CURVE",
"270 -30 LINE",
"336 -13 OFFCURVE",
"385 11 OFFCURVE",
"432 44 CURVE",
"502 257 OFFCURVE",
"700 737 OFFCURVE"
);
}
);
width = 961;
}
);
unicode = 0037;
},
{
glyphname = eight;
layers = (
{
anchors = (
{
name = L;
position = "{480, -100}";
},
{
name = U;
position = "{480, 1370}";
}
);
hints = (
{
horizontal = 1;
origin = "{0, 0}";
type = Tag;
name = hr00;
}
);
layerId = "5E936A5D-BBF2-432C-9FBC-FBC71ABAF060";
name = Regular;
paths = (
{
closed = 1;
nodes = (
"867 352 CURVE SMOOTH",
"867 536 OFFCURVE",
"746 624 OFFCURVE",
"613 688 CURVE",
"731 771 OFFCURVE",
"817 858 OFFCURVE",
"817 969 CURVE SMOOTH",
"817 1124 OFFCURVE",
"702 1235 OFFCURVE",
"502 1235 CURVE SMOOTH",
"301 1235 OFFCURVE",
"145 1100 OFFCURVE",
"145 915 CURVE SMOOTH",
"145 766 OFFCURVE",
"243 698 OFFCURVE",
"357 644 CURVE",
"198 555 OFFCURVE",
"94 430 OFFCURVE",
"94 285 CURVE SMOOTH",
"94 121 OFFCURVE",
"223 -30 OFFCURVE",
"451 -30 CURVE SMOOTH",
"678 -30 OFFCURVE",
"867 145 OFFCURVE"
);
},
{
closed = 1;
nodes = (
"707 309 CURVE SMOOTH",
"707 193 OFFCURVE",
"647 70 OFFCURVE",
"500 70 CURVE SMOOTH",
"348 70 OFFCURVE",
"254 176 OFFCURVE",
"254 315 CURVE SMOOTH",
"254 436 OFFCURVE",
"307 517 OFFCURVE",
"434 610 CURVE",
"572 549 OFFCURVE",
"707 486 OFFCURVE"
);
},
{
closed = 1;
nodes = (
"275 950 CURVE SMOOTH",
"275 1040 OFFCURVE",
"332 1141 OFFCURVE",
"451 1141 CURVE SMOOTH",
"582 1141 OFFCURVE",
"667 1077 OFFCURVE",
"667 938 CURVE SMOOTH",
"667 867 OFFCURVE",
"630 795 OFFCURVE",
"533 725 CURVE",
"399 783 OFFCURVE",
"275 833 OFFCURVE"
);
}
);
width = 961;
}
);
unicode = 0038;
},
{
glyphname = nine;
layers = (
{
anchors = (
{
name = L;
position = "{480, -100}";
},
{
name = U;
position = "{480, 1370}";
}
);
hints = (
{
horizontal = 1;
origin = "{0, 0}";
type = Tag;
name = hr00;
}
);
layerId = "5E936A5D-BBF2-432C-9FBC-FBC71ABAF060";
name = Regular;
paths = (
{
closed = 1;
nodes = (
"870 731 CURVE SMOOTH",
"870 1085 OFFCURVE",
"692 1235 OFFCURVE",
"506 1235 CURVE SMOOTH",
"270 1235 OFFCURVE",
"100 997 OFFCURVE",
"100 795 CURVE SMOOTH",
"100 596 OFFCURVE",
"225 445 OFFCURVE",
"438 445 CURVE SMOOTH",
"530 445 OFFCURVE",
"634 497 OFFCURVE",
"705 577 CURVE",
"679 307 OFFCURVE",
"527 105 OFFCURVE",
"172 16 CURVE",
"190 -43 LINE",
"655 25 OFFCURVE",
"870 326 OFFCURVE"
);
},
{
closed = 1;
nodes = (
"481 555 CURVE SMOOTH",
"383 555 OFFCURVE",
"250 610 OFFCURVE",
"250 856 CURVE SMOOTH",
"250 1014 OFFCURVE",
"328 1130 OFFCURVE",
"465 1130 CURVE SMOOTH",
"572 1130 OFFCURVE",
"703 1028 OFFCURVE",
"709 694 CURVE",
"654 612 OFFCURVE",
"573 555 OFFCURVE"
);
}
);
width = 961;
}
);
unicode = 0039;
},
{
glyphname = fraction;
layers = (
{
hints = (
{
horizontal = 1;
origin = "{0, 0}";
type = Tag;
name = hr00;
}
);
layerId = "5E936A5D-BBF2-432C-9FBC-FBC71ABAF060";
name = Regular;
paths = (
{
closed = 1;
nodes = (
"1074 1207 LINE",
"1049 1235 LINE",
"1020 1229 OFFCURVE",
"986 1214 OFFCURVE",
"960 1203 CURVE",
"198 0 LINE",
"223 -30 LINE",
"259 -21 OFFCURVE",
"285 -12 OFFCURVE",
"316 3 CURVE"
);
}
);
width = 1200;
}
);
unicode = 2044;
},
{
glyphname = onehalf;
layers = (
{
hints = (
{
horizontal = 1;
origin = "{0, 0}";
type = Tag;
name = hr00;
}
);
layerId = "5E936A5D-BBF2-432C-9FBC-FBC71ABAF060";
name = Regular;
paths = (
{
closed = 1;
nodes = (
"1120 138 LINE",
"1084 143 LINE",
"1084 143 OFFCURVE",
"1078 66 OFFCURVE",
"1027 66 CURVE SMOOTH",
"809 66 LINE",
"1038 297 OFFCURVE",
"1112 371 OFFCURVE",
"1112 457 CURVE SMOOTH",
"1112 550 OFFCURVE",
"1042 593 OFFCURVE",
"944 593 CURVE SMOOTH",
"821 593 OFFCURVE",
"706 506 OFFCURVE",
"706 439 CURVE",
"721 425 LINE",
"755 428 OFFCURVE",
"784 436 OFFCURVE",
"810 448 CURVE",
"810 494 OFFCURVE",
"849 540 OFFCURVE",
"906 540 CURVE SMOOTH",
"982 540 OFFCURVE",
"1010 502 OFFCURVE",
"1010 443 CURVE SMOOTH",
"1010 370 OFFCURVE",
"957 300 OFFCURVE",
"691 35 CURVE",
"707 0 LINE",
"1112 0 LINE"
);
},
{
closed = 1;
nodes = (
"1074 1207 LINE",
"1049 1235 LINE",
"1020 1229 OFFCURVE",
"986 1214 OFFCURVE",
"960 1203 CURVE",
"198 0 LINE",
"223 -30 LINE",
"259 -21 OFFCURVE",
"285 -12 OFFCURVE",
"316 3 CURVE"
);
},
{
closed = 1;
nodes = (
"472 637 LINE",
"472 671 LINE",
"360 683 OFFCURVE",
"340 701 OFFCURVE",
"340 714 CURVE SMOOTH",
"340 1218 LINE",
"320 1235 LINE",
"271 1211 OFFCURVE",
"142 1168 OFFCURVE",
"80 1153 CURVE",
"92 1120 LINE",
"190 1139 OFFCURVE",
"221 1135 OFFCURVE",
"230 1127 CURVE SMOOTH",
"240 1119 OFFCURVE",
"240 1106 OFFCURVE",
"240 1080 CURVE SMOOTH",
"240 714 LINE SMOOTH",
"240 700 OFFCURVE",
"214 683 OFFCURVE",
"97 671 CURVE",
"97 637 LINE"
);
}
);
width = 1200;
}
);
unicode = 00BD;
},
{
glyphname = onequarter;
layers = (
{
hints = (
{
horizontal = 1;
origin = "{0, 0}";
type = Tag;
name = hr00;
}
);
layerId = "5E936A5D-BBF2-432C-9FBC-FBC71ABAF060";
name = Regular;
paths = (
{
closed = 1;
nodes = (
"1074 1207 LINE",
"1049 1235 LINE",
"1020 1229 OFFCURVE",
"986 1214 OFFCURVE",
"960 1203 CURVE",
"198 0 LINE",
"223 -30 LINE",
"259 -21 OFFCURVE",
"285 -12 OFFCURVE",
"316 3 CURVE"
);
},
{
closed = 1;
nodes = (
"472 637 LINE",
"472 671 LINE",
"360 683 OFFCURVE",
"340 701 OFFCURVE",
"340 714 CURVE SMOOTH",
"340 1218 LINE",
"320 1235 LINE",
"271 1211 OFFCURVE",
"142 1168 OFFCURVE",
"80 1153 CURVE",
"92 1120 LINE",
"190 1139 OFFCURVE",
"221 1135 OFFCURVE",
"230 1127 CURVE SMOOTH",
"240 1119 OFFCURVE",
"240 1106 OFFCURVE",
"240 1080 CURVE SMOOTH",
"240 714 LINE SMOOTH",
"240 700 OFFCURVE",
"214 683 OFFCURVE",
"97 671 CURVE",
"97 637 LINE"
);
},
{
closed = 1;
nodes = (
"1120 210 CURVE",
"1105 226 LINE",
"1044 226 LINE",
"1044 581 LINE",
"1024 598 LINE",
"1001 588 OFFCURVE",
"964 575 OFFCURVE",
"933 563 CURVE",
"653 180 LINE",
"672 164 LINE",
"950 164 LINE",
"950 63 LINE SMOOTH",
"950 52 OFFCURVE",
"937 42 OFFCURVE",
"840 29 CURVE",
"840 0 LINE",
"1114 0 LINE",
"1114 29 LINE",
"1052 41 OFFCURVE",
"1044 48 OFFCURVE",
"1044 58 CURVE SMOOTH",
"1044 164 LINE",
"1075 164 LINE",
"1092 175 OFFCURVE",
"1104 190 OFFCURVE"
);
},
{
closed = 1;
nodes = (
"950 226 LINE",
"749 226 LINE",
"950 491 LINE"
);
}
);
width = 1200;
}
);
unicode = 00BC;
},
{
glyphname = threequarters;
layers = (
{
hints = (
{
horizontal = 1;
origin = "{0, 0}";
type = Tag;
name = hr00;
}
);
layerId = "5E936A5D-BBF2-432C-9FBC-FBC71ABAF060";
name = Regular;
paths = (
{
closed = 1;
nodes = (
"520 825 CURVE",
"520 903 OFFCURVE",
"455 968 OFFCURVE",
"369 977 CURVE",
"442 1000 OFFCURVE",
"487 1054 OFFCURVE",
"487 1102 CURVE SMOOTH",
"487 1167 OFFCURVE",
"436 1235 OFFCURVE",
"320 1235 CURVE SMOOTH",
"204 1235 OFFCURVE",
"100 1159 OFFCURVE",
"100 1105 CURVE",
"116 1090 LINE",
"148 1092 OFFCURVE",
"184 1098 OFFCURVE",
"209 1109 CURVE",
"200 1152 OFFCURVE",
"232 1182 OFFCURVE",
"288 1182 CURVE SMOOTH",
"356 1182 OFFCURVE",
"383 1137 OFFCURVE",
"383 1093 CURVE SMOOTH",
"383 1054 OFFCURVE",
"367 1003 OFFCURVE",
"234 971 CURVE",
"241 934 LINE",
"264 937 OFFCURVE",
"259 937 OFFCURVE",
"280 937 CURVE SMOOTH",
"342 937 OFFCURVE",
"415 905 OFFCURVE",
"415 809 CURVE SMOOTH",
"415 728 OFFCURVE",
"357 684 OFFCURVE",
"270 684 CURVE SMOOTH",
"214 684 OFFCURVE",
"167 696 OFFCURVE",
"99 740 CURVE",
"80 707 LINE",
"148 652 OFFCURVE",
"219 628 OFFCURVE",
"285 628 CURVE SMOOTH",
"431 628 OFFCURVE",
"520 717 OFFCURVE"
);
},
{
closed = 1;
nodes = (
"1074 1207 LINE",
"1049 1235 LINE",
"1020 1229 OFFCURVE",
"986 1214 OFFCURVE",
"960 1203 CURVE",
"198 0 LINE",
"223 -30 LINE",
"259 -21 OFFCURVE",
"285 -12 OFFCURVE",
"316 3 CURVE"
);
},
{
closed = 1;
nodes = (
"1120 210 CURVE",
"1105 226 LINE",
"1044 226 LINE",
"1044 581 LINE",
"1024 598 LINE",
"1001 588 OFFCURVE",
"964 575 OFFCURVE",
"933 563 CURVE",
"653 180 LINE",
"672 164 LINE",
"950 164 LINE",
"950 63 LINE SMOOTH",
"950 52 OFFCURVE",
"937 42 OFFCURVE",
"840 29 CURVE",
"840 0 LINE",
"1114 0 LINE",
"1114 29 LINE",
"1052 41 OFFCURVE",
"1044 48 OFFCURVE",
"1044 58 CURVE SMOOTH",
"1044 164 LINE",
"1075 164 LINE",
"1092 175 OFFCURVE",
"1104 190 OFFCURVE"
);
},
{
closed = 1;
nodes = (
"950 226 LINE",
"749 226 LINE",
"950 491 LINE"
);
}
);
width = 1200;
}
);
unicode = 00BE;
},
{
glyphname = onesuperior;
layers = (
{
anchors = (
{
name = L;
position = "{360, 550}";
},
{
name = U;
position = "{360, 1410}";
}
);
hints = (
{
horizontal = 1;
origin = "{0, 0}";
type = Tag;
name = hr00;
}
);
layerId = "5E936A5D-BBF2-432C-9FBC-FBC71ABAF060";
name = Regular;
paths = (
{
closed = 1;
nodes = (
"588 620 LINE",
"588 662 LINE",
"447 677 OFFCURVE",
"423 700 OFFCURVE",
"423 716 CURVE SMOOTH",
"423 1346 LINE",
"397 1367 LINE",
"336 1338 OFFCURVE",
"175 1284 OFFCURVE",
"97 1265 CURVE",
"112 1224 LINE",
"235 1247 OFFCURVE",
"274 1243 OFFCURVE",
"285 1233 CURVE SMOOTH",
"297 1222 OFFCURVE",
"298 1206 OFFCURVE",
"298 1174 CURVE SMOOTH",
"298 716 LINE SMOOTH",
"298 699 OFFCURVE",
"265 677 OFFCURVE",
"119 662 CURVE",
"119 620 LINE"
);
}
);
width = 673;
}
);
unicode = 00B9;
},
{
glyphname = twosuperior;
layers = (
{
anchors = (
{
name = L;
position = "{337, 550}";
},
{
name = U;
position = "{337, 1410}";
}
);
hints = (
{
horizontal = 1;
origin = "{0, 0}";
type = Tag;
name = hr00;
}
);
layerId = "5E936A5D-BBF2-432C-9FBC-FBC71ABAF060";
name = Regular;
paths = (
{
closed = 1;
nodes = (
"595 792 LINE",
"550 799 LINE",
"550 799 OFFCURVE",
"542 703 OFFCURVE",
"479 703 CURVE SMOOTH",
"206 703 LINE",
"493 991 OFFCURVE",
"585 1084 OFFCURVE",
"585 1191 CURVE SMOOTH",
"585 1308 OFFCURVE",
"497 1361 OFFCURVE",
"375 1361 CURVE SMOOTH",
"221 1361 OFFCURVE",
"78 1252 OFFCURVE",
"78 1169 CURVE",
"96 1151 LINE",
"139 1155 OFFCURVE",
"175 1165 OFFCURVE",
"207 1180 CURVE",
"207 1237 OFFCURVE",
"256 1295 OFFCURVE",
"327 1295 CURVE SMOOTH",
"423 1295 OFFCURVE",
"458 1248 OFFCURVE",
"458 1174 CURVE SMOOTH",
"458 1083 OFFCURVE",
"391 995 OFFCURVE",
"59 664 CURVE",
"79 620 LINE",
"585 620 LINE"
);
}
);
width = 673;
}
);
unicode = 00B2;
},
{
glyphname = threesuperior;
layers = (
{
anchors = (
{
name = L;
position = "{337, 550}";
},
{
name = U;
position = "{337, 1410}";
}
);
hints = (
{
horizontal = 1;
origin = "{0, 6}";
type = Tag;
name = hr01;
},
{
horizontal = 1;
origin = "{0, 32}";
type = Tag;
name = hr02;
}
);
layerId = "5E936A5D-BBF2-432C-9FBC-FBC71ABAF060";
name = Regular;
paths = (
{
closed = 1;
nodes = (
"587 849 CURVE",
"587 946 OFFCURVE",
"506 1028 OFFCURVE",
"399 1039 CURVE",
"490 1067 OFFCURVE",
"546 1135 OFFCURVE",
"546 1195 CURVE SMOOTH",
"546 1276 OFFCURVE",
"482 1361 OFFCURVE",
"338 1361 CURVE SMOOTH",
"192 1361 OFFCURVE",
"63 1266 OFFCURVE",
"63 1199 CURVE",
"82 1180 LINE",
"122 1183 OFFCURVE",
"168 1190 OFFCURVE",
"199 1204 CURVE",
"188 1258 OFFCURVE",
"228 1295 OFFCURVE",
"298 1295 CURVE SMOOTH",
"383 1295 OFFCURVE",
"416 1239 OFFCURVE",
"416 1184 CURVE SMOOTH",
"416 1135 OFFCURVE",
"396 1071 OFFCURVE",
"230 1031 CURVE",
"239 985 LINE",
"268 989 OFFCURVE",
"261 989 OFFCURVE",
"287 989 CURVE SMOOTH",
"365 989 OFFCURVE",
"456 949 OFFCURVE",
"456 829 CURVE SMOOTH",
"456 727 OFFCURVE",
"384 673 OFFCURVE",
"275 673 CURVE SMOOTH",
"205 673 OFFCURVE",
"146 688 OFFCURVE",
"61 742 CURVE",
"38 701 LINE",
"122 632 OFFCURVE",
"211 602 OFFCURVE",
"294 602 CURVE SMOOTH",
"476 602 OFFCURVE",
"587 714 OFFCURVE"
);
}
);
width = 673;
}
);
unicode = 00B3;
},
{
glyphname = asterisk;
layers = (
{
hints = (
{
horizontal = 1;
origin = "{0, 0}";
type = Tag;
name = hr00;
}
);
layerId = "5E936A5D-BBF2-432C-9FBC-FBC71ABAF060";
name = Regular;
paths = (
{
closed = 1;
nodes = (
"530 1540 LINE",
"494 1561 LINE",
"465 1554 OFFCURVE",
"416 1528 OFFCURVE",
"387 1513 CURVE",
"426 1187 LINE",
"141 1399 LINE",
"106 1376 LINE",
"96 1350 OFFCURVE",
"96 1294 OFFCURVE",
"94 1262 CURVE",
"396 1133 LINE",
"70 993 LINE",
"72 950 LINE",
"90 930 OFFCURVE",
"137 901 OFFCURVE",
"166 883 CURVE",
"427 1079 LINE",
"385 727 LINE",
"424 709 LINE",
"453 715 OFFCURVE",
"500 739 OFFCURVE",
"528 756 CURVE",
"490 1079 LINE",
"772 868 LINE",
"809 891 LINE",
"819 920 OFFCURVE",
"819 973 OFFCURVE",
"821 1006 CURVE",
"520 1135 LINE",
"846 1276 LINE",
"844 1317 LINE",
"823 1339 OFFCURVE",
"778 1366 OFFCURVE",
"750 1384 CURVE",
"489 1188 LINE"
);
}
);
width = 915;
}
);
unicode = 002A;
},
{
glyphname = backslash;
layers = (
{
hints = (
{
horizontal = 1;
origin = "{0, 0}";
type = Tag;
name = hr00;
}
);
layerId = "5E936A5D-BBF2-432C-9FBC-FBC71ABAF060";
name = Regular;
paths = (
{
closed = 1;
nodes = (
"905 -310 LINE",
"205 1551 LINE",
"168 1574 OFFCURVE",
"131 1590 OFFCURVE",
"92 1600 CURVE",
"55 1578 LINE",
"756 -284 LINE",
"780 -302 OFFCURVE",
"838 -325 OFFCURVE",
"870 -335 CURVE"
);
}
);
width = 961;
}
);
unicode = 005C;
},
{
glyphname = periodcentered;
layers = (
{
hints = (
{
horizontal = 1;
origin = "{0, 0}";
type = Tag;
name = hr00;
}
);
layerId = "5E936A5D-BBF2-432C-9FBC-FBC71ABAF060";
name = Regular;
paths = (
{
closed = 1;
nodes = (
"250 721 CURVE",
"250 783 OFFCURVE",
"222 816 OFFCURVE",
"165 816 CURVE SMOOTH",
"102 816 OFFCURVE",
"50 756 OFFCURVE",
"50 680 CURVE SMOOTH",
"50 619 OFFCURVE",
"75 584 OFFCURVE",
"134 584 CURVE SMOOTH",
"200 584 OFFCURVE",
"250 646 OFFCURVE"
);
}
);
width = 300;
}
);
unicode = 00B7;
},
{
glyphname = bullet;
layers = (
{
hints = (
{
horizontal = 1;
origin = "{0, 0}";
type = Tag;
name = hr00;
}
);
layerId = "5E936A5D-BBF2-432C-9FBC-FBC71ABAF060";
name = Regular;
paths = (
{
closed = 1;
nodes = (
"498 662 CURVE",
"498 793 OFFCURVE",
"430 885 OFFCURVE",
"309 885 CURVE SMOOTH",
"174 885 OFFCURVE",
"70 772 OFFCURVE",
"70 612 CURVE SMOOTH",
"70 483 OFFCURVE",
"133 389 OFFCURVE",
"260 389 CURVE SMOOTH",
"401 389 OFFCURVE",
"498 500 OFFCURVE"
);
}
);
width = 569;
}
);
unicode = 2022;
},
{
glyphname = comma;
layers = (
{
hints = (
{
horizontal = 1;
origin = "{0, 0}";
type = Tag;
name = hr00;
}
);
layerId = "5E936A5D-BBF2-432C-9FBC-FBC71ABAF060";
name = Regular;
paths = (
{
closed = 1;
nodes = (
"390 70 CURVE",
"390 145 OFFCURVE",
"373 199 OFFCURVE",
"309 229 CURVE",
"262 231 OFFCURVE",
"111 170 OFFCURVE",
"88 139 CURVE",
"104 92 LINE",
"190 98 OFFCURVE",
"226 59 OFFCURVE",
"226 0 CURVE SMOOTH",
"226 -115 OFFCURVE",
"195 -184 OFFCURVE",
"121 -270 CURVE",
"166 -305 LINE",
"305 -201 OFFCURVE",
"390 -35 OFFCURVE"
);
}
);
width = 469;
}
);
unicode = 002C;
},
{
glyphname = exclam;
layers = (
{
hints = (
{
horizontal = 1;
origin = "{0, 0}";
type = Tag;
name = hr00;
}
);
layerId = "5E936A5D-BBF2-432C-9FBC-FBC71ABAF060";
name = Regular;
paths = (
{
closed = 1;
nodes = (
"375 1455 LINE",
"332 1480 LINE",
"287 1461 OFFCURVE",
"227 1431 OFFCURVE",
"176 1398 CURVE",
"223 371 LINE",
"252 350 LINE",
"285 360 OFFCURVE",
"301 371 OFFCURVE",
"326 389 CURVE"
);
},
{
closed = 1;
nodes = (
"390 123 CURVE SMOOTH",
"390 195 OFFCURVE",
"357 236 OFFCURVE",
"291 236 CURVE SMOOTH",
"216 236 OFFCURVE",
"152 162 OFFCURVE",
"152 72 CURVE SMOOTH",
"152 0 OFFCURVE",
"181 -40 OFFCURVE",
"252 -40 CURVE SMOOTH",
"330 -40 OFFCURVE",
"390 31 OFFCURVE"
);
}
);
width = 557;
}
);
unicode = 0021;
},
{
glyphname = exclamdown;
layers = (
{
hints = (
{
horizontal = 1;
origin = "{0, 0}";
type = Tag;
name = hr00;
}
);
layerId = "5E936A5D-BBF2-432C-9FBC-FBC71ABAF060";
name = Regular;
paths = (
{
closed = 1;
nodes = (
"391 848 CURVE",
"391 920 OFFCURVE",
"362 961 OFFCURVE",
"293 961 CURVE SMOOTH",
"213 961 OFFCURVE",
"154 889 OFFCURVE",
"154 799 CURVE SMOOTH",
"154 725 OFFCURVE",
"186 684 OFFCURVE",
"254 684 CURVE SMOOTH",
"328 684 OFFCURVE",
"391 758 OFFCURVE"
);
},
{
closed = 1;
nodes = (
"371 -483 CURVE",
"322 551 LINE",
"295 569 LINE",
"260 559 OFFCURVE",
"246 551 OFFCURVE",
"219 530 CURVE",
"172 -543 LINE",
"215 -565 LINE",
"260 -549 OFFCURVE",
"319 -516 OFFCURVE"
);
}
);
width = 557;
}
);
unicode = 00A1;
},
{
glyphname = numbersign;
layers = (
{
hints = (
{
horizontal = 1;
origin = "{0, 0}";
type = Tag;
name = hr00;
}
);
layerId = "5E936A5D-BBF2-432C-9FBC-FBC71ABAF060";
name = Regular;
paths = (
{
closed = 1;
nodes = (
"894 1270 LINE",
"867 1292 LINE",
"836 1280 OFFCURVE",
"806 1272 OFFCURVE",
"777 1251 CURVE",
"694 961 LINE",
"506 961 LINE",
"595 1270 LINE",
"566 1292 LINE",
"537 1280 OFFCURVE",
"507 1272 OFFCURVE",
"478 1251 CURVE",
"395 961 LINE",
"224 961 LINE",
"214 934 OFFCURVE",
"199 899 OFFCURVE",
"193 870 CURVE",
"218 846 LINE",
"362 846 LINE",
"289 590 LINE",
"117 590 LINE",
"105 563 OFFCURVE",
"93 526 OFFCURVE",
"87 500 CURVE",
"109 475 LINE",
"256 475 LINE",
"163 147 LINE",
"189 127 LINE",
"224 139 OFFCURVE",
"255 152 OFFCURVE",
"279 170 CURVE",
"366 475 LINE",
"555 475 LINE",
"462 147 LINE",
"488 127 LINE",
"523 139 OFFCURVE",
"556 152 OFFCURVE",
"580 170 CURVE",
"667 475 LINE",
"845 475 LINE",
"855 498 OFFCURVE",
"867 537 OFFCURVE",
"873 563 CURVE",
"851 590 LINE",
"700 590 LINE",
"773 846 LINE",
"951 846 LINE",
"961 868 OFFCURVE",
"976 907 OFFCURVE",
"982 936 CURVE",
"957 961 LINE",
"806 961 LINE"
);
},
{
closed = 1;
nodes = (
"473 846 LINE",
"661 846 LINE",
"588 590 LINE",
"399 590 LINE"
);
}
);
width = 961;
}
);
unicode = 0023;
},
{
glyphname = period;
layers = (
{
hints = (
{
horizontal = 1;
origin = "{0, 0}";
type = Tag;
name = hr00;
}
);
layerId = "5E936A5D-BBF2-432C-9FBC-FBC71ABAF060";
name = Regular;
paths = (
{
closed = 1;
nodes = (
"369 123 CURVE",
"369 195 OFFCURVE",
"336 236 OFFCURVE",
"270 236 CURVE SMOOTH",
"195 236 OFFCURVE",
"131 162 OFFCURVE",
"131 72 CURVE SMOOTH",
"131 0 OFFCURVE",
"160 -40 OFFCURVE",
"231 -40 CURVE SMOOTH",
"309 -40 OFFCURVE",
"369 31 OFFCURVE"
);
}
);
width = 469;
}
);
unicode = 002E;
},
{
glyphname = question;
layers = (
{
hints = (
{
horizontal = 1;
origin = "{1, 0}";
type = Tag;
name = hr01;
}
);
layerId = "5E936A5D-BBF2-432C-9FBC-FBC71ABAF060";
name = Regular;
paths = (
{
closed = 1;
nodes = (
"806 1165 CURVE",
"806 1352 OFFCURVE",
"698 1480 OFFCURVE",
"502 1480 CURVE SMOOTH",
"279 1480 OFFCURVE",
"80 1341 OFFCURVE",
"80 1153 CURVE SMOOTH",
"80 1143 OFFCURVE",
"80 1130 OFFCURVE",
"82 1120 CURVE",
"109 1090 LINE",
"168 1096 OFFCURVE",
"213 1106 OFFCURVE",
"256 1128 CURVE",
"250 1147 OFFCURVE",
"244 1167 OFFCURVE",
"244 1186 CURVE SMOOTH",
"244 1290 OFFCURVE",
"328 1384 OFFCURVE",
"424 1384 CURVE SMOOTH",
"563 1384 OFFCURVE",
"642 1284 OFFCURVE",
"642 1120 CURVE SMOOTH",
"642 930 OFFCURVE",
"342 715 OFFCURVE",
"354 485 CURVE",
"362 369 LINE",
"387 348 LINE",
"424 358 OFFCURVE",
"438 371 OFFCURVE",
"463 389 CURVE",
"469 485 LINE SMOOTH",
"489 768 OFFCURVE",
"806 864 OFFCURVE"
);
},
{
closed = 1;
nodes = (
"539 123 CURVE",
"539 195 OFFCURVE",
"506 236 OFFCURVE",
"440 236 CURVE SMOOTH",
"365 236 OFFCURVE",
"301 162 OFFCURVE",
"301 72 CURVE SMOOTH",
"301 0 OFFCURVE",
"330 -40 OFFCURVE",
"401 -40 CURVE SMOOTH",
"479 -40 OFFCURVE",
"539 31 OFFCURVE"
);
}
);
width = 887;
}
);
unicode = 003F;
},
{
glyphname = questiondown;
layers = (
{
hints = (
{
horizontal = 1;
origin = "{1, 17}";
type = Tag;
name = hr01;
}
);
layerId = "5E936A5D-BBF2-432C-9FBC-FBC71ABAF060";
name = Regular;
paths = (
{
closed = 1;
nodes = (
"586 848 CURVE",
"586 920 OFFCURVE",
"555 960 OFFCURVE",
"485 960 CURVE SMOOTH",
"408 960 OFFCURVE",
"348 889 OFFCURVE",
"348 799 CURVE SMOOTH",
"348 725 OFFCURVE",
"379 684 OFFCURVE",
"446 684 CURVE SMOOTH",
"522 684 OFFCURVE",
"586 758 OFFCURVE"
);
},
{
closed = 1;
nodes = (
"424 530 CURVE",
"418 434 LINE SMOOTH",
"397 154 OFFCURVE",
"80 55 OFFCURVE",
"80 -246 CURVE SMOOTH",
"80 -430 OFFCURVE",
"188 -559 OFFCURVE",
"385 -559 CURVE SMOOTH",
"608 -559 OFFCURVE",
"807 -422 OFFCURVE",
"807 -233 CURVE",
"807 -223 OFFCURVE",
"807 -211 OFFCURVE",
"805 -201 CURVE",
"778 -170 LINE",
"719 -174 OFFCURVE",
"674 -184 OFFCURVE",
"629 -209 CURVE",
"637 -227 OFFCURVE",
"643 -246 OFFCURVE",
"643 -266 CURVE SMOOTH",
"643 -371 OFFCURVE",
"559 -465 OFFCURVE",
"463 -465 CURVE SMOOTH",
"324 -465 OFFCURVE",
"246 -365 OFFCURVE",
"246 -201 CURVE SMOOTH",
"246 -10 OFFCURVE",
"545 205 OFFCURVE",
"530 434 CURVE SMOOTH",
"524 551 LINE",
"498 571 LINE",
"463 561 OFFCURVE",
"446 551 OFFCURVE"
);
}
);
width = 887;
}
);
unicode = 00BF;
},
{
glyphname = quotedbl;
layers = (
{
hints = (
{
horizontal = 1;
origin = "{0, 0}";
type = Tag;
name = hr00;
}
);
layerId = "5E936A5D-BBF2-432C-9FBC-FBC71ABAF060";
name = Regular;
paths = (
{
closed = 1;
nodes = (
"711 1459 LINE",
"668 1480 LINE",
"639 1474 OFFCURVE",
"547 1443 OFFCURVE",
"518 1426 CURVE",
"571 813 LINE",
"602 813 OFFCURVE",
"647 823 OFFCURVE",
"668 834 CURVE"
);
},
{
closed = 1;
nodes = (
"352 1459 LINE",
"309 1480 LINE",
"281 1474 OFFCURVE",
"190 1443 OFFCURVE",
"160 1426 CURVE",
"213 813 LINE",
"244 813 OFFCURVE",
"289 823 OFFCURVE",
"309 834 CURVE"
);
}
);
width = 870;
}
);
unicode = 0022;
},
{
glyphname = quotesingle;
layers = (
{
hints = (
{
horizontal = 1;
origin = "{0, 0}";
type = Tag;
name = hr00;
}
);
layerId = "5E936A5D-BBF2-432C-9FBC-FBC71ABAF060";
name = Regular;
paths = (
{
closed = 1;
nodes = (
"352 1459 LINE",
"309 1480 LINE",
"281 1474 OFFCURVE",
"190 1443 OFFCURVE",
"160 1426 CURVE",
"213 813 LINE",
"244 813 OFFCURVE",
"289 823 OFFCURVE",
"309 834 CURVE"
);
}
);
width = 512;
}
);
unicode = 0027;
},
{
glyphname = slash;
layers = (
{
hints = (
{
horizontal = 1;
origin = "{0, 0}";
type = Tag;
name = hr00;
}
);
layerId = "5E936A5D-BBF2-432C-9FBC-FBC71ABAF060";
name = Regular;
paths = (
{
closed = 1;
nodes = (
"909 1578 LINE",
"872 1600 LINE",
"834 1590 OFFCURVE",
"786 1574 OFFCURVE",
"750 1551 CURVE",
"49 -310 LINE",
"86 -335 LINE",
"119 -325 OFFCURVE",
"184 -302 OFFCURVE",
"211 -284 CURVE"
);
}
);
width = 961;
}
);
unicode = 002F;
},
{
glyphname = underscore;
layers = (
{
hints = (
{
horizontal = 1;
origin = "{0, 0}";
type = Tag;
name = hr00;
}
);
layerId = "5E936A5D-BBF2-432C-9FBC-FBC71ABAF060";
name = Regular;
paths = (
{
closed = 1;
nodes = (
"897 -156 CURVE",
"874 -131 LINE",
"92 -131 LINE",
"80 -158 OFFCURVE",
"68 -193 OFFCURVE",
"61 -219 CURVE",
"86 -246 LINE",
"868 -246 LINE",
"879 -221 OFFCURVE",
"891 -184 OFFCURVE"
);
}
);
width = 961;
}
);
unicode = 005F;
},
{
glyphname = braceleft;
layers = (
{
hints = (
{
horizontal = 1;
origin = "{0, 7}";
type = Tag;
name = hr01;
},
{
horizontal = 1;
origin = "{0, 20}";
type = Tag;
name = hr02;
},
{
horizontal = 1;
origin = "{0, 30}";
type = Tag;
name = hr03;
},
{
horizontal = 1;
origin = "{0, 39}";
type = Tag;
name = hr04;
}
);
layerId = "5E936A5D-BBF2-432C-9FBC-FBC71ABAF060";
name = Regular;
paths = (
{
closed = 1;
nodes = (
"649 1553 CURVE",
"623 1600 LINE",
"424 1510 OFFCURVE",
"299 1375 OFFCURVE",
"299 1195 CURVE SMOOTH",
"299 1031 OFFCURVE",
"340 1025 OFFCURVE",
"340 863 CURVE SMOOTH",
"340 763 OFFCURVE",
"258 674 OFFCURVE",
"102 633 CURVE",
"119 580 LINE",
"158 586 OFFCURVE",
"147 586 OFFCURVE",
"184 586 CURVE SMOOTH",
"283 586 OFFCURVE",
"340 530 OFFCURVE",
"340 422 CURVE SMOOTH",
"340 256 OFFCURVE",
"299 229 OFFCURVE",
"299 72 CURVE SMOOTH",
"299 -121 OFFCURVE",
"393 -225 OFFCURVE",
"616 -315 CURVE",
"639 -254 LINE",
"498 -176 OFFCURVE",
"465 -104 OFFCURVE",
"465 43 CURVE SMOOTH",
"465 176 OFFCURVE",
"506 225 OFFCURVE",
"506 385 CURVE SMOOTH",
"506 532 OFFCURVE",
"459 629 OFFCURVE",
"326 653 CURVE",
"438 702 OFFCURVE",
"506 812 OFFCURVE",
"506 923 CURVE SMOOTH",
"506 1078 OFFCURVE",
"465 1097 OFFCURVE",
"465 1252 CURVE SMOOTH",
"465 1390 OFFCURVE",
"545 1488 OFFCURVE"
);
}
);
width = 688;
}
);
unicode = 007B;
},
{
glyphname = braceright;
layers = (
{
hints = (
{
horizontal = 1;
origin = "{0, 10}";
type = Tag;
name = hr01;
},
{
horizontal = 1;
origin = "{0, 20}";
type = Tag;
name = hr02;
},
{
horizontal = 1;
origin = "{0, 29}";
type = Tag;
name = hr03;
},
{
horizontal = 1;
origin = "{0, 39}";
type = Tag;
name = hr04;
}
);
layerId = "5E936A5D-BBF2-432C-9FBC-FBC71ABAF060";
name = Regular;
paths = (
{
closed = 1;
nodes = (
"588 651 CURVE",
"571 707 LINE",
"530 698 OFFCURVE",
"541 700 OFFCURVE",
"506 700 CURVE SMOOTH",
"406 700 OFFCURVE",
"350 757 OFFCURVE",
"350 865 CURVE SMOOTH",
"350 1029 OFFCURVE",
"389 1058 OFFCURVE",
"389 1215 CURVE SMOOTH",
"389 1406 OFFCURVE",
"297 1512 OFFCURVE",
"72 1600 CURVE",
"49 1539 LINE",
"188 1463 OFFCURVE",
"223 1392 OFFCURVE",
"223 1242 CURVE SMOOTH",
"223 1111 OFFCURVE",
"184 1060 OFFCURVE",
"184 902 CURVE SMOOTH",
"184 753 OFFCURVE",
"229 657 OFFCURVE",
"365 631 CURVE",
"250 582 OFFCURVE",
"184 475 OFFCURVE",
"184 365 CURVE SMOOTH",
"184 207 OFFCURVE",
"223 190 OFFCURVE",
"223 35 CURVE SMOOTH",
"223 -104 OFFCURVE",
"143 -201 OFFCURVE",
"39 -266 CURVE",
"66 -315 LINE",
"264 -225 OFFCURVE",
"389 -88 OFFCURVE",
"389 92 CURVE SMOOTH",
"389 256 OFFCURVE",
"350 260 OFFCURVE",
"350 422 CURVE SMOOTH",
"350 524 OFFCURVE",
"430 610 OFFCURVE"
);
}
);
width = 688;
}
);
unicode = 007D;
},
{
glyphname = bracketleft;
layers = (
{
hints = (
{
horizontal = 1;
origin = "{0, 0}";
type = Tag;
name = hr00;
}
);
layerId = "5E936A5D-BBF2-432C-9FBC-FBC71ABAF060";
name = Regular;
paths = (
{
closed = 1;
nodes = (
"590 -249 CURVE",
"555 -220 LINE",
"280 -220 LINE",
"280 1485 LINE",
"561 1485 LINE",
"569 1501 OFFCURVE",
"582 1541 OFFCURVE",
"588 1574 CURVE",
"555 1600 LINE",
"140 1600 LINE",
"140 -335 LINE",
"561 -335 LINE",
"571 -312 OFFCURVE",
"584 -275 OFFCURVE"
);
}
);
width = 631;
}
);
unicode = 005B;
},
{
glyphname = bracketright;
layers = (
{
hints = (
{
horizontal = 1;
origin = "{0, 0}";
type = Tag;
name = hr00;
}
);
layerId = "5E936A5D-BBF2-432C-9FBC-FBC71ABAF060";
name = Regular;
paths = (
{
closed = 1;
nodes = (
"490 -335 LINE",
"490 1600 LINE",
"68 1600 LINE",
"59 1578 OFFCURVE",
"45 1540 OFFCURVE",
"41 1511 CURVE",
"76 1485 LINE",
"350 1485 LINE",
"350 -220 LINE",
"68 -220 LINE",
"59 -237 OFFCURVE",
"47 -275 OFFCURVE",
"43 -306 CURVE",
"76 -335 LINE"
);
}
);
width = 631;
}
);
unicode = 005D;
},
{
glyphname = parenleft;
layers = (
{
hints = (
{
horizontal = 1;
origin = "{0, 0}";
type = Tag;
name = hr00;
}
);
layerId = "5E936A5D-BBF2-432C-9FBC-FBC71ABAF060";
name = Regular;
paths = (
{
closed = 1;
nodes = (
"610 -270 LINE",
"406 -102 OFFCURVE",
"291 262 OFFCURVE",
"291 651 CURVE SMOOTH",
"291 1079 OFFCURVE",
"436 1410 OFFCURVE",
"610 1555 CURVE",
"578 1600 LINE",
"303 1457 OFFCURVE",
"121 1061 OFFCURVE",
"121 623 CURVE SMOOTH",
"121 199 OFFCURVE",
"276 -176 OFFCURVE",
"578 -315 CURVE"
);
}
);
width = 649;
}
);
unicode = 0028;
},
{
glyphname = parenright;
layers = (
{
hints = (
{
horizontal = 1;
origin = "{0, 0}";
type = Tag;
name = hr00;
}
);
layerId = "5E936A5D-BBF2-432C-9FBC-FBC71ABAF060";
name = Regular;
paths = (
{
closed = 1;
nodes = (
"530 664 CURVE",
"530 1087 OFFCURVE",
"373 1463 OFFCURVE",
"72 1600 CURVE",
"41 1555 LINE",
"246 1390 OFFCURVE",
"360 1022 OFFCURVE",
"360 635 CURVE SMOOTH",
"360 207 OFFCURVE",
"213 -125 OFFCURVE",
"41 -270 CURVE",
"72 -315 LINE",
"346 -172 OFFCURVE",
"530 225 OFFCURVE"
);
}
);
width = 649;
}
);
unicode = 0029;
},
{
glyphname = emdash;
layers = (
{
hints = (
{
horizontal = 1;
origin = "{0, 0}";
type = Tag;
name = hr00;
}
);
layerId = "5E936A5D-BBF2-432C-9FBC-FBC71ABAF060";
name = Regular;
paths = (
{
closed = 1;
nodes = (
"1508 546 CURVE",
"1484 570 LINE",
"92 570 LINE",
"80 544 OFFCURVE",
"68 508 OFFCURVE",
"61 479 CURVE",
"86 455 LINE",
"1478 455 LINE",
"1488 477 OFFCURVE",
"1502 517 OFFCURVE"
);
}
);
width = 1569;
}
);
unicode = 2014;
},
{
glyphname = endash;
layers = (
{
hints = (
{
horizontal = 1;
origin = "{0, 0}";
type = Tag;
name = hr00;
}
);
layerId = "5E936A5D-BBF2-432C-9FBC-FBC71ABAF060";
name = Regular;
paths = (
{
closed = 1;
nodes = (
"900 546 CURVE",
"877 570 LINE",
"92 570 LINE",
"80 544 OFFCURVE",
"68 508 OFFCURVE",
"61 479 CURVE",
"86 455 LINE",
"871 455 LINE",
"882 477 OFFCURVE",
"894 517 OFFCURVE"
);
}
);
width = 961;
}
);
unicode = 2013;
},
{
glyphname = hyphen;
layers = (
{
anchors = (
{
name = U;
position = "{345, 1050}";
}
);
hints = (
{
horizontal = 1;
origin = "{0, 0}";
type = Tag;
name = hr00;
}
);
layerId = "5E936A5D-BBF2-432C-9FBC-FBC71ABAF060";
name = Regular;
paths = (
{
closed = 1;
nodes = (
"629 546 CURVE",
"604 570 LINE",
"92 570 LINE",
"80 544 OFFCURVE",
"68 508 OFFCURVE",
"61 479 CURVE",
"86 455 LINE",
"598 455 LINE",
"608 477 OFFCURVE",
"621 517 OFFCURVE"
);
}
);
width = 690;
}
);
unicode = 002D;
},
{
glyphname = guillemetleft;
layers = (
{
hints = (
{
horizontal = 1;
origin = "{0, 6}";
type = Tag;
name = hr01;
},
{
horizontal = 1;
origin = "{0, 7}";
type = Tag;
name = hr02;
},
{
horizontal = 1;
origin = "{1, 6}";
type = Tag;
name = hr03;
},
{
horizontal = 1;
origin = "{1, 7}";
type = Tag;
name = hr04;
}
);
layerId = "5E936A5D-BBF2-432C-9FBC-FBC71ABAF060";
name = Regular;
paths = (
{
closed = 1;
nodes = (
"811 17 LINE",
"854 47 LINE",
"623 467 LINE",
"620 465 OFFCURVE",
"854 883 OFFCURVE",
"853 883 CURVE",
"811 913 LINE",
"452 503 LINE",
"450 500 OFFCURVE",
"450 430 OFFCURVE",
"450 430 CURVE"
);
},
{
closed = 1;
nodes = (
"441 17 LINE",
"484 47 LINE",
"253 467 LINE",
"250 465 OFFCURVE",
"484 883 OFFCURVE",
"483 883 CURVE",
"441 913 LINE",
"82 503 LINE",
"80 500 OFFCURVE",
"80 430 OFFCURVE",
"80 430 CURVE"
);
}
);
width = 994;
}
);
unicode = 00AB;
},
{
glyphname = guillemetright;
layers = (
{
hints = (
{
horizontal = 1;
origin = "{0, 0}";
type = Tag;
name = hr00;
}
);
layerId = "5E936A5D-BBF2-432C-9FBC-FBC71ABAF060";
name = Regular;
paths = (
{
closed = 1;
nodes = (
"542 503 LINE",
"183 913 LINE",
"141 883 LINE",
"371 467 LINE",
"140 47 LINE",
"183 17 LINE",
"544 430 LINE"
);
},
{
closed = 1;
nodes = (
"912 503 LINE",
"553 913 LINE",
"511 883 LINE",
"741 467 LINE",
"510 47 LINE",
"553 17 LINE",
"914 430 LINE"
);
}
);
width = 994;
}
);
unicode = 00BB;
},
{
glyphname = guilsinglleft;
layers = (
{
hints = (
{
horizontal = 1;
origin = "{0, 0}";
type = Tag;
name = hr00;
}
);
layerId = "5E936A5D-BBF2-432C-9FBC-FBC71ABAF060";
name = Regular;
paths = (
{
closed = 1;
nodes = (
"484 47 LINE",
"253 467 LINE",
"250 465 OFFCURVE",
"484 883 OFFCURVE",
"483 883 CURVE",
"441 913 LINE",
"82 503 LINE",
"80 500 OFFCURVE",
"80 430 OFFCURVE",
"80 430 CURVE",
"441 17 LINE"
);
}
);
width = 624;
}
);
unicode = 2039;
},
{
glyphname = guilsinglright;
layers = (
{
hints = (
{
horizontal = 1;
origin = "{0, 0}";
type = Tag;
name = hr00;
}
);
layerId = "5E936A5D-BBF2-432C-9FBC-FBC71ABAF060";
name = Regular;
paths = (
{
closed = 1;
nodes = (
"542 503 LINE",
"183 913 LINE",
"141 883 LINE",
"371 467 LINE",
"140 47 LINE",
"183 17 LINE",
"544 430 LINE"
);
}
);
width = 624;
}
);
unicode = 203A;
},
{
glyphname = quotedblbase;
layers = (
{
hints = (
{
horizontal = 1;
origin = "{0, 0}";
type = Tag;
name = hr00;
}
);
layerId = "5E936A5D-BBF2-432C-9FBC-FBC71ABAF060";
name = Regular;
paths = (
{
closed = 1;
nodes = (
"799 61 CURVE",
"799 137 OFFCURVE",
"774 178 OFFCURVE",
"731 219 CURVE",
"684 221 OFFCURVE",
"532 160 OFFCURVE",
"510 129 CURVE",
"526 84 LINE",
"602 80 OFFCURVE",
"639 29 OFFCURVE",
"639 -31 CURVE SMOOTH",
"639 -84 OFFCURVE",
"610 -178 OFFCURVE",
"555 -238 CURVE",
"598 -272 LINE",
"725 -190 OFFCURVE",
"799 -43 OFFCURVE"
);
},
{
closed = 1;
nodes = (
"377 61 CURVE",
"377 137 OFFCURVE",
"352 178 OFFCURVE",
"309 219 CURVE",
"262 221 OFFCURVE",
"111 160 OFFCURVE",
"88 129 CURVE",
"104 84 LINE",
"180 80 OFFCURVE",
"215 29 OFFCURVE",
"215 -31 CURVE SMOOTH",
"215 -84 OFFCURVE",
"188 -178 OFFCURVE",
"131 -238 CURVE",
"176 -272 LINE",
"303 -190 OFFCURVE",
"377 -43 OFFCURVE"
);
}
);
width = 920;
}
);
unicode = 201E;
},
{
glyphname = quotedblleft;
layers = (
{
hints = (
{
horizontal = 1;
origin = "{0, 0}";
type = Tag;
name = hr00;
}
);
layerId = "5E936A5D-BBF2-432C-9FBC-FBC71ABAF060";
name = Regular;
paths = (
{
closed = 1;
nodes = (
"805 1051 CURVE",
"788 1096 LINE",
"711 1098 OFFCURVE",
"676 1149 OFFCURVE",
"676 1208 CURVE SMOOTH",
"676 1264 OFFCURVE",
"702 1356 OFFCURVE",
"760 1415 CURVE",
"717 1450 LINE",
"588 1368 OFFCURVE",
"514 1221 OFFCURVE",
"514 1118 CURVE SMOOTH",
"514 1040 OFFCURVE",
"541 999 OFFCURVE",
"584 961 CURVE",
"631 956 OFFCURVE",
"780 1018 OFFCURVE"
);
},
{
closed = 1;
nodes = (
"383 1051 CURVE",
"367 1096 LINE",
"289 1098 OFFCURVE",
"254 1149 OFFCURVE",
"254 1208 CURVE SMOOTH",
"254 1264 OFFCURVE",
"281 1356 OFFCURVE",
"338 1415 CURVE",
"295 1450 LINE",
"166 1368 OFFCURVE",
"92 1221 OFFCURVE",
"92 1118 CURVE SMOOTH",
"92 1040 OFFCURVE",
"117 999 OFFCURVE",
"162 961 CURVE",
"209 956 OFFCURVE",
"358 1018 OFFCURVE"
);
}
);
width = 893;
}
);
unicode = 201C;
},
{
glyphname = quotedblright;
layers = (
{
hints = (
{
horizontal = 1;
origin = "{0, 0}";
type = Tag;
name = hr00;
}
);
layerId = "5E936A5D-BBF2-432C-9FBC-FBC71ABAF060";
name = Regular;
paths = (
{
closed = 1;
nodes = (
"799 1296 CURVE",
"799 1372 OFFCURVE",
"774 1413 OFFCURVE",
"731 1454 CURVE",
"684 1456 OFFCURVE",
"532 1395 OFFCURVE",
"510 1364 CURVE",
"526 1319 LINE",
"602 1315 OFFCURVE",
"639 1264 OFFCURVE",
"639 1204 CURVE SMOOTH",
"639 1151 OFFCURVE",
"610 1057 OFFCURVE",
"555 997 CURVE",
"598 963 LINE",
"725 1044 OFFCURVE",
"799 1192 OFFCURVE"
);
},
{
closed = 1;
nodes = (
"377 1296 CURVE",
"377 1372 OFFCURVE",
"352 1413 OFFCURVE",
"309 1454 CURVE",
"262 1456 OFFCURVE",
"111 1395 OFFCURVE",
"88 1364 CURVE",
"104 1319 LINE",
"180 1315 OFFCURVE",
"215 1264 OFFCURVE",
"215 1204 CURVE SMOOTH",
"215 1151 OFFCURVE",
"188 1057 OFFCURVE",
"131 997 CURVE",
"176 963 LINE",
"303 1044 OFFCURVE",
"377 1192 OFFCURVE"
);
}
);
width = 893;
}
);
unicode = 201D;
},
{
glyphname = quoteleft;
layers = (
{
hints = (
{
horizontal = 1;
origin = "{0, 0}";
type = Tag;
name = hr00;
}
);
layerId = "5E936A5D-BBF2-432C-9FBC-FBC71ABAF060";
name = Regular;
paths = (
{
closed = 1;
nodes = (
"383 1051 CURVE",
"367 1096 LINE",
"289 1098 OFFCURVE",
"254 1149 OFFCURVE",
"254 1208 CURVE SMOOTH",
"254 1264 OFFCURVE",
"281 1356 OFFCURVE",
"338 1415 CURVE",
"295 1450 LINE",
"166 1368 OFFCURVE",
"92 1221 OFFCURVE",
"92 1118 CURVE SMOOTH",
"92 1040 OFFCURVE",
"117 999 OFFCURVE",
"162 961 CURVE",
"209 956 OFFCURVE",
"358 1018 OFFCURVE"
);
}
);
width = 469;
}
);
unicode = 2018;
},
{
glyphname = quoteright;
layers = (
{
hints = (
{
horizontal = 1;
origin = "{0, 0}";
type = Tag;
name = hr00;
}
);
layerId = "5E936A5D-BBF2-432C-9FBC-FBC71ABAF060";
name = Regular;
paths = (
{
closed = 1;
nodes = (
"377 1296 CURVE",
"377 1372 OFFCURVE",
"352 1413 OFFCURVE",
"309 1454 CURVE",
"262 1456 OFFCURVE",
"111 1395 OFFCURVE",
"88 1364 CURVE",
"104 1319 LINE",
"180 1315 OFFCURVE",
"215 1264 OFFCURVE",
"215 1204 CURVE SMOOTH",
"215 1151 OFFCURVE",
"188 1057 OFFCURVE",
"131 997 CURVE",
"176 963 LINE",
"303 1044 OFFCURVE",
"377 1192 OFFCURVE"
);
}
);
width = 469;
}
);
unicode = 2019;
},
{
glyphname = quotesinglbase;
layers = (
{
hints = (
{
horizontal = 1;
origin = "{0, 0}";
type = Tag;
name = hr00;
}
);
layerId = "5E936A5D-BBF2-432C-9FBC-FBC71ABAF060";
name = Regular;
paths = (
{
closed = 1;
nodes = (
"377 61 CURVE",
"377 137 OFFCURVE",
"352 178 OFFCURVE",
"309 219 CURVE",
"262 221 OFFCURVE",
"111 160 OFFCURVE",
"88 129 CURVE",
"104 84 LINE",
"180 80 OFFCURVE",
"215 29 OFFCURVE",
"215 -31 CURVE SMOOTH",
"215 -84 OFFCURVE",
"188 -178 OFFCURVE",
"131 -238 CURVE",
"176 -272 LINE",
"303 -190 OFFCURVE",
"377 -43 OFFCURVE"
);
}
);
width = 469;
}
);
unicode = 201A;
},
{
glyphname = .notdef;
layers = (
{
layerId = "5E936A5D-BBF2-432C-9FBC-FBC71ABAF060";
name = Regular;
paths = (
{
closed = 1;
nodes = (
"100 0 LINE",
"1300 0 LINE",
"1300 1800 LINE",
"100 1800 LINE"
);
},
{
closed = 1;
nodes = (
"150 1750 LINE",
"1250 1750 LINE",
"1250 50 LINE",
"150 50 LINE"
);
}
);
width = 1400;
}
);
},
